<?xml version="1.0" encoding="UTF-8" standalone="no"?>
<!DOCTYPE svg PUBLIC "-//W3C//DTD SVG 1.1//EN"
 "http://www.w3.org/Graphics/SVG/1.1/DTD/svg11.dtd">
<!-- Generated by graphviz version 2.34.0 (20131220.1325)
 -->
<!-- Title: controllers_diagram Pages: 1 -->
<svg width="484pt" height="472pt"
 viewBox="0.00 0.00 483.63 472.00" xmlns="http://www.w3.org/2000/svg" xmlns:xlink="http://www.w3.org/1999/xlink">
<g id="graph0" class="graph" transform="scale(1 1) rotate(0) translate(4 468)">
<title>controllers_diagram</title>
<polygon fill="white" stroke="white" points="-4,4 -4,-468 479.635,-468 479.635,4 -4,4"/>
<!-- _diagram_info -->
<g id="node1" class="node"><title>_diagram_info</title>
<text text-anchor="start" x="236" y="-69" font-family="Times,serif" font-size="13.00">Controllers diagram</text>
<text text-anchor="start" x="236" y="-53.4" font-family="Times,serif" font-size="13.00">Date: Dec 30 2013 &#45; 02:36</text>
<text text-anchor="start" x="236" y="-37.8" font-family="Times,serif" font-size="13.00">Migration version: 20131227132749</text>
<text text-anchor="start" x="236" y="-22.2" font-family="Times,serif" font-size="13.00">Generated by RailRoady 1.1.1</text>
<text text-anchor="start" x="236" y="-6.6" font-family="Times,serif" font-size="13.00">http://railroady.prestonlee.com</text>
</g>
<!-- ApplicationController -->
<g id="node2" class="node"><title>ApplicationController</title>
<path fill="none" stroke="black" d="M12,-95.5C12,-95.5 183.635,-95.5 183.635,-95.5 189.635,-95.5 195.635,-101.5 195.635,-107.5 195.635,-107.5 195.635,-198.7 195.635,-198.7 195.635,-204.7 189.635,-210.7 183.635,-210.7 183.635,-210.7 12,-210.7 12,-210.7 6,-210.7 0,-204.7 0,-198.7 0,-198.7 0,-107.5 0,-107.5 0,-101.5 6,-95.5 12,-95.5"/>
<text text-anchor="middle" x="97.8174" y="-192.7" font-family="Times,serif" font-size="14.00">ApplicationController</text>
<polyline fill="none" stroke="black" points="0,-185.9 195.635,-185.9 "/>
<text text-anchor="start" x="8" y="-167.9" font-family="Times,serif" font-size="14.00">_one_time_conditions_valid_8?</text>
<text text-anchor="start" x="8" y="-151.1" font-family="Times,serif" font-size="14.00">authenticate_admin_user!</text>
<polyline fill="none" stroke="black" points="0,-144.3 195.635,-144.3 "/>
<polyline fill="none" stroke="black" points="0,-120.3 195.635,-120.3 "/>
<text text-anchor="start" x="8" y="-102.3" font-family="Times,serif" font-size="14.00">_layout</text>
</g>
<!-- HomeController -->
<g id="node4" class="node"><title>HomeController</title>
<path fill="none" stroke="black" d="M223.731,-103.86C223.731,-103.86 307.49,-103.86 307.49,-103.86 313.49,-103.86 319.49,-109.86 319.49,-115.86 319.49,-115.86 319.49,-190.26 319.49,-190.26 319.49,-196.26 313.49,-202.26 307.49,-202.26 307.49,-202.26 223.731,-202.26 223.731,-202.26 217.731,-202.26 211.731,-196.26 211.731,-190.26 211.731,-190.26 211.731,-115.86 211.731,-115.86 211.731,-109.86 217.731,-103.86 223.731,-103.86"/>
<text text-anchor="middle" x="265.61" y="-184.26" font-family="Times,serif" font-size="14.00">HomeController</text>
<polyline fill="none" stroke="black" points="211.731,-177.46 319.49,-177.46 "/>
<text text-anchor="start" x="219.731" y="-159.46" font-family="Times,serif" font-size="14.00">index</text>
<polyline fill="none" stroke="black" points="211.731,-152.66 319.49,-152.66 "/>
<polyline fill="none" stroke="black" points="211.731,-128.66 319.49,-128.66 "/>
<text text-anchor="start" x="219.731" y="-110.66" font-family="Times,serif" font-size="14.00">_layout</text>
</g>
<!-- ApplicationController&#45;&gt;HomeController -->
<g id="edge1" class="edge"><title>ApplicationController&#45;&gt;HomeController</title>
<path fill="none" stroke="black" d="M195.909,-153.077C199.391,-153.076 202.841,-153.075 206.231,-153.074"/>
<polyline fill="none" stroke="black" points="211.507,-153.073 206.507,-153.074 "/>
</g>
<!-- FormController -->
<g id="node3" class="node"><title>FormController</title>
<path fill="none" stroke="black" d="M373,-114.5C373,-114.5 452.883,-114.5 452.883,-114.5 458.883,-114.5 464.883,-120.5 464.883,-126.5 464.883,-126.5 464.883,-200.9 464.883,-200.9 464.883,-206.9 458.883,-212.9 452.883,-212.9 452.883,-212.9 373,-212.9 373,-212.9 367,-212.9 361,-206.9 361,-200.9 361,-200.9 361,-126.5 361,-126.5 361,-120.5 367,-114.5 373,-114.5"/>
<text text-anchor="middle" x="412.941" y="-194.9" font-family="Times,serif" font-size="14.00">FormController</text>
<polyline fill="none" stroke="black" points="361,-188.1 464.883,-188.1 "/>
<text text-anchor="start" x="369" y="-170.1" font-family="Times,serif" font-size="14.00">index</text>
<polyline fill="none" stroke="black" points="361,-163.3 464.883,-163.3 "/>
<polyline fill="none" stroke="black" points="361,-139.3 464.883,-139.3 "/>
<text text-anchor="start" x="369" y="-121.3" font-family="Times,serif" font-size="14.00">_layout</text>
</g>
<!-- RegistersController -->
<g id="node5" class="node"><title>RegistersController</title>
<path fill="none" stroke="black" d="M278,-247.5C278,-247.5 463.635,-247.5 463.635,-247.5 469.635,-247.5 475.635,-253.5 475.635,-259.5 475.635,-259.5 475.635,-451.5 475.635,-451.5 475.635,-457.5 469.635,-463.5 463.635,-463.5 463.635,-463.5 278,-463.5 278,-463.5 272,-463.5 266,-457.5 266,-451.5 266,-451.5 266,-259.5 266,-259.5 266,-253.5 272,-247.5 278,-247.5"/>
<text text-anchor="middle" x="370.817" y="-445.5" font-family="Times,serif" font-size="14.00">RegistersController</text>
<polyline fill="none" stroke="black" points="266,-438.7 475.635,-438.7 "/>
<text text-anchor="start" x="274" y="-420.7" font-family="Times,serif" font-size="14.00">_one_time_conditions_valid_176?</text>
<text text-anchor="start" x="274" y="-403.9" font-family="Times,serif" font-size="14.00">create</text>
<text text-anchor="start" x="274" y="-387.1" font-family="Times,serif" font-size="14.00">destroy</text>
<text text-anchor="start" x="274" y="-370.3" font-family="Times,serif" font-size="14.00">edit</text>
<text text-anchor="start" x="274" y="-353.5" font-family="Times,serif" font-size="14.00">index</text>
<text text-anchor="start" x="274" y="-336.7" font-family="Times,serif" font-size="14.00">new</text>
<text text-anchor="start" x="274" y="-319.9" font-family="Times,serif" font-size="14.00">show</text>
<text text-anchor="start" x="274" y="-303.1" font-family="Times,serif" font-size="14.00">update</text>
<polyline fill="none" stroke="black" points="266,-296.3 475.635,-296.3 "/>
<polyline fill="none" stroke="black" points="266,-272.3 475.635,-272.3 "/>
<text text-anchor="start" x="274" y="-254.3" font-family="Times,serif" font-size="14.00">_layout</text>
</g>
<!-- RunpaController -->
<g id="node6" class="node"><title>RunpaController</title>
<path fill="none" stroke="black" d="M31,-304.5C31,-304.5 216.635,-304.5 216.635,-304.5 222.635,-304.5 228.635,-310.5 228.635,-316.5 228.635,-316.5 228.635,-390.9 228.635,-390.9 228.635,-396.9 222.635,-402.9 216.635,-402.9 216.635,-402.9 31,-402.9 31,-402.9 25,-402.9 19,-396.9 19,-390.9 19,-390.9 19,-316.5 19,-316.5 19,-310.5 25,-304.5 31,-304.5"/>
<text text-anchor="middle" x="123.817" y="-384.9" font-family="Times,serif" font-size="14.00">RunpaController</text>
<polyline fill="none" stroke="black" points="19,-378.1 228.635,-378.1 "/>
<text text-anchor="start" x="27" y="-360.1" font-family="Times,serif" font-size="14.00">_one_time_conditions_valid_102?</text>
<polyline fill="none" stroke="black" points="19,-353.3 228.635,-353.3 "/>
<polyline fill="none" stroke="black" points="19,-329.3 228.635,-329.3 "/>
<text text-anchor="start" x="27" y="-311.3" font-family="Times,serif" font-size="14.00">_layout</text>
</g>
</g>
</svg>
