<?xml version="1.0" encoding="UTF-8" standalone="no"?>
<!DOCTYPE svg PUBLIC "-//W3C//DTD SVG 1.1//EN"
 "http://www.w3.org/Graphics/SVG/1.1/DTD/svg11.dtd">
<!-- Generated by graphviz version 2.36.0 (20140111.2315)
 -->
<!-- Title: controllers_diagram Pages: 1 -->
<svg width="838pt" height="794pt"
 viewBox="0.00 0.00 837.63 794.00" xmlns="http://www.w3.org/2000/svg" xmlns:xlink="http://www.w3.org/1999/xlink">
<g id="graph0" class="graph" transform="scale(1 1) rotate(0) translate(4 790)">
<title>controllers_diagram</title>
<polygon fill="white" stroke="none" points="-4,4 -4,-790 833.635,-790 833.635,4 -4,4"/>
<!-- _diagram_info -->
<g id="node1" class="node"><title>_diagram_info</title>
<text text-anchor="start" x="473" y="-275.6" font-family="Times,serif" font-size="13.00">Controllers diagram</text>
<text text-anchor="start" x="473" y="-262.6" font-family="Times,serif" font-size="13.00">Date: Apr 03 2014 &#45; 12:38</text>
<text text-anchor="start" x="473" y="-249.6" font-family="Times,serif" font-size="13.00">Migration version: 20140324134912</text>
<text text-anchor="start" x="473" y="-236.6" font-family="Times,serif" font-size="13.00">Generated by RailRoady 1.1.1</text>
<text text-anchor="start" x="473" y="-223.6" font-family="Times,serif" font-size="13.00">http://railroady.prestonlee.com</text>
</g>
<!-- Api::V1::RegistersController -->
<g id="node2" class="node"><title>Api::V1::RegistersController</title>
<path fill="none" stroke="black" d="M12,-62.6537C12,-62.6537 167.317,-62.6537 167.317,-62.6537 173.317,-62.6537 179.317,-68.6537 179.317,-74.6537 179.317,-74.6537 179.317,-154.654 179.317,-154.654 179.317,-160.654 173.317,-166.654 167.317,-166.654 167.317,-166.654 12,-166.654 12,-166.654 6,-166.654 0,-160.654 0,-154.654 0,-154.654 0,-74.6537 0,-74.6537 0,-68.6537 6,-62.6537 12,-62.6537"/>
<text text-anchor="middle" x="89.6587" y="-151.454" font-family="Times,serif" font-size="14.00">Api::V1::RegistersController</text>
<polyline fill="none" stroke="black" points="0,-144.654 179.317,-144.654 "/>
<text text-anchor="start" x="8" y="-129.454" font-family="Times,serif" font-size="14.00">index</text>
<text text-anchor="start" x="8" y="-115.454" font-family="Times,serif" font-size="14.00">show</text>
<polyline fill="none" stroke="black" points="0,-108.654 179.317,-108.654 "/>
<polyline fill="none" stroke="black" points="0,-84.6537 179.317,-84.6537 "/>
<text text-anchor="start" x="8" y="-69.4537" font-family="Times,serif" font-size="14.00">_layout</text>
</g>
<!-- Api::V1::UsersController -->
<g id="node3" class="node"><title>Api::V1::UsersController</title>
<path fill="none" stroke="black" d="M421.459,-62.5C421.459,-62.5 556.556,-62.5 556.556,-62.5 562.556,-62.5 568.556,-68.5 568.556,-74.5 568.556,-74.5 568.556,-154.5 568.556,-154.5 568.556,-160.5 562.556,-166.5 556.556,-166.5 556.556,-166.5 421.459,-166.5 421.459,-166.5 415.459,-166.5 409.459,-160.5 409.459,-154.5 409.459,-154.5 409.459,-74.5 409.459,-74.5 409.459,-68.5 415.459,-62.5 421.459,-62.5"/>
<text text-anchor="middle" x="489.008" y="-151.3" font-family="Times,serif" font-size="14.00">Api::V1::UsersController</text>
<polyline fill="none" stroke="black" points="409.459,-144.5 568.556,-144.5 "/>
<text text-anchor="start" x="417.459" y="-129.3" font-family="Times,serif" font-size="14.00">get_token</text>
<text text-anchor="start" x="417.459" y="-115.3" font-family="Times,serif" font-size="14.00">new_token</text>
<polyline fill="none" stroke="black" points="409.459,-108.5 568.556,-108.5 "/>
<polyline fill="none" stroke="black" points="409.459,-84.5 568.556,-84.5 "/>
<text text-anchor="start" x="417.459" y="-69.3" font-family="Times,serif" font-size="14.00">_layout</text>
</g>
<!-- ApplicationController -->
<g id="node4" class="node"><title>ApplicationController</title>
<path fill="none" stroke="black" d="M199.921,-180.406C199.921,-180.406 378.556,-180.406 378.556,-180.406 384.556,-180.406 390.556,-186.406 390.556,-192.406 390.556,-192.406 390.556,-286.406 390.556,-286.406 390.556,-292.406 384.556,-298.406 378.556,-298.406 378.556,-298.406 199.921,-298.406 199.921,-298.406 193.921,-298.406 187.921,-292.406 187.921,-286.406 187.921,-286.406 187.921,-192.406 187.921,-192.406 187.921,-186.406 193.921,-180.406 199.921,-180.406"/>
<text text-anchor="middle" x="289.238" y="-283.206" font-family="Times,serif" font-size="14.00">ApplicationController</text>
<polyline fill="none" stroke="black" points="187.921,-276.406 390.556,-276.406 "/>
<text text-anchor="start" x="195.921" y="-261.206" font-family="Times,serif" font-size="14.00">_one_time_conditions_valid_30?</text>
<text text-anchor="start" x="195.921" y="-247.206" font-family="Times,serif" font-size="14.00">access_denied</text>
<text text-anchor="start" x="195.921" y="-233.206" font-family="Times,serif" font-size="14.00">authenticate_admin_user!</text>
<polyline fill="none" stroke="black" points="187.921,-226.406 390.556,-226.406 "/>
<polyline fill="none" stroke="black" points="187.921,-202.406 390.556,-202.406 "/>
<text text-anchor="start" x="195.921" y="-187.206" font-family="Times,serif" font-size="14.00">_layout</text>
</g>
<!-- ApplicationController&#45;&gt;Api::V1::RegistersController -->
<g id="edge1" class="edge"><title>ApplicationController&#45;&gt;Api::V1::RegistersController</title>
<path fill="none" stroke="black" d="M194.709,-180.318C187.454,-175.783 180.163,-171.226 172.989,-166.741"/>
</g>
<!-- ApplicationController&#45;&gt;Api::V1::UsersController -->
<g id="edge2" class="edge"><title>ApplicationController&#45;&gt;Api::V1::UsersController</title>
<path fill="none" stroke="black" d="M383.858,-180.245C392.329,-174.948 400.851,-169.62 409.179,-164.413"/>
</g>
<!-- HomeController -->
<g id="node5" class="node"><title>HomeController</title>
<path fill="none" stroke="black" d="M60.5117,-378.924C60.5117,-378.924 144.271,-378.924 144.271,-378.924 150.271,-378.924 156.271,-384.924 156.271,-390.924 156.271,-390.924 156.271,-456.924 156.271,-456.924 156.271,-462.924 150.271,-468.924 144.271,-468.924 144.271,-468.924 60.5117,-468.924 60.5117,-468.924 54.5117,-468.924 48.5117,-462.924 48.5117,-456.924 48.5117,-456.924 48.5117,-390.924 48.5117,-390.924 48.5117,-384.924 54.5117,-378.924 60.5117,-378.924"/>
<text text-anchor="middle" x="102.391" y="-453.724" font-family="Times,serif" font-size="14.00">HomeController</text>
<polyline fill="none" stroke="black" points="48.5117,-446.924 156.271,-446.924 "/>
<text text-anchor="start" x="56.5117" y="-431.724" font-family="Times,serif" font-size="14.00">index</text>
<polyline fill="none" stroke="black" points="48.5117,-424.924 156.271,-424.924 "/>
<polyline fill="none" stroke="black" points="48.5117,-400.924 156.271,-400.924 "/>
<text text-anchor="start" x="56.5117" y="-385.724" font-family="Times,serif" font-size="14.00">_layout</text>
</g>
<!-- ApplicationController&#45;&gt;HomeController -->
<g id="edge3" class="edge"><title>ApplicationController&#45;&gt;HomeController</title>
<path fill="none" stroke="black" d="M229.348,-298.55C202.982,-324.587 172.509,-354.68 148.027,-378.857"/>
</g>
<!-- RegisterStepsController -->
<g id="node6" class="node"><title>RegisterStepsController</title>
<path fill="none" stroke="black" d="M383.928,-329.666C383.928,-329.666 569.563,-329.666 569.563,-329.666 575.563,-329.666 581.563,-335.666 581.563,-341.666 581.563,-341.666 581.563,-505.666 581.563,-505.666 581.563,-511.666 575.563,-517.666 569.563,-517.666 569.563,-517.666 383.928,-517.666 383.928,-517.666 377.928,-517.666 371.928,-511.666 371.928,-505.666 371.928,-505.666 371.928,-341.666 371.928,-341.666 371.928,-335.666 377.928,-329.666 383.928,-329.666"/>
<text text-anchor="middle" x="476.746" y="-502.466" font-family="Times,serif" font-size="14.00">RegisterStepsController</text>
<polyline fill="none" stroke="black" points="371.928,-495.666 581.563,-495.666 "/>
<text text-anchor="start" x="379.928" y="-480.466" font-family="Times,serif" font-size="14.00">_callback_before_669</text>
<text text-anchor="start" x="379.928" y="-466.466" font-family="Times,serif" font-size="14.00">_one_time_conditions_valid_664?</text>
<text text-anchor="start" x="379.928" y="-452.466" font-family="Times,serif" font-size="14.00">_one_time_conditions_valid_668?</text>
<text text-anchor="start" x="379.928" y="-438.466" font-family="Times,serif" font-size="14.00">_one_time_conditions_valid_670?</text>
<text text-anchor="start" x="379.928" y="-424.466" font-family="Times,serif" font-size="14.00">finish_wizard_path</text>
<text text-anchor="start" x="379.928" y="-410.466" font-family="Times,serif" font-size="14.00">registers_no_valids</text>
<text text-anchor="start" x="379.928" y="-396.466" font-family="Times,serif" font-size="14.00">show</text>
<text text-anchor="start" x="379.928" y="-382.466" font-family="Times,serif" font-size="14.00">update</text>
<polyline fill="none" stroke="black" points="371.928,-375.666 581.563,-375.666 "/>
<polyline fill="none" stroke="black" points="371.928,-351.666 581.563,-351.666 "/>
<text text-anchor="start" x="379.928" y="-336.466" font-family="Times,serif" font-size="14.00">_layout</text>
</g>
<!-- ApplicationController&#45;&gt;RegisterStepsController -->
<g id="edge4" class="edge"><title>ApplicationController&#45;&gt;RegisterStepsController</title>
<path fill="none" stroke="black" d="M349.34,-298.467C359.41,-308.362 370.076,-318.844 380.781,-329.363"/>
</g>
<!-- RegistersController -->
<g id="node7" class="node"><title>RegistersController</title>
<path fill="none" stroke="black" d="M105,-527.5C105,-527.5 290.635,-527.5 290.635,-527.5 296.635,-527.5 302.635,-533.5 302.635,-539.5 302.635,-539.5 302.635,-773.5 302.635,-773.5 302.635,-779.5 296.635,-785.5 290.635,-785.5 290.635,-785.5 105,-785.5 105,-785.5 99,-785.5 93,-779.5 93,-773.5 93,-773.5 93,-539.5 93,-539.5 93,-533.5 99,-527.5 105,-527.5"/>
<text text-anchor="middle" x="197.817" y="-770.3" font-family="Times,serif" font-size="14.00">RegistersController</text>
<polyline fill="none" stroke="black" points="93,-763.5 302.635,-763.5 "/>
<text text-anchor="start" x="101" y="-748.3" font-family="Times,serif" font-size="14.00">_callback_before_673</text>
<text text-anchor="start" x="101" y="-734.3" font-family="Times,serif" font-size="14.00">_one_time_conditions_valid_674?</text>
<text text-anchor="start" x="101" y="-720.3" font-family="Times,serif" font-size="14.00">_one_time_conditions_valid_678?</text>
<text text-anchor="start" x="101" y="-706.3" font-family="Times,serif" font-size="14.00">create</text>
<text text-anchor="start" x="101" y="-692.3" font-family="Times,serif" font-size="14.00">destroy</text>
<text text-anchor="start" x="101" y="-678.3" font-family="Times,serif" font-size="14.00">edit</text>
<text text-anchor="start" x="101" y="-664.3" font-family="Times,serif" font-size="14.00">get_communities</text>
<text text-anchor="start" x="101" y="-650.3" font-family="Times,serif" font-size="14.00">index</text>
<text text-anchor="start" x="101" y="-636.3" font-family="Times,serif" font-size="14.00">new</text>
<text text-anchor="start" x="101" y="-622.3" font-family="Times,serif" font-size="14.00">registers_no_valids</text>
<text text-anchor="start" x="101" y="-608.3" font-family="Times,serif" font-size="14.00">show</text>
<text text-anchor="start" x="101" y="-594.3" font-family="Times,serif" font-size="14.00">update</text>
<text text-anchor="start" x="101" y="-580.3" font-family="Times,serif" font-size="14.00">versions</text>
<polyline fill="none" stroke="black" points="93,-573.5 302.635,-573.5 "/>
<polyline fill="none" stroke="black" points="93,-549.5 302.635,-549.5 "/>
<text text-anchor="start" x="101" y="-534.3" font-family="Times,serif" font-size="14.00">_layout</text>
</g>
<!-- ReportsController -->
<g id="node8" class="node"><title>ReportsController</title>
<path fill="none" stroke="black" d="M570,-558.5C570,-558.5 755.635,-558.5 755.635,-558.5 761.635,-558.5 767.635,-564.5 767.635,-570.5 767.635,-570.5 767.635,-692.5 767.635,-692.5 767.635,-698.5 761.635,-704.5 755.635,-704.5 755.635,-704.5 570,-704.5 570,-704.5 564,-704.5 558,-698.5 558,-692.5 558,-692.5 558,-570.5 558,-570.5 558,-564.5 564,-558.5 570,-558.5"/>
<text text-anchor="middle" x="662.817" y="-689.3" font-family="Times,serif" font-size="14.00">ReportsController</text>
<polyline fill="none" stroke="black" points="558,-682.5 767.635,-682.5 "/>
<text text-anchor="start" x="566" y="-667.3" font-family="Times,serif" font-size="14.00">_callback_before_681</text>
<text text-anchor="start" x="566" y="-653.3" font-family="Times,serif" font-size="14.00">_one_time_conditions_valid_682?</text>
<text text-anchor="start" x="566" y="-639.3" font-family="Times,serif" font-size="14.00">_one_time_conditions_valid_684?</text>
<text text-anchor="start" x="566" y="-625.3" font-family="Times,serif" font-size="14.00">index</text>
<text text-anchor="start" x="566" y="-611.3" font-family="Times,serif" font-size="14.00">set_location</text>
<polyline fill="none" stroke="black" points="558,-604.5 767.635,-604.5 "/>
<polyline fill="none" stroke="black" points="558,-580.5 767.635,-580.5 "/>
<text text-anchor="start" x="566" y="-565.3" font-family="Times,serif" font-size="14.00">_layout</text>
</g>
<!-- RunpaController -->
<g id="node9" class="node"><title>RunpaController</title>
<path fill="none" stroke="black" d="M632,-0.5C632,-0.5 817.635,-0.5 817.635,-0.5 823.635,-0.5 829.635,-6.5 829.635,-12.5 829.635,-12.5 829.635,-78.5 829.635,-78.5 829.635,-84.5 823.635,-90.5 817.635,-90.5 817.635,-90.5 632,-90.5 632,-90.5 626,-90.5 620,-84.5 620,-78.5 620,-78.5 620,-12.5 620,-12.5 620,-6.5 626,-0.5 632,-0.5"/>
<text text-anchor="middle" x="724.817" y="-75.3" font-family="Times,serif" font-size="14.00">RunpaController</text>
<polyline fill="none" stroke="black" points="620,-68.5 829.635,-68.5 "/>
<text text-anchor="start" x="628" y="-53.3" font-family="Times,serif" font-size="14.00">_one_time_conditions_valid_672?</text>
<polyline fill="none" stroke="black" points="620,-46.5 829.635,-46.5 "/>
<polyline fill="none" stroke="black" points="620,-22.5 829.635,-22.5 "/>
<text text-anchor="start" x="628" y="-7.3" font-family="Times,serif" font-size="14.00">_layout</text>
</g>
</g>
</svg>
