<?xml version="1.0" encoding="UTF-8" standalone="no"?>
<!DOCTYPE svg PUBLIC "-//W3C//DTD SVG 1.1//EN"
 "http://www.w3.org/Graphics/SVG/1.1/DTD/svg11.dtd">
<!-- Generated by graphviz version 2.34.0 (20131220.1325)
 -->
<!-- Title: models_diagram Pages: 1 -->
<svg width="1784pt" height="310pt"
 viewBox="0.00 0.00 1784.00 310.00" xmlns="http://www.w3.org/2000/svg" xmlns:xlink="http://www.w3.org/1999/xlink">
<g id="graph0" class="graph" transform="scale(1 1) rotate(0) translate(4 306)">
<title>models_diagram</title>
<polygon fill="white" stroke="white" points="-4,4 -4,-306 1780,-306 1780,4 -4,4"/>
<!-- _diagram_info -->
<g id="node1" class="node"><title>_diagram_info</title>
<text text-anchor="start" x="7.31226" y="-285" font-family="Times,serif" font-size="13.00">Models diagram</text>
<text text-anchor="start" x="7.31226" y="-269.4" font-family="Times,serif" font-size="13.00">Date: Dec 30 2013 &#45; 02:36</text>
<text text-anchor="start" x="7.31226" y="-253.8" font-family="Times,serif" font-size="13.00">Migration version: 20131227132749</text>
<text text-anchor="start" x="7.31226" y="-238.2" font-family="Times,serif" font-size="13.00">Generated by RailRoady 1.1.1</text>
<text text-anchor="start" x="7.31226" y="-222.6" font-family="Times,serif" font-size="13.00">http://railroady.prestonlee.com</text>
</g>
<!-- Ability -->
<g id="node2" class="node"><title>Ability</title>
<polygon fill="none" stroke="black" points="288.255,-180 233.745,-180 233.745,-144 288.255,-144 288.255,-180"/>
<text text-anchor="middle" x="261" y="-156.4" font-family="Times,serif" font-size="14.00">Ability</text>
</g>
<!-- CivilStatus -->
<g id="node3" class="node"><title>CivilStatus</title>
<ellipse fill="none" stroke="black" cx="361" cy="-162" rx="53.4473" ry="18"/>
<text text-anchor="middle" x="361" y="-156.4" font-family="Times,serif" font-size="14.00">CivilStatus</text>
</g>
<!-- CivilUnion -->
<g id="node4" class="node"><title>CivilUnion</title>
<ellipse fill="none" stroke="black" cx="487" cy="-162" rx="54.2462" ry="18"/>
<text text-anchor="middle" x="487" y="-156.4" font-family="Times,serif" font-size="14.00">CivilUnion</text>
</g>
<!-- Community -->
<g id="node5" class="node"><title>Community</title>
<ellipse fill="none" stroke="black" cx="617" cy="-162" rx="57.271" ry="18"/>
<text text-anchor="middle" x="617" y="-156.4" font-family="Times,serif" font-size="14.00">Community</text>
</g>
<!-- Department -->
<g id="node6" class="node"><title>Department</title>
<ellipse fill="none" stroke="black" cx="749" cy="-162" rx="56.4286" ry="18"/>
<text text-anchor="middle" x="749" y="-156.4" font-family="Times,serif" font-size="14.00">Department</text>
</g>
<!-- Education -->
<g id="node7" class="node"><title>Education</title>
<ellipse fill="none" stroke="black" cx="874" cy="-162" rx="50.2819" ry="18"/>
<text text-anchor="middle" x="874" y="-156.4" font-family="Times,serif" font-size="14.00">Education</text>
</g>
<!-- Ethnicity -->
<g id="node8" class="node"><title>Ethnicity</title>
<ellipse fill="none" stroke="black" cx="989" cy="-162" rx="46.1589" ry="18"/>
<text text-anchor="middle" x="989" y="-156.4" font-family="Times,serif" font-size="14.00">Ethnicity</text>
</g>
<!-- MyFooter -->
<g id="node9" class="node"><title>MyFooter</title>
<polygon fill="none" stroke="black" points="1698,-180 1626,-180 1626,-144 1698,-144 1698,-180"/>
<text text-anchor="middle" x="1662" y="-156.4" font-family="Times,serif" font-size="14.00">MyFooter</text>
</g>
<!-- PeopleRegister -->
<g id="node10" class="node"><title>PeopleRegister</title>
<ellipse fill="none" stroke="black" cx="1088" cy="-18" rx="69.2524" ry="18"/>
<text text-anchor="middle" x="1088" y="-12.4" font-family="Times,serif" font-size="14.00">PeopleRegister</text>
</g>
<!-- Person -->
<g id="node11" class="node"><title>Person</title>
<ellipse fill="none" stroke="black" cx="1128" cy="-162" rx="36.9881" ry="18"/>
<text text-anchor="middle" x="1128" y="-156.4" font-family="Times,serif" font-size="14.00">Person</text>
</g>
<!-- Person&#45;&gt;PeopleRegister -->
<g id="edge10" class="edge"><title>Person&#45;&gt;PeopleRegister</title>
<path fill="none" stroke="#4622da" d="M1120.94,-135.929C1113.84,-110.725 1102.93,-71.9942 1095.63,-46.0947"/>
<ellipse fill="none" stroke="#4622da" cx="1122.09" cy="-140.021" rx="4.00001" ry="4.00001"/>
<polygon fill="#4622da" stroke="#4622da" points="1095.55,-45.8147 1097.17,-34.9691 1094.2,-41.002 1092.84,-36.1893 1092.84,-36.1893 1092.84,-36.1893 1094.2,-41.002 1088.51,-37.4094 1095.55,-45.8147 1095.55,-45.8147"/>
</g>
<!-- Register -->
<g id="node13" class="node"><title>Register</title>
<ellipse fill="none" stroke="black" cx="1264" cy="-90" rx="43.3283" ry="18"/>
<text text-anchor="middle" x="1264" y="-84.4" font-family="Times,serif" font-size="14.00">Register</text>
</g>
<!-- Person&#45;&gt;Register -->
<g id="edge11" class="edge"><title>Person&#45;&gt;Register</title>
<path fill="none" stroke="#f7a92f" d="M1161.55,-143.731C1181.92,-133.246 1207.9,-119.875 1228.6,-109.221"/>
<polygon fill="#f7a92f" stroke="#f7a92f" points="1161.52,-143.747 1150.57,-144.322 1157.07,-146.035 1152.63,-148.324 1152.63,-148.324 1152.63,-148.324 1157.07,-146.035 1154.69,-152.325 1161.52,-143.747 1161.52,-143.747"/>
<polygon fill="#f7a92f" stroke="#f7a92f" points="1228.81,-109.114 1239.76,-108.539 1233.25,-106.826 1237.7,-104.538 1237.7,-104.538 1237.7,-104.538 1233.25,-106.826 1235.64,-100.536 1228.81,-109.114 1228.81,-109.114"/>
</g>
<!-- Province -->
<g id="node12" class="node"><title>Province</title>
<ellipse fill="none" stroke="black" cx="1229" cy="-162" rx="45.0468" ry="18"/>
<text text-anchor="middle" x="1229" y="-156.4" font-family="Times,serif" font-size="14.00">Province</text>
</g>
<!-- Register&#45;&gt;PeopleRegister -->
<g id="edge14" class="edge"><title>Register&#45;&gt;PeopleRegister</title>
<path fill="none" stroke="#bbbbce" d="M1225.96,-73.8689C1198.86,-63.0912 1162.31,-48.5548 1133.64,-37.1519"/>
<ellipse fill="none" stroke="#bbbbce" cx="1230.03" cy="-75.4883" rx="4.00001" ry="4.00001"/>
<polygon fill="#bbbbce" stroke="#bbbbce" points="1133.54,-37.1106 1125.91,-29.2334 1128.89,-35.2627 1124.24,-33.4149 1124.24,-33.4149 1124.24,-33.4149 1128.89,-35.2627 1122.58,-37.5963 1133.54,-37.1106 1133.54,-37.1106"/>
</g>
<!-- Aggregate -->
<g id="node20" class="node"><title>Aggregate</title>
<ellipse fill="none" stroke="black" cx="1227" cy="-18" rx="50.8818" ry="18"/>
<text text-anchor="middle" x="1227" y="-12.4" font-family="Times,serif" font-size="14.00">Aggregate</text>
</g>
<!-- Register&#45;&gt;Aggregate -->
<g id="edge15" class="edge"><title>Register&#45;&gt;Aggregate</title>
<path fill="none" stroke="#7058fd" d="M1251.16,-64.7144C1247.77,-58.3016 1244.1,-51.3577 1240.67,-44.8648"/>
<ellipse fill="none" stroke="#7058fd" cx="1253.17" cy="-68.5186" rx="4.00002" ry="4.00002"/>
<polygon fill="#7058fd" stroke="#7058fd" points="1240.55,-44.63 1239.85,-33.6861 1238.21,-40.2095 1235.87,-35.789 1235.87,-35.789 1235.87,-35.789 1238.21,-40.2095 1231.9,-37.8919 1240.55,-44.63 1240.55,-44.63"/>
</g>
<!-- Holder -->
<g id="node21" class="node"><title>Holder</title>
<ellipse fill="none" stroke="black" cx="1334" cy="-18" rx="37.2809" ry="18"/>
<text text-anchor="middle" x="1334" y="-12.4" font-family="Times,serif" font-size="14.00">Holder</text>
</g>
<!-- Register&#45;&gt;Holder -->
<g id="edge16" class="edge"><title>Register&#45;&gt;Holder</title>
<path fill="none" stroke="#013342" d="M1285.81,-67.1941C1293.83,-59.1704 1302.94,-50.0631 1311.06,-41.9423"/>
<ellipse fill="none" stroke="#013342" cx="1282.71" cy="-70.2875" rx="4.00002" ry="4.00002"/>
<polygon fill="#013342" stroke="#013342" points="1311.11,-41.8923 1321.36,-38.0032 1314.64,-38.3568 1318.18,-34.8212 1318.18,-34.8212 1318.18,-34.8212 1314.64,-38.3568 1315,-31.6392 1311.11,-41.8923 1311.11,-41.8923"/>
</g>
<!-- Son -->
<g id="node22" class="node"><title>Son</title>
<ellipse fill="none" stroke="black" cx="1417" cy="-18" rx="27" ry="18"/>
<text text-anchor="middle" x="1417" y="-12.4" font-family="Times,serif" font-size="14.00">Son</text>
</g>
<!-- Register&#45;&gt;Son -->
<g id="edge17" class="edge"><title>Register&#45;&gt;Son</title>
<path fill="none" stroke="#94baa2" d="M1299.62,-72.751C1322.57,-62.2728 1353.05,-48.3462 1380,-36 1382.04,-35.0669 1384.14,-34.1044 1386.25,-33.134"/>
<ellipse fill="none" stroke="#94baa2" cx="1295.77" cy="-74.504" rx="4.00002" ry="4.00002"/>
<polygon fill="#94baa2" stroke="#94baa2" points="1386.39,-33.0683 1397.36,-32.9856 1390.94,-30.9821 1395.48,-28.896 1395.48,-28.896 1395.48,-28.896 1390.94,-30.9821 1393.6,-24.8063 1386.39,-33.0683 1386.39,-33.0683"/>
</g>
<!-- Role -->
<g id="node14" class="node"><title>Role</title>
<ellipse fill="none" stroke="black" cx="1359" cy="-162" rx="28.9157" ry="18"/>
<text text-anchor="middle" x="1359" y="-156.4" font-family="Times,serif" font-size="14.00">Role</text>
</g>
<!-- User -->
<g id="node16" class="node"><title>User</title>
<ellipse fill="none" stroke="black" cx="1478" cy="-90" rx="28.9087" ry="18"/>
<text text-anchor="middle" x="1478" y="-84.4" font-family="Times,serif" font-size="14.00">User</text>
</g>
<!-- Role&#45;&gt;User -->
<g id="edge19" class="edge"><title>Role&#45;&gt;User</title>
<path fill="none" stroke="#7ba8bd" d="M1388.17,-143.842C1406.53,-133.039 1430.16,-119.14 1448.58,-108.308"/>
<polygon fill="#7ba8bd" stroke="#7ba8bd" points="1388.08,-143.896 1377.18,-145.088 1383.77,-146.431 1379.46,-148.967 1379.46,-148.967 1379.46,-148.967 1383.77,-146.431 1381.74,-152.845 1388.08,-143.896 1388.08,-143.896"/>
<polygon fill="#7ba8bd" stroke="#7ba8bd" points="1448.79,-108.181 1459.69,-106.989 1453.1,-105.646 1457.41,-103.111 1457.41,-103.111 1457.41,-103.111 1453.1,-105.646 1455.13,-99.232 1448.79,-108.181 1448.79,-108.181"/>
</g>
<!-- TypeIdentification -->
<g id="node15" class="node"><title>TypeIdentification</title>
<ellipse fill="none" stroke="black" cx="1488" cy="-162" rx="81.5427" ry="18"/>
<text text-anchor="middle" x="1488" y="-156.4" font-family="Times,serif" font-size="14.00">TypeIdentification</text>
</g>
<!-- Object -->
<g id="node17" class="node"><title>Object</title>
<ellipse fill="none" stroke="black" cx="261" cy="-259" rx="36.1697" ry="18"/>
<text text-anchor="middle" x="261" y="-253.4" font-family="Times,serif" font-size="14.00">Object</text>
</g>
<!-- Object&#45;&gt;Ability -->
<g id="edge1" class="edge"><title>Object&#45;&gt;Ability</title>
<path fill="none" stroke="black" d="M261,-240.576C261,-225.041 261,-202.217 261,-185.345"/>
<polyline fill="none" stroke="black" points="261,-180.314 261,-185.314 "/>
</g>
<!-- ActiveRecord::Base -->
<g id="node18" class="node"><title>ActiveRecord::Base</title>
<ellipse fill="none" stroke="black" cx="1063" cy="-259" rx="88.2033" ry="18"/>
<text text-anchor="middle" x="1063" y="-253.4" font-family="Times,serif" font-size="14.00">ActiveRecord::Base</text>
</g>
<!-- ActiveRecord::Base&#45;&gt;CivilStatus -->
<g id="edge2" class="edge"><title>ActiveRecord::Base&#45;&gt;CivilStatus</title>
<path fill="none" stroke="black" d="M981.724,-251.804C859.77,-241.669 622.55,-218.703 424,-180 417.919,-178.815 411.561,-177.36 405.322,-175.805"/>
<polyline fill="none" stroke="black" points="400.118,-174.479 404.963,-175.714 "/>
</g>
<!-- ActiveRecord::Base&#45;&gt;CivilUnion -->
<g id="edge3" class="edge"><title>ActiveRecord::Base&#45;&gt;CivilUnion</title>
<path fill="none" stroke="black" d="M988.357,-249.207C888.26,-236.829 705.263,-212.14 551,-180 544.722,-178.692 538.141,-177.147 531.688,-175.53"/>
<polyline fill="none" stroke="black" points="526.785,-174.282 531.63,-175.516 "/>
</g>
<!-- ActiveRecord::Base&#45;&gt;Community -->
<g id="edge4" class="edge"><title>ActiveRecord::Base&#45;&gt;Community</title>
<path fill="none" stroke="black" d="M1000.59,-246.176C925.132,-231.653 794.383,-205.759 683,-180 676.966,-178.604 670.64,-177.069 664.394,-175.509"/>
<polyline fill="none" stroke="black" points="659.174,-174.195 664.023,-175.416 "/>
</g>
<!-- ActiveRecord::Base&#45;&gt;Department -->
<g id="edge5" class="edge"><title>ActiveRecord::Base&#45;&gt;Department</title>
<path fill="none" stroke="black" d="M1015.65,-243.675C955.494,-225.474 852.437,-194.295 793.614,-176.498"/>
<polyline fill="none" stroke="black" points="788.76,-175.029 793.546,-176.477 "/>
</g>
<!-- ActiveRecord::Base&#45;&gt;Education -->
<g id="edge6" class="edge"><title>ActiveRecord::Base&#45;&gt;Education</title>
<path fill="none" stroke="black" d="M1031.37,-242.099C996.77,-224.71 941.601,-196.979 906.62,-179.396"/>
<polyline fill="none" stroke="black" points="902.034,-177.091 906.501,-179.337 "/>
</g>
<!-- ActiveRecord::Base&#45;&gt;Ethnicity -->
<g id="edge7" class="edge"><title>ActiveRecord::Base&#45;&gt;Ethnicity</title>
<path fill="none" stroke="black" d="M1049.77,-241.016C1037.28,-224.977 1018.51,-200.887 1005.14,-183.724"/>
<polyline fill="none" stroke="black" points="1001.87,-179.519 1004.94,-183.463 "/>
</g>
<!-- ActiveRecord::Base&#45;&gt;PeopleRegister -->
<g id="edge9" class="edge"><title>ActiveRecord::Base&#45;&gt;PeopleRegister</title>
<path fill="none" stroke="black" d="M1064.8,-240.812C1069.24,-198.351 1080.73,-88.5237 1085.68,-41.2162"/>
<polyline fill="none" stroke="black" points="1086.22,-36.0325 1085.7,-41.0054 "/>
</g>
<!-- ActiveRecord::Base&#45;&gt;Person -->
<g id="edge12" class="edge"><title>ActiveRecord::Base&#45;&gt;Person</title>
<path fill="none" stroke="black" d="M1074.62,-241.016C1085.66,-224.878 1102.28,-200.591 1114.04,-183.409"/>
<polyline fill="none" stroke="black" points="1116.91,-179.203 1114.09,-183.329 "/>
</g>
<!-- ActiveRecord::Base&#45;&gt;Province -->
<g id="edge13" class="edge"><title>ActiveRecord::Base&#45;&gt;Province</title>
<path fill="none" stroke="black" d="M1091.16,-241.885C1121.4,-224.578 1169.22,-197.211 1199.84,-179.687"/>
<polyline fill="none" stroke="black" points="1204.23,-177.175 1199.89,-179.659 "/>
</g>
<!-- ActiveRecord::Base&#45;&gt;Register -->
<g id="edge18" class="edge"><title>ActiveRecord::Base&#45;&gt;Register</title>
<path fill="none" stroke="black" d="M1144.47,-251.865C1193.3,-243.499 1251.79,-224.186 1283,-180 1297.12,-160.014 1287.2,-131.637 1277.16,-112.335"/>
<polyline fill="none" stroke="black" points="1274.62,-107.635 1277,-112.033 "/>
</g>
<!-- ActiveRecord::Base&#45;&gt;Role -->
<g id="edge20" class="edge"><title>ActiveRecord::Base&#45;&gt;Role</title>
<path fill="none" stroke="black" d="M1112.34,-244.017C1163.6,-229.204 1245.96,-204.599 1316,-180 1320.77,-178.324 1325.8,-176.443 1330.67,-174.56"/>
<polyline fill="none" stroke="black" points="1335.47,-172.684 1330.81,-174.505 "/>
</g>
<!-- ActiveRecord::Base&#45;&gt;TypeIdentification -->
<g id="edge21" class="edge"><title>ActiveRecord::Base&#45;&gt;TypeIdentification</title>
<path fill="none" stroke="black" d="M1120.32,-245.188C1200.58,-227.248 1345.77,-194.792 1427.64,-176.493"/>
<polyline fill="none" stroke="black" points="1432.94,-175.309 1428.06,-176.399 "/>
</g>
<!-- ActiveRecord::Base&#45;&gt;User -->
<g id="edge22" class="edge"><title>ActiveRecord::Base&#45;&gt;User</title>
<path fill="none" stroke="black" d="M1151.32,-257.898C1283.74,-255.655 1524.01,-242.779 1578,-180 1588.43,-167.869 1586.25,-157.709 1578,-144 1563.34,-119.638 1533.3,-105.883 1509.95,-98.528"/>
<polyline fill="none" stroke="black" points="1505.08,-97.0541 1509.87,-98.5018 "/>
</g>
<!-- ActiveAdmin::Component -->
<g id="node19" class="node"><title>ActiveAdmin::Component</title>
<ellipse fill="none" stroke="black" cx="1662" cy="-259" rx="114.049" ry="18"/>
<text text-anchor="middle" x="1662" y="-253.4" font-family="Times,serif" font-size="14.00">ActiveAdmin::Component</text>
</g>
<!-- ActiveAdmin::Component&#45;&gt;MyFooter -->
<g id="edge8" class="edge"><title>ActiveAdmin::Component&#45;&gt;MyFooter</title>
<path fill="none" stroke="black" d="M1662,-240.576C1662,-225.041 1662,-202.217 1662,-185.345"/>
<polyline fill="none" stroke="black" points="1662,-180.314 1662,-185.314 "/>
</g>
</g>
</svg>
