<?xml version="1.0" encoding="UTF-8" standalone="no"?>
<!DOCTYPE svg PUBLIC "-//W3C//DTD SVG 1.1//EN"
 "http://www.w3.org/Graphics/SVG/1.1/DTD/svg11.dtd">
<!-- Generated by graphviz version 2.34.0 (20131220.1325)
 -->
<!-- Title: models_diagram Pages: 1 -->
<svg width="2153pt" height="910pt"
 viewBox="0.00 0.00 2153.00 910.00" xmlns="http://www.w3.org/2000/svg" xmlns:xlink="http://www.w3.org/1999/xlink">
<g id="graph0" class="graph" transform="scale(1 1) rotate(0) translate(4 906)">
<title>models_diagram</title>
<polygon fill="white" stroke="white" points="-4,4 -4,-906 2149,-906 2149,4 -4,4"/>
<!-- _diagram_info -->
<g id="node1" class="node"><title>_diagram_info</title>
<text text-anchor="start" x="7.31226" y="-885" font-family="Times,serif" font-size="13.00">Models diagram</text>
<text text-anchor="start" x="7.31226" y="-869.4" font-family="Times,serif" font-size="13.00">Date: Dec 30 2013 &#45; 02:36</text>
<text text-anchor="start" x="7.31226" y="-853.8" font-family="Times,serif" font-size="13.00">Migration version: 20131227132749</text>
<text text-anchor="start" x="7.31226" y="-838.2" font-family="Times,serif" font-size="13.00">Generated by RailRoady 1.1.1</text>
<text text-anchor="start" x="7.31226" y="-822.6" font-family="Times,serif" font-size="13.00">http://railroady.prestonlee.com</text>
</g>
<!-- Ability -->
<g id="node2" class="node"><title>Ability</title>
<polygon fill="none" stroke="black" points="233.166,-629.2 233.166,-678.8 288.834,-678.8 288.834,-629.2 233.166,-629.2"/>
<text text-anchor="middle" x="261" y="-660.8" font-family="Times,serif" font-size="14.00">Ability</text>
<polyline fill="none" stroke="black" points="233.166,-654 288.834,-654 "/>
<text text-anchor="middle" x="261" y="-636" font-family="Times,serif" font-size="14.00"> </text>
</g>
<!-- CivilStatus -->
<g id="node3" class="node"><title>CivilStatus</title>
<path fill="none" stroke="black" d="M318.495,-595.6C318.495,-595.6 427.505,-595.6 427.505,-595.6 433.505,-595.6 439.505,-601.6 439.505,-607.6 439.505,-607.6 439.505,-700.4 439.505,-700.4 439.505,-706.4 433.505,-712.4 427.505,-712.4 427.505,-712.4 318.495,-712.4 318.495,-712.4 312.495,-712.4 306.495,-706.4 306.495,-700.4 306.495,-700.4 306.495,-607.6 306.495,-607.6 306.495,-601.6 312.495,-595.6 318.495,-595.6"/>
<text text-anchor="middle" x="373" y="-694.4" font-family="Times,serif" font-size="14.00">CivilStatus</text>
<polyline fill="none" stroke="black" points="306.495,-687.6 439.505,-687.6 "/>
<text text-anchor="start" x="314.495" y="-669.6" font-family="Times,serif" font-size="14.00">id :integer</text>
<text text-anchor="start" x="314.495" y="-652.8" font-family="Times,serif" font-size="14.00">code :string</text>
<text text-anchor="start" x="314.495" y="-636" font-family="Times,serif" font-size="14.00">name :string</text>
<text text-anchor="start" x="314.495" y="-619.2" font-family="Times,serif" font-size="14.00">created_at :datetime</text>
<text text-anchor="start" x="314.495" y="-602.4" font-family="Times,serif" font-size="14.00">updated_at :datetime</text>
</g>
<!-- CivilUnion -->
<g id="node4" class="node"><title>CivilUnion</title>
<path fill="none" stroke="black" d="M469.495,-595.6C469.495,-595.6 578.505,-595.6 578.505,-595.6 584.505,-595.6 590.505,-601.6 590.505,-607.6 590.505,-607.6 590.505,-700.4 590.505,-700.4 590.505,-706.4 584.505,-712.4 578.505,-712.4 578.505,-712.4 469.495,-712.4 469.495,-712.4 463.495,-712.4 457.495,-706.4 457.495,-700.4 457.495,-700.4 457.495,-607.6 457.495,-607.6 457.495,-601.6 463.495,-595.6 469.495,-595.6"/>
<text text-anchor="middle" x="524" y="-694.4" font-family="Times,serif" font-size="14.00">CivilUnion</text>
<polyline fill="none" stroke="black" points="457.495,-687.6 590.505,-687.6 "/>
<text text-anchor="start" x="465.495" y="-669.6" font-family="Times,serif" font-size="14.00">id :integer</text>
<text text-anchor="start" x="465.495" y="-652.8" font-family="Times,serif" font-size="14.00">code :string</text>
<text text-anchor="start" x="465.495" y="-636" font-family="Times,serif" font-size="14.00">name :string</text>
<text text-anchor="start" x="465.495" y="-619.2" font-family="Times,serif" font-size="14.00">created_at :datetime</text>
<text text-anchor="start" x="465.495" y="-602.4" font-family="Times,serif" font-size="14.00">updated_at :datetime</text>
</g>
<!-- Community -->
<g id="node5" class="node"><title>Community</title>
<path fill="none" stroke="black" d="M620.495,-587.2C620.495,-587.2 729.505,-587.2 729.505,-587.2 735.505,-587.2 741.505,-593.2 741.505,-599.2 741.505,-599.2 741.505,-708.8 741.505,-708.8 741.505,-714.8 735.505,-720.8 729.505,-720.8 729.505,-720.8 620.495,-720.8 620.495,-720.8 614.495,-720.8 608.495,-714.8 608.495,-708.8 608.495,-708.8 608.495,-599.2 608.495,-599.2 608.495,-593.2 614.495,-587.2 620.495,-587.2"/>
<text text-anchor="middle" x="675" y="-702.8" font-family="Times,serif" font-size="14.00">Community</text>
<polyline fill="none" stroke="black" points="608.495,-696 741.505,-696 "/>
<text text-anchor="start" x="616.495" y="-678" font-family="Times,serif" font-size="14.00">id :integer</text>
<text text-anchor="start" x="616.495" y="-661.2" font-family="Times,serif" font-size="14.00">code :string</text>
<text text-anchor="start" x="616.495" y="-644.4" font-family="Times,serif" font-size="14.00">name :string</text>
<text text-anchor="start" x="616.495" y="-627.6" font-family="Times,serif" font-size="14.00">province_id :integer</text>
<text text-anchor="start" x="616.495" y="-610.8" font-family="Times,serif" font-size="14.00">created_at :datetime</text>
<text text-anchor="start" x="616.495" y="-594" font-family="Times,serif" font-size="14.00">updated_at :datetime</text>
</g>
<!-- Department -->
<g id="node6" class="node"><title>Department</title>
<path fill="none" stroke="black" d="M771.495,-595.6C771.495,-595.6 880.505,-595.6 880.505,-595.6 886.505,-595.6 892.505,-601.6 892.505,-607.6 892.505,-607.6 892.505,-700.4 892.505,-700.4 892.505,-706.4 886.505,-712.4 880.505,-712.4 880.505,-712.4 771.495,-712.4 771.495,-712.4 765.495,-712.4 759.495,-706.4 759.495,-700.4 759.495,-700.4 759.495,-607.6 759.495,-607.6 759.495,-601.6 765.495,-595.6 771.495,-595.6"/>
<text text-anchor="middle" x="826" y="-694.4" font-family="Times,serif" font-size="14.00">Department</text>
<polyline fill="none" stroke="black" points="759.495,-687.6 892.505,-687.6 "/>
<text text-anchor="start" x="767.495" y="-669.6" font-family="Times,serif" font-size="14.00">id :integer</text>
<text text-anchor="start" x="767.495" y="-652.8" font-family="Times,serif" font-size="14.00">code :string</text>
<text text-anchor="start" x="767.495" y="-636" font-family="Times,serif" font-size="14.00">name :string</text>
<text text-anchor="start" x="767.495" y="-619.2" font-family="Times,serif" font-size="14.00">created_at :datetime</text>
<text text-anchor="start" x="767.495" y="-602.4" font-family="Times,serif" font-size="14.00">updated_at :datetime</text>
</g>
<!-- Education -->
<g id="node7" class="node"><title>Education</title>
<path fill="none" stroke="black" d="M922.495,-595.6C922.495,-595.6 1031.51,-595.6 1031.51,-595.6 1037.51,-595.6 1043.51,-601.6 1043.51,-607.6 1043.51,-607.6 1043.51,-700.4 1043.51,-700.4 1043.51,-706.4 1037.51,-712.4 1031.51,-712.4 1031.51,-712.4 922.495,-712.4 922.495,-712.4 916.495,-712.4 910.495,-706.4 910.495,-700.4 910.495,-700.4 910.495,-607.6 910.495,-607.6 910.495,-601.6 916.495,-595.6 922.495,-595.6"/>
<text text-anchor="middle" x="977" y="-694.4" font-family="Times,serif" font-size="14.00">Education</text>
<polyline fill="none" stroke="black" points="910.495,-687.6 1043.51,-687.6 "/>
<text text-anchor="start" x="918.495" y="-669.6" font-family="Times,serif" font-size="14.00">id :integer</text>
<text text-anchor="start" x="918.495" y="-652.8" font-family="Times,serif" font-size="14.00">code :string</text>
<text text-anchor="start" x="918.495" y="-636" font-family="Times,serif" font-size="14.00">name :string</text>
<text text-anchor="start" x="918.495" y="-619.2" font-family="Times,serif" font-size="14.00">created_at :datetime</text>
<text text-anchor="start" x="918.495" y="-602.4" font-family="Times,serif" font-size="14.00">updated_at :datetime</text>
</g>
<!-- Ethnicity -->
<g id="node8" class="node"><title>Ethnicity</title>
<path fill="none" stroke="black" d="M1073.49,-595.6C1073.49,-595.6 1182.51,-595.6 1182.51,-595.6 1188.51,-595.6 1194.51,-601.6 1194.51,-607.6 1194.51,-607.6 1194.51,-700.4 1194.51,-700.4 1194.51,-706.4 1188.51,-712.4 1182.51,-712.4 1182.51,-712.4 1073.49,-712.4 1073.49,-712.4 1067.49,-712.4 1061.49,-706.4 1061.49,-700.4 1061.49,-700.4 1061.49,-607.6 1061.49,-607.6 1061.49,-601.6 1067.49,-595.6 1073.49,-595.6"/>
<text text-anchor="middle" x="1128" y="-694.4" font-family="Times,serif" font-size="14.00">Ethnicity</text>
<polyline fill="none" stroke="black" points="1061.49,-687.6 1194.51,-687.6 "/>
<text text-anchor="start" x="1069.49" y="-669.6" font-family="Times,serif" font-size="14.00">id :integer</text>
<text text-anchor="start" x="1069.49" y="-652.8" font-family="Times,serif" font-size="14.00">code :string</text>
<text text-anchor="start" x="1069.49" y="-636" font-family="Times,serif" font-size="14.00">name :string</text>
<text text-anchor="start" x="1069.49" y="-619.2" font-family="Times,serif" font-size="14.00">created_at :datetime</text>
<text text-anchor="start" x="1069.49" y="-602.4" font-family="Times,serif" font-size="14.00">updated_at :datetime</text>
</g>
<!-- MyFooter -->
<g id="node9" class="node"><title>MyFooter</title>
<polygon fill="none" stroke="black" points="1995,-629.2 1995,-678.8 2067,-678.8 2067,-629.2 1995,-629.2"/>
<text text-anchor="middle" x="2031" y="-660.8" font-family="Times,serif" font-size="14.00">MyFooter</text>
<polyline fill="none" stroke="black" points="1995,-654 2067,-654 "/>
<text text-anchor="middle" x="2031" y="-636" font-family="Times,serif" font-size="14.00"> </text>
</g>
<!-- PeopleRegister -->
<g id="node10" class="node"><title>PeopleRegister</title>
<path fill="none" stroke="black" d="M1198.15,-1C1198.15,-1 1311.85,-1 1311.85,-1 1317.85,-1 1323.85,-7 1323.85,-13 1323.85,-13 1323.85,-173 1323.85,-173 1323.85,-179 1317.85,-185 1311.85,-185 1311.85,-185 1198.15,-185 1198.15,-185 1192.15,-185 1186.15,-179 1186.15,-173 1186.15,-173 1186.15,-13 1186.15,-13 1186.15,-7 1192.15,-1 1198.15,-1"/>
<text text-anchor="middle" x="1255" y="-167" font-family="Times,serif" font-size="14.00">PeopleRegister</text>
<polyline fill="none" stroke="black" points="1186.15,-160.2 1323.85,-160.2 "/>
<text text-anchor="start" x="1194.15" y="-142.2" font-family="Times,serif" font-size="14.00">id :integer</text>
<text text-anchor="start" x="1194.15" y="-125.4" font-family="Times,serif" font-size="14.00">person_id :integer</text>
<text text-anchor="start" x="1194.15" y="-108.6" font-family="Times,serif" font-size="14.00">register_id :integer</text>
<text text-anchor="start" x="1194.15" y="-91.8" font-family="Times,serif" font-size="14.00">type_person :string</text>
<text text-anchor="start" x="1194.15" y="-75" font-family="Times,serif" font-size="14.00">created_at :datetime</text>
<text text-anchor="start" x="1194.15" y="-58.2" font-family="Times,serif" font-size="14.00">updated_at :datetime</text>
<text text-anchor="start" x="1194.15" y="-41.4" font-family="Times,serif" font-size="14.00">time_to_land :integer</text>
<text text-anchor="start" x="1194.15" y="-24.6" font-family="Times,serif" font-size="14.00">mothers_name :string</text>
<text text-anchor="start" x="1194.15" y="-7.8" font-family="Times,serif" font-size="14.00">town_of_birth :string</text>
</g>
<!-- Person -->
<g id="node11" class="node"><title>Person</title>
<path fill="none" stroke="black" d="M1263.44,-528.4C1263.44,-528.4 1424.56,-528.4 1424.56,-528.4 1430.56,-528.4 1436.56,-534.4 1436.56,-540.4 1436.56,-540.4 1436.56,-767.6 1436.56,-767.6 1436.56,-773.6 1430.56,-779.6 1424.56,-779.6 1424.56,-779.6 1263.44,-779.6 1263.44,-779.6 1257.44,-779.6 1251.44,-773.6 1251.44,-767.6 1251.44,-767.6 1251.44,-540.4 1251.44,-540.4 1251.44,-534.4 1257.44,-528.4 1263.44,-528.4"/>
<text text-anchor="middle" x="1344" y="-761.6" font-family="Times,serif" font-size="14.00">Person</text>
<polyline fill="none" stroke="black" points="1251.44,-754.8 1436.56,-754.8 "/>
<text text-anchor="start" x="1259.44" y="-736.8" font-family="Times,serif" font-size="14.00">id :integer</text>
<text text-anchor="start" x="1259.44" y="-720" font-family="Times,serif" font-size="14.00">name :string</text>
<text text-anchor="start" x="1259.44" y="-703.2" font-family="Times,serif" font-size="14.00">first_lastname :string</text>
<text text-anchor="start" x="1259.44" y="-686.4" font-family="Times,serif" font-size="14.00">second_lastname :string</text>
<text text-anchor="start" x="1259.44" y="-669.6" font-family="Times,serif" font-size="14.00">identification :string</text>
<text text-anchor="start" x="1259.44" y="-652.8" font-family="Times,serif" font-size="14.00">birthdate :date</text>
<text text-anchor="start" x="1259.44" y="-636" font-family="Times,serif" font-size="14.00">sex :string</text>
<text text-anchor="start" x="1259.44" y="-619.2" font-family="Times,serif" font-size="14.00">type_identification_id :integer</text>
<text text-anchor="start" x="1259.44" y="-602.4" font-family="Times,serif" font-size="14.00">ethnicity_id :integer</text>
<text text-anchor="start" x="1259.44" y="-585.6" font-family="Times,serif" font-size="14.00">education_id :integer</text>
<text text-anchor="start" x="1259.44" y="-568.8" font-family="Times,serif" font-size="14.00">civil_status_id :integer</text>
<text text-anchor="start" x="1259.44" y="-552" font-family="Times,serif" font-size="14.00">created_at :datetime</text>
<text text-anchor="start" x="1259.44" y="-535.2" font-family="Times,serif" font-size="14.00">updated_at :datetime</text>
</g>
<!-- Person&#45;&gt;PeopleRegister -->
<g id="edge10" class="edge"><title>Person&#45;&gt;PeopleRegister</title>
<path fill="none" stroke="#9ee807" d="M1322.86,-520.249C1307.01,-420.683 1285.64,-286.434 1271.14,-195.396"/>
<ellipse fill="none" stroke="#9ee807" cx="1323.51" cy="-524.295" rx="4.00001" ry="4.00001"/>
<polygon fill="#9ee807" stroke="#9ee807" points="1271.12,-195.219 1273.99,-184.636 1270.33,-190.281 1269.54,-185.344 1269.54,-185.344 1269.54,-185.344 1270.33,-190.281 1265.1,-186.051 1271.12,-195.219 1271.12,-195.219"/>
</g>
<!-- Register -->
<g id="node13" class="node"><title>Register</title>
<path fill="none" stroke="black" d="M1381.04,-239.8C1381.04,-239.8 1500.96,-239.8 1500.96,-239.8 1506.96,-239.8 1512.96,-245.8 1512.96,-251.8 1512.96,-251.8 1512.96,-462.2 1512.96,-462.2 1512.96,-468.2 1506.96,-474.2 1500.96,-474.2 1500.96,-474.2 1381.04,-474.2 1381.04,-474.2 1375.04,-474.2 1369.04,-468.2 1369.04,-462.2 1369.04,-462.2 1369.04,-251.8 1369.04,-251.8 1369.04,-245.8 1375.04,-239.8 1381.04,-239.8"/>
<text text-anchor="middle" x="1441" y="-456.2" font-family="Times,serif" font-size="14.00">Register</text>
<polyline fill="none" stroke="black" points="1369.04,-449.4 1512.96,-449.4 "/>
<text text-anchor="start" x="1377.04" y="-431.4" font-family="Times,serif" font-size="14.00">id :integer</text>
<text text-anchor="start" x="1377.04" y="-414.6" font-family="Times,serif" font-size="14.00">code :integer</text>
<text text-anchor="start" x="1377.04" y="-397.8" font-family="Times,serif" font-size="14.00">created_at :datetime</text>
<text text-anchor="start" x="1377.04" y="-381" font-family="Times,serif" font-size="14.00">updated_at :datetime</text>
<text text-anchor="start" x="1377.04" y="-364.2" font-family="Times,serif" font-size="14.00">civil_union_id :integer</text>
<text text-anchor="start" x="1377.04" y="-347.4" font-family="Times,serif" font-size="14.00">residence :string</text>
<text text-anchor="start" x="1377.04" y="-330.6" font-family="Times,serif" font-size="14.00">address :string</text>
<text text-anchor="start" x="1377.04" y="-313.8" font-family="Times,serif" font-size="14.00">department_id :integer</text>
<text text-anchor="start" x="1377.04" y="-297" font-family="Times,serif" font-size="14.00">community_id :integer</text>
<text text-anchor="start" x="1377.04" y="-280.2" font-family="Times,serif" font-size="14.00">geodesic_ns :string</text>
<text text-anchor="start" x="1377.04" y="-263.4" font-family="Times,serif" font-size="14.00">geodesic_ew :string</text>
<text text-anchor="start" x="1377.04" y="-246.6" font-family="Times,serif" font-size="14.00">code_ine :string</text>
</g>
<!-- Person&#45;&gt;Register -->
<g id="edge11" class="edge"><title>Person&#45;&gt;Register</title>
<path fill="none" stroke="#16aff5" d="M1388.19,-518.619C1391.99,-507.047 1395.83,-495.366 1399.61,-483.865"/>
<polygon fill="#16aff5" stroke="#16aff5" points="1388.12,-518.821 1380.72,-526.915 1386.56,-523.571 1385,-528.321 1385,-528.321 1385,-528.321 1386.56,-523.571 1389.27,-529.727 1388.12,-518.821 1388.12,-518.821"/>
<polygon fill="#16aff5" stroke="#16aff5" points="1399.65,-483.752 1407.05,-475.658 1401.21,-479.003 1402.77,-474.253 1402.77,-474.253 1402.77,-474.253 1401.21,-479.003 1398.5,-472.847 1399.65,-483.752 1399.65,-483.752"/>
</g>
<!-- Province -->
<g id="node12" class="node"><title>Province</title>
<path fill="none" stroke="black" d="M1466.44,-587.2C1466.44,-587.2 1585.56,-587.2 1585.56,-587.2 1591.56,-587.2 1597.56,-593.2 1597.56,-599.2 1597.56,-599.2 1597.56,-708.8 1597.56,-708.8 1597.56,-714.8 1591.56,-720.8 1585.56,-720.8 1585.56,-720.8 1466.44,-720.8 1466.44,-720.8 1460.44,-720.8 1454.44,-714.8 1454.44,-708.8 1454.44,-708.8 1454.44,-599.2 1454.44,-599.2 1454.44,-593.2 1460.44,-587.2 1466.44,-587.2"/>
<text text-anchor="middle" x="1526" y="-702.8" font-family="Times,serif" font-size="14.00">Province</text>
<polyline fill="none" stroke="black" points="1454.44,-696 1597.56,-696 "/>
<text text-anchor="start" x="1462.44" y="-678" font-family="Times,serif" font-size="14.00">id :integer</text>
<text text-anchor="start" x="1462.44" y="-661.2" font-family="Times,serif" font-size="14.00">code :string</text>
<text text-anchor="start" x="1462.44" y="-644.4" font-family="Times,serif" font-size="14.00">name :string</text>
<text text-anchor="start" x="1462.44" y="-627.6" font-family="Times,serif" font-size="14.00">department_id :integer</text>
<text text-anchor="start" x="1462.44" y="-610.8" font-family="Times,serif" font-size="14.00">created_at :datetime</text>
<text text-anchor="start" x="1462.44" y="-594" font-family="Times,serif" font-size="14.00">updated_at :datetime</text>
</g>
<!-- Register&#45;&gt;PeopleRegister -->
<g id="edge14" class="edge"><title>Register&#45;&gt;PeopleRegister</title>
<path fill="none" stroke="#e22ec8" d="M1364.07,-247.638C1351.44,-229.848 1338.4,-211.484 1325.93,-193.911"/>
<ellipse fill="none" stroke="#e22ec8" cx="1366.51" cy="-251.067" rx="4.00002" ry="4.00002"/>
<polygon fill="#e22ec8" stroke="#e22ec8" points="1325.64,-193.509 1323.52,-182.75 1322.75,-189.432 1319.85,-185.355 1319.85,-185.355 1319.85,-185.355 1322.75,-189.432 1316.19,-187.96 1325.64,-193.509 1325.64,-193.509"/>
</g>
<!-- Aggregate -->
<g id="node20" class="node"><title>Aggregate</title>
<ellipse fill="none" stroke="black" cx="1393" cy="-93" rx="50.8818" ry="18"/>
<text text-anchor="middle" x="1393" y="-87.4" font-family="Times,serif" font-size="14.00">Aggregate</text>
</g>
<!-- Register&#45;&gt;Aggregate -->
<g id="edge15" class="edge"><title>Register&#45;&gt;Aggregate</title>
<path fill="none" stroke="#e40781" d="M1418.22,-231.668C1410.6,-190.069 1402.81,-147.572 1397.95,-121.012"/>
<ellipse fill="none" stroke="#e40781" cx="1418.95" cy="-235.623" rx="4.00001" ry="4.00001"/>
<polygon fill="#e40781" stroke="#e40781" points="1397.91,-120.822 1400.54,-110.175 1397.01,-115.904 1396.11,-110.986 1396.11,-110.986 1396.11,-110.986 1397.01,-115.904 1391.69,-111.796 1397.91,-120.822 1397.91,-120.822"/>
</g>
<!-- Holder -->
<g id="node21" class="node"><title>Holder</title>
<ellipse fill="none" stroke="black" cx="1500" cy="-93" rx="37.2809" ry="18"/>
<text text-anchor="middle" x="1500" y="-87.4" font-family="Times,serif" font-size="14.00">Holder</text>
</g>
<!-- Register&#45;&gt;Holder -->
<g id="edge16" class="edge"><title>Register&#45;&gt;Holder</title>
<path fill="none" stroke="#987612" d="M1469,-231.668C1478.37,-190.069 1487.94,-147.572 1493.92,-121.012"/>
<ellipse fill="none" stroke="#987612" cx="1468.1" cy="-235.655" rx="4.00001" ry="4.00001"/>
<polygon fill="#987612" stroke="#987612" points="1493.98,-120.741 1500.57,-111.974 1495.08,-115.863 1496.18,-110.986 1496.18,-110.986 1496.18,-110.986 1495.08,-115.863 1491.78,-109.997 1493.98,-120.741 1493.98,-120.741"/>
</g>
<!-- Son -->
<g id="node22" class="node"><title>Son</title>
<ellipse fill="none" stroke="black" cx="1583" cy="-93" rx="27" ry="18"/>
<text text-anchor="middle" x="1583" y="-87.4" font-family="Times,serif" font-size="14.00">Son</text>
</g>
<!-- Register&#45;&gt;Son -->
<g id="edge17" class="edge"><title>Register&#45;&gt;Son</title>
<path fill="none" stroke="#44489a" d="M1517.05,-238.648C1527.27,-221.264 1537.23,-203.357 1546,-186 1556.87,-164.478 1566.92,-138.967 1573.8,-120.275"/>
<ellipse fill="none" stroke="#44489a" cx="1515.01" cy="-242.098" rx="4.00002" ry="4.00002"/>
<polygon fill="#44489a" stroke="#44489a" points="1573.87,-120.064 1581.51,-112.19 1575.57,-115.362 1577.27,-110.66 1577.27,-110.66 1577.27,-110.66 1575.57,-115.362 1573.04,-109.129 1573.87,-120.064 1573.87,-120.064"/>
</g>
<!-- Role -->
<g id="node14" class="node"><title>Role</title>
<path fill="none" stroke="black" d="M1666.1,-587.2C1666.1,-587.2 1775.9,-587.2 1775.9,-587.2 1781.9,-587.2 1787.9,-593.2 1787.9,-599.2 1787.9,-599.2 1787.9,-708.8 1787.9,-708.8 1787.9,-714.8 1781.9,-720.8 1775.9,-720.8 1775.9,-720.8 1666.1,-720.8 1666.1,-720.8 1660.1,-720.8 1654.1,-714.8 1654.1,-708.8 1654.1,-708.8 1654.1,-599.2 1654.1,-599.2 1654.1,-593.2 1660.1,-587.2 1666.1,-587.2"/>
<text text-anchor="middle" x="1721" y="-702.8" font-family="Times,serif" font-size="14.00">Role</text>
<polyline fill="none" stroke="black" points="1654.1,-696 1787.9,-696 "/>
<text text-anchor="start" x="1662.1" y="-678" font-family="Times,serif" font-size="14.00">id :integer</text>
<text text-anchor="start" x="1662.1" y="-661.2" font-family="Times,serif" font-size="14.00">name :string</text>
<text text-anchor="start" x="1662.1" y="-644.4" font-family="Times,serif" font-size="14.00">resource_id :integer</text>
<text text-anchor="start" x="1662.1" y="-627.6" font-family="Times,serif" font-size="14.00">resource_type :string</text>
<text text-anchor="start" x="1662.1" y="-610.8" font-family="Times,serif" font-size="14.00">created_at :datetime</text>
<text text-anchor="start" x="1662.1" y="-594" font-family="Times,serif" font-size="14.00">updated_at :datetime</text>
</g>
<!-- User -->
<g id="node16" class="node"><title>User</title>
<path fill="none" stroke="black" d="M1753.72,-223C1753.72,-223 1934.28,-223 1934.28,-223 1940.28,-223 1946.28,-229 1946.28,-235 1946.28,-235 1946.28,-479 1946.28,-479 1946.28,-485 1940.28,-491 1934.28,-491 1934.28,-491 1753.72,-491 1753.72,-491 1747.72,-491 1741.72,-485 1741.72,-479 1741.72,-479 1741.72,-235 1741.72,-235 1741.72,-229 1747.72,-223 1753.72,-223"/>
<text text-anchor="middle" x="1844" y="-473" font-family="Times,serif" font-size="14.00">User</text>
<polyline fill="none" stroke="black" points="1741.72,-466.2 1946.28,-466.2 "/>
<text text-anchor="start" x="1749.72" y="-448.2" font-family="Times,serif" font-size="14.00">id :integer</text>
<text text-anchor="start" x="1749.72" y="-431.4" font-family="Times,serif" font-size="14.00">email :string</text>
<text text-anchor="start" x="1749.72" y="-414.6" font-family="Times,serif" font-size="14.00">encrypted_password :string</text>
<text text-anchor="start" x="1749.72" y="-397.8" font-family="Times,serif" font-size="14.00">reset_password_token :string</text>
<text text-anchor="start" x="1749.72" y="-381" font-family="Times,serif" font-size="14.00">reset_password_sent_at :datetime</text>
<text text-anchor="start" x="1749.72" y="-364.2" font-family="Times,serif" font-size="14.00">remember_created_at :datetime</text>
<text text-anchor="start" x="1749.72" y="-347.4" font-family="Times,serif" font-size="14.00">sign_in_count :integer</text>
<text text-anchor="start" x="1749.72" y="-330.6" font-family="Times,serif" font-size="14.00">current_sign_in_at :datetime</text>
<text text-anchor="start" x="1749.72" y="-313.8" font-family="Times,serif" font-size="14.00">last_sign_in_at :datetime</text>
<text text-anchor="start" x="1749.72" y="-297" font-family="Times,serif" font-size="14.00">current_sign_in_ip :string</text>
<text text-anchor="start" x="1749.72" y="-280.2" font-family="Times,serif" font-size="14.00">last_sign_in_ip :string</text>
<text text-anchor="start" x="1749.72" y="-263.4" font-family="Times,serif" font-size="14.00">created_at :datetime</text>
<text text-anchor="start" x="1749.72" y="-246.6" font-family="Times,serif" font-size="14.00">updated_at :datetime</text>
<text text-anchor="start" x="1749.72" y="-229.8" font-family="Times,serif" font-size="14.00">last_seen_at :datetime</text>
</g>
<!-- Role&#45;&gt;User -->
<g id="edge19" class="edge"><title>Role&#45;&gt;User</title>
<path fill="none" stroke="#017b74" d="M1752.43,-577.627C1762.28,-554.001 1773.49,-527.101 1784.62,-500.422"/>
<polygon fill="#017b74" stroke="#017b74" points="1752.3,-577.934 1744.3,-585.432 1750.37,-582.548 1748.45,-587.163 1748.45,-587.163 1748.45,-587.163 1750.37,-582.548 1752.6,-588.895 1752.3,-577.934 1752.3,-577.934"/>
<polygon fill="#017b74" stroke="#017b74" points="1784.7,-500.23 1792.7,-492.732 1786.62,-495.615 1788.55,-491 1788.55,-491 1788.55,-491 1786.62,-495.615 1784.39,-489.268 1784.7,-500.23 1784.7,-500.23"/>
</g>
<!-- TypeIdentification -->
<g id="node15" class="node"><title>TypeIdentification</title>
<path fill="none" stroke="black" d="M1817.49,-595.6C1817.49,-595.6 1926.51,-595.6 1926.51,-595.6 1932.51,-595.6 1938.51,-601.6 1938.51,-607.6 1938.51,-607.6 1938.51,-700.4 1938.51,-700.4 1938.51,-706.4 1932.51,-712.4 1926.51,-712.4 1926.51,-712.4 1817.49,-712.4 1817.49,-712.4 1811.49,-712.4 1805.49,-706.4 1805.49,-700.4 1805.49,-700.4 1805.49,-607.6 1805.49,-607.6 1805.49,-601.6 1811.49,-595.6 1817.49,-595.6"/>
<text text-anchor="middle" x="1872" y="-694.4" font-family="Times,serif" font-size="14.00">TypeIdentification</text>
<polyline fill="none" stroke="black" points="1805.49,-687.6 1938.51,-687.6 "/>
<text text-anchor="start" x="1813.49" y="-669.6" font-family="Times,serif" font-size="14.00">id :integer</text>
<text text-anchor="start" x="1813.49" y="-652.8" font-family="Times,serif" font-size="14.00">code :string</text>
<text text-anchor="start" x="1813.49" y="-636" font-family="Times,serif" font-size="14.00">name :string</text>
<text text-anchor="start" x="1813.49" y="-619.2" font-family="Times,serif" font-size="14.00">created_at :datetime</text>
<text text-anchor="start" x="1813.49" y="-602.4" font-family="Times,serif" font-size="14.00">updated_at :datetime</text>
</g>
<!-- Object -->
<g id="node17" class="node"><title>Object</title>
<ellipse fill="none" stroke="black" cx="261" cy="-859" rx="36.1697" ry="18"/>
<text text-anchor="middle" x="261" y="-853.4" font-family="Times,serif" font-size="14.00">Object</text>
</g>
<!-- Object&#45;&gt;Ability -->
<g id="edge1" class="edge"><title>Object&#45;&gt;Ability</title>
<path fill="none" stroke="black" d="M261,-840.692C261,-805.865 261,-726.993 261,-684.1"/>
<polyline fill="none" stroke="black" points="261,-679.053 261,-684.053 "/>
</g>
<!-- ActiveRecord::Base -->
<g id="node18" class="node"><title>ActiveRecord::Base</title>
<ellipse fill="none" stroke="black" cx="1223" cy="-859" rx="88.2033" ry="18"/>
<text text-anchor="middle" x="1223" y="-853.4" font-family="Times,serif" font-size="14.00">ActiveRecord::Base</text>
</g>
<!-- ActiveRecord::Base&#45;&gt;CivilStatus -->
<g id="edge2" class="edge"><title>ActiveRecord::Base&#45;&gt;CivilStatus</title>
<path fill="none" stroke="black" d="M1134.36,-858.853C955.753,-859.021 560.047,-851.084 448,-780 424.86,-765.32 407.877,-740.695 395.983,-717.164"/>
<polyline fill="none" stroke="black" points="393.672,-712.476 395.883,-716.961 "/>
</g>
<!-- ActiveRecord::Base&#45;&gt;CivilUnion -->
<g id="edge3" class="edge"><title>ActiveRecord::Base&#45;&gt;CivilUnion</title>
<path fill="none" stroke="black" d="M1135.51,-856.357C985.158,-852.032 685.562,-836.388 599,-780 576.138,-765.107 559.23,-740.588 547.316,-717.193"/>
<polyline fill="none" stroke="black" points="545,-712.532 547.225,-717.009 "/>
</g>
<!-- ActiveRecord::Base&#45;&gt;Community -->
<g id="edge4" class="edge"><title>ActiveRecord::Base&#45;&gt;Community</title>
<path fill="none" stroke="black" d="M1140.05,-852.665C1021.79,-843.68 812.124,-822.22 750,-780 730.165,-766.52 714.738,-745.893 703.173,-725.256"/>
<polyline fill="none" stroke="black" points="700.764,-720.855 703.165,-725.241 "/>
</g>
<!-- ActiveRecord::Base&#45;&gt;Department -->
<g id="edge5" class="edge"><title>ActiveRecord::Base&#45;&gt;Department</title>
<path fill="none" stroke="black" d="M1136.4,-855.024C1066.82,-848.681 969.7,-830.514 901,-780 879.4,-764.118 862.833,-739.975 850.833,-717.127"/>
<polyline fill="none" stroke="black" points="848.494,-712.578 850.781,-717.024 "/>
</g>
<!-- ActiveRecord::Base&#45;&gt;Education -->
<g id="edge6" class="edge"><title>ActiveRecord::Base&#45;&gt;Education</title>
<path fill="none" stroke="black" d="M1173.18,-844.123C1136.42,-831.927 1086.92,-811.196 1052,-780 1032.62,-762.684 1016.72,-739.146 1004.62,-717.163"/>
<polyline fill="none" stroke="black" points="1002.1,-712.499 1004.48,-716.897 "/>
</g>
<!-- ActiveRecord::Base&#45;&gt;Ethnicity -->
<g id="edge7" class="edge"><title>ActiveRecord::Base&#45;&gt;Ethnicity</title>
<path fill="none" stroke="black" d="M1215.06,-841.041C1202.46,-814.103 1177.23,-760.195 1157.16,-717.312"/>
<polyline fill="none" stroke="black" points="1154.99,-712.67 1157.11,-717.199 "/>
</g>
<!-- ActiveRecord::Base&#45;&gt;PeopleRegister -->
<g id="edge9" class="edge"><title>ActiveRecord::Base&#45;&gt;PeopleRegister</title>
<path fill="none" stroke="black" d="M1223.71,-840.972C1227.29,-755.684 1243.36,-371.867 1250.98,-190.068"/>
<polyline fill="none" stroke="black" points="1251.19,-185.014 1250.98,-190.01 "/>
</g>
<!-- ActiveRecord::Base&#45;&gt;Person -->
<g id="edge12" class="edge"><title>ActiveRecord::Base&#45;&gt;Person</title>
<path fill="none" stroke="black" d="M1233.11,-841.041C1241.26,-827.373 1253.54,-806.762 1267.01,-784.17"/>
<polyline fill="none" stroke="black" points="1269.71,-779.627 1267.15,-783.922 "/>
</g>
<!-- ActiveRecord::Base&#45;&gt;Province -->
<g id="edge13" class="edge"><title>ActiveRecord::Base&#45;&gt;Province</title>
<path fill="none" stroke="black" d="M1288.24,-846.831C1335.65,-836.095 1399.26,-816.006 1445,-780 1463.61,-765.353 1479.27,-745.19 1491.71,-725.332"/>
<polyline fill="none" stroke="black" points="1494.47,-720.834 1491.85,-725.093 "/>
</g>
<!-- ActiveRecord::Base&#45;&gt;Register -->
<g id="edge18" class="edge"><title>ActiveRecord::Base&#45;&gt;Register</title>
<path fill="none" stroke="black" d="M1306.4,-853.02C1407.48,-845.041 1568.92,-825.393 1606,-780 1641.43,-736.631 1627.04,-579.896 1606,-528 1587.81,-483.133 1551.46,-443.583 1517.5,-413.947"/>
<polyline fill="none" stroke="black" points="1513.37,-410.383 1517.15,-413.65 "/>
</g>
<!-- ActiveRecord::Base&#45;&gt;Role -->
<g id="edge20" class="edge"><title>ActiveRecord::Base&#45;&gt;Role</title>
<path fill="none" stroke="black" d="M1301.71,-850.713C1406.73,-839.748 1585.78,-816.336 1640,-780 1660.26,-766.426 1676.58,-745.893 1689.12,-725.369"/>
<polyline fill="none" stroke="black" points="1691.74,-720.992 1689.17,-725.283 "/>
</g>
<!-- ActiveRecord::Base&#45;&gt;TypeIdentification -->
<g id="edge21" class="edge"><title>ActiveRecord::Base&#45;&gt;TypeIdentification</title>
<path fill="none" stroke="black" d="M1309.45,-855.217C1449.37,-849.251 1717.69,-831.298 1796,-780 1818.91,-764.996 1836,-740.46 1848.11,-717.081"/>
<polyline fill="none" stroke="black" points="1850.47,-712.424 1848.21,-716.885 "/>
</g>
<!-- ActiveRecord::Base&#45;&gt;User -->
<g id="edge22" class="edge"><title>ActiveRecord::Base&#45;&gt;User</title>
<path fill="none" stroke="black" d="M1309.48,-855.041C1492.36,-847.891 1905.06,-826.706 1947,-780 1984.42,-738.335 1962.06,-581.936 1947,-528 1944.02,-517.336 1940.17,-506.674 1935.72,-496.182"/>
<polyline fill="none" stroke="black" points="1933.63,-491.374 1935.62,-495.96 "/>
</g>
<!-- ActiveAdmin::Component -->
<g id="node19" class="node"><title>ActiveAdmin::Component</title>
<ellipse fill="none" stroke="black" cx="2031" cy="-859" rx="114.049" ry="18"/>
<text text-anchor="middle" x="2031" y="-853.4" font-family="Times,serif" font-size="14.00">ActiveAdmin::Component</text>
</g>
<!-- ActiveAdmin::Component&#45;&gt;MyFooter -->
<g id="edge8" class="edge"><title>ActiveAdmin::Component&#45;&gt;MyFooter</title>
<path fill="none" stroke="black" d="M2031,-840.692C2031,-805.865 2031,-726.993 2031,-684.1"/>
<polyline fill="none" stroke="black" points="2031,-679.053 2031,-684.053 "/>
</g>
</g>
</svg>
