<?xml version="1.0" encoding="UTF-8" standalone="no"?>
<!DOCTYPE svg PUBLIC "-//W3C//DTD SVG 1.1//EN"
 "http://www.w3.org/Graphics/SVG/1.1/DTD/svg11.dtd">
<!-- Generated by graphviz version 2.36.0 (20140111.2315)
 -->
<!-- Title: models_diagram Pages: 1 -->
<svg width="2154pt" height="2444pt"
 viewBox="0.00 0.00 2154.00 2444.00" xmlns="http://www.w3.org/2000/svg" xmlns:xlink="http://www.w3.org/1999/xlink">
<g id="graph0" class="graph" transform="scale(1 1) rotate(0) translate(4 2440)">
<title>models_diagram</title>
<polygon fill="white" stroke="none" points="-4,4 -4,-2440 2150,-2440 2150,4 -4,4"/>
<!-- _diagram_info -->
<g id="node1" class="node"><title>_diagram_info</title>
<text text-anchor="start" x="7.31226" y="-2421.1" font-family="Times,serif" font-size="13.00">Models diagram</text>
<text text-anchor="start" x="7.31226" y="-2408.1" font-family="Times,serif" font-size="13.00">Date: Apr 03 2014 &#45; 12:37</text>
<text text-anchor="start" x="7.31226" y="-2395.1" font-family="Times,serif" font-size="13.00">Migration version: 20140324134912</text>
<text text-anchor="start" x="7.31226" y="-2382.1" font-family="Times,serif" font-size="13.00">Generated by RailRoady 1.1.1</text>
<text text-anchor="start" x="7.31226" y="-2369.1" font-family="Times,serif" font-size="13.00">http://railroady.prestonlee.com</text>
</g>
<!-- Ability -->
<g id="node2" class="node"><title>Ability</title>
<polygon fill="none" stroke="black" points="230.166,-2230 230.166,-2274 285.834,-2274 285.834,-2230 230.166,-2230"/>
<text text-anchor="middle" x="258" y="-2258.8" font-family="Times,serif" font-size="14.00">Ability</text>
<polyline fill="none" stroke="black" points="230.166,-2252 285.834,-2252 "/>
<text text-anchor="middle" x="258" y="-2236.8" font-family="Times,serif" font-size="14.00"> </text>
</g>
<!-- Capital -->
<g id="node3" class="node"><title>Capital</title>
<path fill="none" stroke="black" d="M354.488,-2181C354.488,-2181 463.512,-2181 463.512,-2181 469.512,-2181 475.512,-2187 475.512,-2193 475.512,-2193 475.512,-2311 475.512,-2311 475.512,-2317 469.512,-2323 463.512,-2323 463.512,-2323 354.488,-2323 354.488,-2323 348.488,-2323 342.488,-2317 342.488,-2311 342.488,-2311 342.488,-2193 342.488,-2193 342.488,-2187 348.488,-2181 354.488,-2181"/>
<text text-anchor="middle" x="409" y="-2307.8" font-family="Times,serif" font-size="14.00">Capital</text>
<polyline fill="none" stroke="black" points="342.488,-2301 475.512,-2301 "/>
<text text-anchor="start" x="350.488" y="-2285.8" font-family="Times,serif" font-size="14.00">id :integer</text>
<text text-anchor="start" x="350.488" y="-2271.8" font-family="Times,serif" font-size="14.00">capital_item :string</text>
<text text-anchor="start" x="350.488" y="-2257.8" font-family="Times,serif" font-size="14.00">current_value :float</text>
<text text-anchor="start" x="350.488" y="-2243.8" font-family="Times,serif" font-size="14.00">lifespan_future :float</text>
<text text-anchor="start" x="350.488" y="-2229.8" font-family="Times,serif" font-size="14.00">start_year :integer</text>
<text text-anchor="start" x="350.488" y="-2215.8" font-family="Times,serif" font-size="14.00">land_id :integer</text>
<text text-anchor="start" x="350.488" y="-2201.8" font-family="Times,serif" font-size="14.00">created_at :datetime</text>
<text text-anchor="start" x="350.488" y="-2187.8" font-family="Times,serif" font-size="14.00">updated_at :datetime</text>
</g>
<!-- Register -->
<g id="node20" class="node"><title>Register</title>
<path fill="none" stroke="black" d="M808.65,-631C808.65,-631 985.35,-631 985.35,-631 991.35,-631 997.35,-637 997.35,-643 997.35,-643 997.35,-929 997.35,-929 997.35,-935 991.35,-941 985.35,-941 985.35,-941 808.65,-941 808.65,-941 802.65,-941 796.65,-935 796.65,-929 796.65,-929 796.65,-643 796.65,-643 796.65,-637 802.65,-631 808.65,-631"/>
<text text-anchor="middle" x="897" y="-925.8" font-family="Times,serif" font-size="14.00">Register</text>
<polyline fill="none" stroke="black" points="796.65,-919 997.35,-919 "/>
<text text-anchor="start" x="804.65" y="-903.8" font-family="Times,serif" font-size="14.00">id :integer</text>
<text text-anchor="start" x="804.65" y="-889.8" font-family="Times,serif" font-size="14.00">code :integer</text>
<text text-anchor="start" x="804.65" y="-875.8" font-family="Times,serif" font-size="14.00">created_at :datetime</text>
<text text-anchor="start" x="804.65" y="-861.8" font-family="Times,serif" font-size="14.00">updated_at :datetime</text>
<text text-anchor="start" x="804.65" y="-847.8" font-family="Times,serif" font-size="14.00">residence :string</text>
<text text-anchor="start" x="804.65" y="-833.8" font-family="Times,serif" font-size="14.00">address :string</text>
<text text-anchor="start" x="804.65" y="-819.8" font-family="Times,serif" font-size="14.00">department_id :integer</text>
<text text-anchor="start" x="804.65" y="-805.8" font-family="Times,serif" font-size="14.00">community_id :integer</text>
<text text-anchor="start" x="804.65" y="-791.8" font-family="Times,serif" font-size="14.00">geodesic_ns :string</text>
<text text-anchor="start" x="804.65" y="-777.8" font-family="Times,serif" font-size="14.00">geodesic_ew :string</text>
<text text-anchor="start" x="804.65" y="-763.8" font-family="Times,serif" font-size="14.00">code_ine :string</text>
<text text-anchor="start" x="804.65" y="-749.8" font-family="Times,serif" font-size="14.00">user_id :integer</text>
<text text-anchor="start" x="804.65" y="-735.8" font-family="Times,serif" font-size="14.00">first_entry :string</text>
<text text-anchor="start" x="804.65" y="-721.8" font-family="Times,serif" font-size="14.00">second_entry :string</text>
<text text-anchor="start" x="804.65" y="-707.8" font-family="Times,serif" font-size="14.00">emission_date :date</text>
<text text-anchor="start" x="804.65" y="-693.8" font-family="Times,serif" font-size="14.00">emission_department_id :integer</text>
<text text-anchor="start" x="804.65" y="-679.8" font-family="Times,serif" font-size="14.00">emission_community_id :integer</text>
<text text-anchor="start" x="804.65" y="-665.8" font-family="Times,serif" font-size="14.00">economic_activity_id :integer</text>
<text text-anchor="start" x="804.65" y="-651.8" font-family="Times,serif" font-size="14.00">status :string</text>
<text text-anchor="start" x="804.65" y="-637.8" font-family="Times,serif" font-size="14.00">activation_date :datetime</text>
</g>
<!-- Capital&#45;&gt;Register -->
<g id="edge3" class="edge"><title>Capital&#45;&gt;Register</title>
<path fill="none" stroke="#b61246" d="M422.552,-2173.03C434.011,-2118.77 448,-2044.51 448,-1978 448,-1978 448,-1978 448,-1598 448,-1563.08 595.345,-1020.87 615,-992 658.837,-927.621 729.603,-875.32 789.318,-839.66"/>
<ellipse fill="none" stroke="#b61246" cx="421.714" cy="-2176.98" rx="4.00001" ry="4.00001"/>
<ellipse fill="#b61246" stroke="#b61246" cx="793.099" cy="-837.428" rx="4.00002" ry="4.00002"/>
</g>
<!-- PaperTrail::Version -->
<g id="node26" class="node"><title>PaperTrail::Version</title>
<ellipse fill="none" stroke="black" cx="1087" cy="-18" rx="79.0809" ry="18"/>
<text text-anchor="middle" x="1087" y="-13.8" font-family="Times,serif" font-size="14.00">PaperTrail::Version</text>
</g>
<!-- Capital&#45;&gt;PaperTrail::Version -->
<g id="edge2" class="edge"><title>Capital&#45;&gt;PaperTrail::Version</title>
<path fill="none" stroke="#89127e" d="M383.821,-2173.01C368.555,-2118.89 352,-2044.8 352,-1978 352,-1978 352,-1978 352,-1230 352,-955.263 338,-886.737 338,-612 338,-612 338,-612 338,-178 338,-44.4812 799.196,-22.6018 997.79,-19.3698"/>
<ellipse fill="none" stroke="#89127e" cx="384.963" cy="-2177" rx="4.00001" ry="4.00001"/>
<polygon fill="#89127e" stroke="#89127e" points="997.908,-19.3681 1007.97,-23.7171 1002.91,-19.2929 1007.91,-19.2176 1007.91,-19.2176 1007.91,-19.2176 1002.91,-19.2929 1007.84,-14.7181 997.908,-19.3681 997.908,-19.3681"/>
<text text-anchor="middle" x="375.331" y="-1226.8" font-family="Times,serif" font-size="14.00">versions</text>
</g>
<!-- CivilStatus -->
<g id="node4" class="node"><title>CivilStatus</title>
<path fill="none" stroke="black" d="M1288.49,-2202C1288.49,-2202 1397.51,-2202 1397.51,-2202 1403.51,-2202 1409.51,-2208 1409.51,-2214 1409.51,-2214 1409.51,-2290 1409.51,-2290 1409.51,-2296 1403.51,-2302 1397.51,-2302 1397.51,-2302 1288.49,-2302 1288.49,-2302 1282.49,-2302 1276.49,-2296 1276.49,-2290 1276.49,-2290 1276.49,-2214 1276.49,-2214 1276.49,-2208 1282.49,-2202 1288.49,-2202"/>
<text text-anchor="middle" x="1343" y="-2286.8" font-family="Times,serif" font-size="14.00">CivilStatus</text>
<polyline fill="none" stroke="black" points="1276.49,-2280 1409.51,-2280 "/>
<text text-anchor="start" x="1284.49" y="-2264.8" font-family="Times,serif" font-size="14.00">id :integer</text>
<text text-anchor="start" x="1284.49" y="-2250.8" font-family="Times,serif" font-size="14.00">code :string</text>
<text text-anchor="start" x="1284.49" y="-2236.8" font-family="Times,serif" font-size="14.00">name :string</text>
<text text-anchor="start" x="1284.49" y="-2222.8" font-family="Times,serif" font-size="14.00">created_at :datetime</text>
<text text-anchor="start" x="1284.49" y="-2208.8" font-family="Times,serif" font-size="14.00">updated_at :datetime</text>
</g>
<!-- Community -->
<g id="node5" class="node"><title>Community</title>
<path fill="none" stroke="black" d="M848.495,-1257C848.495,-1257 957.505,-1257 957.505,-1257 963.505,-1257 969.505,-1263 969.505,-1269 969.505,-1269 969.505,-1359 969.505,-1359 969.505,-1365 963.505,-1371 957.505,-1371 957.505,-1371 848.495,-1371 848.495,-1371 842.495,-1371 836.495,-1365 836.495,-1359 836.495,-1359 836.495,-1269 836.495,-1269 836.495,-1263 842.495,-1257 848.495,-1257"/>
<text text-anchor="middle" x="903" y="-1355.8" font-family="Times,serif" font-size="14.00">Community</text>
<polyline fill="none" stroke="black" points="836.495,-1349 969.505,-1349 "/>
<text text-anchor="start" x="844.495" y="-1333.8" font-family="Times,serif" font-size="14.00">id :integer</text>
<text text-anchor="start" x="844.495" y="-1319.8" font-family="Times,serif" font-size="14.00">code :string</text>
<text text-anchor="start" x="844.495" y="-1305.8" font-family="Times,serif" font-size="14.00">name :string</text>
<text text-anchor="start" x="844.495" y="-1291.8" font-family="Times,serif" font-size="14.00">province_id :integer</text>
<text text-anchor="start" x="844.495" y="-1277.8" font-family="Times,serif" font-size="14.00">created_at :datetime</text>
<text text-anchor="start" x="844.495" y="-1263.8" font-family="Times,serif" font-size="14.00">updated_at :datetime</text>
</g>
<!-- Land -->
<g id="node10" class="node"><title>Land</title>
<path fill="none" stroke="black" d="M459.208,-323C459.208,-323 688.792,-323 688.792,-323 694.792,-323 700.792,-329 700.792,-335 700.792,-335 700.792,-579 700.792,-579 700.792,-585 694.792,-591 688.792,-591 688.792,-591 459.208,-591 459.208,-591 453.208,-591 447.208,-585 447.208,-579 447.208,-579 447.208,-335 447.208,-335 447.208,-329 453.208,-323 459.208,-323"/>
<text text-anchor="middle" x="574" y="-575.8" font-family="Times,serif" font-size="14.00">Land</text>
<polyline fill="none" stroke="black" points="447.208,-569 700.792,-569 "/>
<text text-anchor="start" x="455.208" y="-553.8" font-family="Times,serif" font-size="14.00">id :integer</text>
<text text-anchor="start" x="455.208" y="-539.8" font-family="Times,serif" font-size="14.00">surface :float</text>
<text text-anchor="start" x="455.208" y="-525.8" font-family="Times,serif" font-size="14.00">unit_of_measure :string</text>
<text text-anchor="start" x="455.208" y="-511.8" font-family="Times,serif" font-size="14.00">tenure :string</text>
<text text-anchor="start" x="455.208" y="-497.8" font-family="Times,serif" font-size="14.00">disassemble_without_permission :boolean</text>
<text text-anchor="start" x="455.208" y="-483.8" font-family="Times,serif" font-size="14.00">register_id :integer</text>
<text text-anchor="start" x="455.208" y="-469.8" font-family="Times,serif" font-size="14.00">created_at :datetime</text>
<text text-anchor="start" x="455.208" y="-455.8" font-family="Times,serif" font-size="14.00">updated_at :datetime</text>
<text text-anchor="start" x="455.208" y="-441.8" font-family="Times,serif" font-size="14.00">department_id :integer</text>
<text text-anchor="start" x="455.208" y="-427.8" font-family="Times,serif" font-size="14.00">community_id :integer</text>
<text text-anchor="start" x="455.208" y="-413.8" font-family="Times,serif" font-size="14.00">another_community :string</text>
<text text-anchor="start" x="455.208" y="-399.8" font-family="Times,serif" font-size="14.00">own_labor :integer</text>
<text text-anchor="start" x="455.208" y="-385.8" font-family="Times,serif" font-size="14.00">eventual_labor :integer</text>
<text text-anchor="start" x="455.208" y="-371.8" font-family="Times,serif" font-size="14.00">permanent_labor :integer</text>
<text text-anchor="start" x="455.208" y="-357.8" font-family="Times,serif" font-size="14.00">men_per_year_own :float</text>
<text text-anchor="start" x="455.208" y="-343.8" font-family="Times,serif" font-size="14.00">men_per_year_eventually :float</text>
<text text-anchor="start" x="455.208" y="-329.8" font-family="Times,serif" font-size="14.00">men_per_year_total :float</text>
</g>
<!-- Community&#45;&gt;Land -->
<g id="edge9" class="edge"><title>Community&#45;&gt;Land</title>
<path fill="none" stroke="#10bee1" d="M897.859,-1248.88C890.417,-1181.79 872.63,-1074.88 831,-992 817.845,-965.808 803.651,-966.782 788,-942 719.682,-833.824 662.366,-700.118 624.299,-600.667"/>
<ellipse fill="none" stroke="#10bee1" cx="898.289" cy="-1252.89" rx="4.00001" ry="4.00001"/>
<polygon fill="#10bee1" stroke="#10bee1" points="624.234,-600.498 624.88,-589.551 622.454,-595.825 620.675,-591.152 620.675,-591.152 620.675,-591.152 622.454,-595.825 616.47,-592.754 624.234,-600.498 624.234,-600.498"/>
</g>
<!-- Person -->
<g id="node15" class="node"><title>Person</title>
<path fill="none" stroke="black" d="M1181.99,-993C1181.99,-993 1354.01,-993 1354.01,-993 1360.01,-993 1366.01,-999 1366.01,-1005 1366.01,-1005 1366.01,-1193 1366.01,-1193 1366.01,-1199 1360.01,-1205 1354.01,-1205 1354.01,-1205 1181.99,-1205 1181.99,-1205 1175.99,-1205 1169.99,-1199 1169.99,-1193 1169.99,-1193 1169.99,-1005 1169.99,-1005 1169.99,-999 1175.99,-993 1181.99,-993"/>
<text text-anchor="middle" x="1268" y="-1189.8" font-family="Times,serif" font-size="14.00">Person</text>
<polyline fill="none" stroke="black" points="1169.99,-1183 1366.01,-1183 "/>
<text text-anchor="start" x="1177.99" y="-1167.8" font-family="Times,serif" font-size="14.00">id :integer</text>
<text text-anchor="start" x="1177.99" y="-1153.8" font-family="Times,serif" font-size="14.00">name :string</text>
<text text-anchor="start" x="1177.99" y="-1139.8" font-family="Times,serif" font-size="14.00">identification :string</text>
<text text-anchor="start" x="1177.99" y="-1125.8" font-family="Times,serif" font-size="14.00">birthdate :date</text>
<text text-anchor="start" x="1177.99" y="-1111.8" font-family="Times,serif" font-size="14.00">sex :string</text>
<text text-anchor="start" x="1177.99" y="-1097.8" font-family="Times,serif" font-size="14.00">education_id :integer</text>
<text text-anchor="start" x="1177.99" y="-1083.8" font-family="Times,serif" font-size="14.00">civil_status_id :integer</text>
<text text-anchor="start" x="1177.99" y="-1069.8" font-family="Times,serif" font-size="14.00">created_at :datetime</text>
<text text-anchor="start" x="1177.99" y="-1055.8" font-family="Times,serif" font-size="14.00">updated_at :datetime</text>
<text text-anchor="start" x="1177.99" y="-1041.8" font-family="Times,serif" font-size="14.00">age :integer</text>
<text text-anchor="start" x="1177.99" y="-1027.8" font-family="Times,serif" font-size="14.00">community_of_birth_id :integer</text>
<text text-anchor="start" x="1177.99" y="-1013.8" font-family="Times,serif" font-size="14.00">phone :string</text>
<text text-anchor="start" x="1177.99" y="-999.8" font-family="Times,serif" font-size="14.00">birthplace :string</text>
</g>
<!-- Community&#45;&gt;Person -->
<g id="edge7" class="edge"><title>Community&#45;&gt;Person</title>
<path fill="none" stroke="#aadeb8" d="M976.54,-1270.09C1029.56,-1239.15 1101.93,-1196.91 1161.29,-1162.27"/>
<ellipse fill="none" stroke="#aadeb8" cx="972.977" cy="-1272.16" rx="4.00002" ry="4.00002"/>
<polygon fill="#aadeb8" stroke="#aadeb8" points="1161.31,-1162.26 1172.22,-1161.1 1165.63,-1159.74 1169.95,-1157.22 1169.95,-1157.22 1169.95,-1157.22 1165.63,-1159.74 1167.68,-1153.33 1161.31,-1162.26 1161.31,-1162.26"/>
<text text-anchor="middle" x="1087.99" y="-1226.8" font-family="Times,serif" font-size="14.00">people_born</text>
</g>
<!-- RegionsUser -->
<g id="node19" class="node"><title>RegionsUser</title>
<path fill="none" stroke="black" d="M689.267,-1042C689.267,-1042 810.733,-1042 810.733,-1042 816.733,-1042 822.733,-1048 822.733,-1054 822.733,-1054 822.733,-1144 822.733,-1144 822.733,-1150 816.733,-1156 810.733,-1156 810.733,-1156 689.267,-1156 689.267,-1156 683.267,-1156 677.267,-1150 677.267,-1144 677.267,-1144 677.267,-1054 677.267,-1054 677.267,-1048 683.267,-1042 689.267,-1042"/>
<text text-anchor="middle" x="750" y="-1140.8" font-family="Times,serif" font-size="14.00">RegionsUser</text>
<polyline fill="none" stroke="black" points="677.267,-1134 822.733,-1134 "/>
<text text-anchor="start" x="685.267" y="-1118.8" font-family="Times,serif" font-size="14.00">id :integer</text>
<text text-anchor="start" x="685.267" y="-1104.8" font-family="Times,serif" font-size="14.00">user_id :integer</text>
<text text-anchor="start" x="685.267" y="-1090.8" font-family="Times,serif" font-size="14.00">regionable_id :integer</text>
<text text-anchor="start" x="685.267" y="-1076.8" font-family="Times,serif" font-size="14.00">regionable_type :string</text>
<text text-anchor="start" x="685.267" y="-1062.8" font-family="Times,serif" font-size="14.00">created_at :datetime</text>
<text text-anchor="start" x="685.267" y="-1048.8" font-family="Times,serif" font-size="14.00">updated_at :datetime</text>
</g>
<!-- Community&#45;&gt;RegionsUser -->
<g id="edge6" class="edge"><title>Community&#45;&gt;RegionsUser</title>
<path fill="none" stroke="#cf6bec" d="M853.167,-1250.3C850.034,-1246.16 846.956,-1242.03 844,-1238 826.683,-1214.36 808.385,-1187.87 792.581,-1164.47"/>
<ellipse fill="none" stroke="#cf6bec" cx="855.698" cy="-1253.62" rx="4.00002" ry="4.00002"/>
<polygon fill="#cf6bec" stroke="#cf6bec" points="792.463,-1164.3 790.611,-1153.49 789.671,-1160.15 786.878,-1156 786.878,-1156 786.878,-1156 789.671,-1160.15 783.145,-1158.52 792.463,-1164.3 792.463,-1164.3"/>
</g>
<!-- Community&#45;&gt;Register -->
<g id="edge8" class="edge"><title>Community&#45;&gt;Register</title>
<path fill="none" stroke="#63fd2b" d="M902.266,-1248.61C901.427,-1175.12 900.024,-1052.09 898.877,-951.515"/>
<ellipse fill="none" stroke="#63fd2b" cx="902.312" cy="-1252.71" rx="4" ry="4"/>
<polygon fill="#63fd2b" stroke="#63fd2b" points="898.873,-951.235 903.259,-941.184 898.816,-946.235 898.759,-941.236 898.759,-941.236 898.759,-941.236 898.816,-946.235 894.26,-941.287 898.873,-951.235 898.873,-951.235"/>
<text text-anchor="middle" x="954.104" y="-1094.8" font-family="Times,serif" font-size="14.00">emission_registers</text>
</g>
<!-- Department -->
<g id="node6" class="node"><title>Department</title>
<path fill="none" stroke="black" d="M620.495,-1927C620.495,-1927 729.505,-1927 729.505,-1927 735.505,-1927 741.505,-1933 741.505,-1939 741.505,-1939 741.505,-2015 741.505,-2015 741.505,-2021 735.505,-2027 729.505,-2027 729.505,-2027 620.495,-2027 620.495,-2027 614.495,-2027 608.495,-2021 608.495,-2015 608.495,-2015 608.495,-1939 608.495,-1939 608.495,-1933 614.495,-1927 620.495,-1927"/>
<text text-anchor="middle" x="675" y="-2011.8" font-family="Times,serif" font-size="14.00">Department</text>
<polyline fill="none" stroke="black" points="608.495,-2005 741.505,-2005 "/>
<text text-anchor="start" x="616.495" y="-1989.8" font-family="Times,serif" font-size="14.00">id :integer</text>
<text text-anchor="start" x="616.495" y="-1975.8" font-family="Times,serif" font-size="14.00">code :string</text>
<text text-anchor="start" x="616.495" y="-1961.8" font-family="Times,serif" font-size="14.00">name :string</text>
<text text-anchor="start" x="616.495" y="-1947.8" font-family="Times,serif" font-size="14.00">created_at :datetime</text>
<text text-anchor="start" x="616.495" y="-1933.8" font-family="Times,serif" font-size="14.00">updated_at :datetime</text>
</g>
<!-- Department&#45;&gt;Community -->
<g id="edge12" class="edge"><title>Department&#45;&gt;Community</title>
<path fill="none" stroke="#b4f73c" d="M675.917,-1916.46C678.439,-1781.94 687.103,-1463.01 713,-1422 726.832,-1400.09 780.189,-1371.02 826.85,-1348.71"/>
<polygon fill="#b4f73c" stroke="#b4f73c" points="675.915,-1916.59 671.233,-1926.51 675.824,-1921.59 675.732,-1926.59 675.732,-1926.59 675.732,-1926.59 675.824,-1921.59 680.232,-1926.67 675.915,-1916.59 675.915,-1916.59"/>
<polygon fill="#b4f73c" stroke="#b4f73c" points="827.04,-1348.62 838.004,-1348.41 831.56,-1346.48 836.079,-1344.35 836.079,-1344.35 836.079,-1344.35 831.56,-1346.48 834.154,-1340.28 827.04,-1348.62 827.04,-1348.62"/>
</g>
<!-- Department&#45;&gt;Land -->
<g id="edge16" class="edge"><title>Department&#45;&gt;Land</title>
<path fill="none" stroke="#738337" d="M641.578,-1919.33C636.694,-1909.17 632.231,-1898.47 629,-1888 563.786,-1676.65 542,-1619.18 542,-1398 542,-1398 542,-1398 542,-785 542,-724.732 547.451,-658.511 553.853,-601.517"/>
<ellipse fill="none" stroke="#738337" cx="643.419" cy="-1923.05" rx="4.00002" ry="4.00002"/>
<polygon fill="#738337" stroke="#738337" points="553.879,-601.289 559.486,-591.865 554.447,-596.321 555.016,-591.354 555.016,-591.354 555.016,-591.354 554.447,-596.321 550.545,-590.842 553.879,-601.289 553.879,-601.289"/>
</g>
<!-- Province -->
<g id="node18" class="node"><title>Province</title>
<path fill="none" stroke="black" d="M734.439,-1444C734.439,-1444 853.561,-1444 853.561,-1444 859.561,-1444 865.561,-1450 865.561,-1456 865.561,-1456 865.561,-1546 865.561,-1546 865.561,-1552 859.561,-1558 853.561,-1558 853.561,-1558 734.439,-1558 734.439,-1558 728.439,-1558 722.439,-1552 722.439,-1546 722.439,-1546 722.439,-1456 722.439,-1456 722.439,-1450 728.439,-1444 734.439,-1444"/>
<text text-anchor="middle" x="794" y="-1542.8" font-family="Times,serif" font-size="14.00">Province</text>
<polyline fill="none" stroke="black" points="722.439,-1536 865.561,-1536 "/>
<text text-anchor="start" x="730.439" y="-1520.8" font-family="Times,serif" font-size="14.00">id :integer</text>
<text text-anchor="start" x="730.439" y="-1506.8" font-family="Times,serif" font-size="14.00">code :string</text>
<text text-anchor="start" x="730.439" y="-1492.8" font-family="Times,serif" font-size="14.00">name :string</text>
<text text-anchor="start" x="730.439" y="-1478.8" font-family="Times,serif" font-size="14.00">department_id :integer</text>
<text text-anchor="start" x="730.439" y="-1464.8" font-family="Times,serif" font-size="14.00">created_at :datetime</text>
<text text-anchor="start" x="730.439" y="-1450.8" font-family="Times,serif" font-size="14.00">updated_at :datetime</text>
</g>
<!-- Department&#45;&gt;Province -->
<g id="edge11" class="edge"><title>Department&#45;&gt;Province</title>
<path fill="none" stroke="#7ea6fb" d="M702.231,-1919.18C703.611,-1915.43 704.884,-1911.69 706,-1908 746.418,-1774.42 718.989,-1732.56 756,-1598 758.738,-1588.05 762.167,-1577.71 765.838,-1567.67"/>
<ellipse fill="none" stroke="#7ea6fb" cx="700.71" cy="-1923.1" rx="4.00001" ry="4.00001"/>
<polygon fill="#7ea6fb" stroke="#7ea6fb" points="765.896,-1567.52 773.629,-1559.74 767.656,-1562.84 769.417,-1558.16 769.417,-1558.16 769.417,-1558.16 767.656,-1562.84 765.205,-1556.57 765.896,-1567.52 765.896,-1567.52"/>
</g>
<!-- Department&#45;&gt;RegionsUser -->
<g id="edge13" class="edge"><title>Department&#45;&gt;RegionsUser</title>
<path fill="none" stroke="#8ba359" d="M642.947,-1918.75C642.168,-1914.53 641.807,-1910.25 642,-1906 651.788,-1690.22 591.749,-1616.35 686,-1422 691.076,-1411.53 699.632,-1414.32 705,-1404 744.032,-1328.97 751.979,-1230.3 752.373,-1166.03"/>
<ellipse fill="none" stroke="#8ba359" cx="643.971" cy="-1922.9" rx="4.00001" ry="4.00001"/>
<polygon fill="#8ba359" stroke="#8ba359" points="752.373,-1166.02 756.875,-1156.02 752.374,-1161.02 752.375,-1156.02 752.375,-1156.02 752.375,-1156.02 752.374,-1161.02 747.875,-1156.02 752.373,-1166.02 752.373,-1166.02"/>
</g>
<!-- Department&#45;&gt;Register -->
<g id="edge15" class="edge"><title>Department&#45;&gt;Register</title>
<path fill="none" stroke="#1cfc8c" d="M668.024,-1918.66C655.896,-1815.77 631.395,-1592.89 622.793,-1404 618.603,-1311.99 625.724,-1073.83 668,-992 695.668,-938.446 743.51,-892.237 788.333,-857.32"/>
<ellipse fill="none" stroke="#1cfc8c" cx="668.512" cy="-1922.78" rx="4.00001" ry="4.00001"/>
<polygon fill="#1cfc8c" stroke="#1cfc8c" points="788.436,-857.241 799.109,-854.723 792.403,-854.197 796.37,-851.153 796.37,-851.153 796.37,-851.153 792.403,-854.197 793.63,-847.583 788.436,-857.241 788.436,-857.241"/>
<text text-anchor="middle" x="675.104" y="-1392.8" font-family="Times,serif" font-size="14.00">emission_registers</text>
</g>
<!-- User -->
<g id="node24" class="node"><title>User</title>
<path fill="none" stroke="black" d="M809.722,-1619C809.722,-1619 990.278,-1619 990.278,-1619 996.278,-1619 1002.28,-1625 1002.28,-1631 1002.28,-1631 1002.28,-1875 1002.28,-1875 1002.28,-1881 996.278,-1887 990.278,-1887 990.278,-1887 809.722,-1887 809.722,-1887 803.722,-1887 797.722,-1881 797.722,-1875 797.722,-1875 797.722,-1631 797.722,-1631 797.722,-1625 803.722,-1619 809.722,-1619"/>
<text text-anchor="middle" x="900" y="-1871.8" font-family="Times,serif" font-size="14.00">User</text>
<polyline fill="none" stroke="black" points="797.722,-1865 1002.28,-1865 "/>
<text text-anchor="start" x="805.722" y="-1849.8" font-family="Times,serif" font-size="14.00">id :integer</text>
<text text-anchor="start" x="805.722" y="-1835.8" font-family="Times,serif" font-size="14.00">email :string</text>
<text text-anchor="start" x="805.722" y="-1821.8" font-family="Times,serif" font-size="14.00">encrypted_password :string</text>
<text text-anchor="start" x="805.722" y="-1807.8" font-family="Times,serif" font-size="14.00">reset_password_token :string</text>
<text text-anchor="start" x="805.722" y="-1793.8" font-family="Times,serif" font-size="14.00">reset_password_sent_at :datetime</text>
<text text-anchor="start" x="805.722" y="-1779.8" font-family="Times,serif" font-size="14.00">remember_created_at :datetime</text>
<text text-anchor="start" x="805.722" y="-1765.8" font-family="Times,serif" font-size="14.00">sign_in_count :integer</text>
<text text-anchor="start" x="805.722" y="-1751.8" font-family="Times,serif" font-size="14.00">current_sign_in_at :datetime</text>
<text text-anchor="start" x="805.722" y="-1737.8" font-family="Times,serif" font-size="14.00">last_sign_in_at :datetime</text>
<text text-anchor="start" x="805.722" y="-1723.8" font-family="Times,serif" font-size="14.00">current_sign_in_ip :string</text>
<text text-anchor="start" x="805.722" y="-1709.8" font-family="Times,serif" font-size="14.00">last_sign_in_ip :string</text>
<text text-anchor="start" x="805.722" y="-1695.8" font-family="Times,serif" font-size="14.00">created_at :datetime</text>
<text text-anchor="start" x="805.722" y="-1681.8" font-family="Times,serif" font-size="14.00">updated_at :datetime</text>
<text text-anchor="start" x="805.722" y="-1667.8" font-family="Times,serif" font-size="14.00">last_seen_at :datetime</text>
<text text-anchor="start" x="805.722" y="-1653.8" font-family="Times,serif" font-size="14.00">active :boolean</text>
<text text-anchor="start" x="805.722" y="-1639.8" font-family="Times,serif" font-size="14.00">entity_id :integer</text>
<text text-anchor="start" x="805.722" y="-1625.8" font-family="Times,serif" font-size="14.00">authentication_token :string</text>
</g>
<!-- Department&#45;&gt;User -->
<g id="edge14" class="edge"><title>Department&#45;&gt;User</title>
<path fill="none" stroke="#1a1699" d="M732.14,-1919.62C749.992,-1902.01 770.32,-1881.95 790.519,-1862.02"/>
<polygon fill="#1a1699" stroke="#1a1699" points="732.053,-1919.71 721.774,-1923.53 728.494,-1923.22 724.935,-1926.73 724.935,-1926.73 724.935,-1926.73 728.494,-1923.22 728.095,-1929.93 732.053,-1919.71 732.053,-1919.71"/>
<polygon fill="#1a1699" stroke="#1a1699" points="790.535,-1862.01 800.814,-1858.19 794.094,-1858.49 797.653,-1854.98 797.653,-1854.98 797.653,-1854.98 794.094,-1858.49 794.493,-1851.78 790.535,-1862.01 790.535,-1862.01"/>
</g>
<!-- EconomicActivity -->
<g id="node7" class="node"><title>EconomicActivity</title>
<path fill="none" stroke="black" d="M1554.49,-2202C1554.49,-2202 1663.51,-2202 1663.51,-2202 1669.51,-2202 1675.51,-2208 1675.51,-2214 1675.51,-2214 1675.51,-2290 1675.51,-2290 1675.51,-2296 1669.51,-2302 1663.51,-2302 1663.51,-2302 1554.49,-2302 1554.49,-2302 1548.49,-2302 1542.49,-2296 1542.49,-2290 1542.49,-2290 1542.49,-2214 1542.49,-2214 1542.49,-2208 1548.49,-2202 1554.49,-2202"/>
<text text-anchor="middle" x="1609" y="-2286.8" font-family="Times,serif" font-size="14.00">EconomicActivity</text>
<polyline fill="none" stroke="black" points="1542.49,-2280 1675.51,-2280 "/>
<text text-anchor="start" x="1550.49" y="-2264.8" font-family="Times,serif" font-size="14.00">id :integer</text>
<text text-anchor="start" x="1550.49" y="-2250.8" font-family="Times,serif" font-size="14.00">code :string</text>
<text text-anchor="start" x="1550.49" y="-2236.8" font-family="Times,serif" font-size="14.00">name :string</text>
<text text-anchor="start" x="1550.49" y="-2222.8" font-family="Times,serif" font-size="14.00">created_at :datetime</text>
<text text-anchor="start" x="1550.49" y="-2208.8" font-family="Times,serif" font-size="14.00">updated_at :datetime</text>
</g>
<!-- Education -->
<g id="node8" class="node"><title>Education</title>
<path fill="none" stroke="black" d="M1705.49,-2202C1705.49,-2202 1814.51,-2202 1814.51,-2202 1820.51,-2202 1826.51,-2208 1826.51,-2214 1826.51,-2214 1826.51,-2290 1826.51,-2290 1826.51,-2296 1820.51,-2302 1814.51,-2302 1814.51,-2302 1705.49,-2302 1705.49,-2302 1699.49,-2302 1693.49,-2296 1693.49,-2290 1693.49,-2290 1693.49,-2214 1693.49,-2214 1693.49,-2208 1699.49,-2202 1705.49,-2202"/>
<text text-anchor="middle" x="1760" y="-2286.8" font-family="Times,serif" font-size="14.00">Education</text>
<polyline fill="none" stroke="black" points="1693.49,-2280 1826.51,-2280 "/>
<text text-anchor="start" x="1701.49" y="-2264.8" font-family="Times,serif" font-size="14.00">id :integer</text>
<text text-anchor="start" x="1701.49" y="-2250.8" font-family="Times,serif" font-size="14.00">code :string</text>
<text text-anchor="start" x="1701.49" y="-2236.8" font-family="Times,serif" font-size="14.00">name :string</text>
<text text-anchor="start" x="1701.49" y="-2222.8" font-family="Times,serif" font-size="14.00">created_at :datetime</text>
<text text-anchor="start" x="1701.49" y="-2208.8" font-family="Times,serif" font-size="14.00">updated_at :datetime</text>
</g>
<!-- Entity -->
<g id="node9" class="node"><title>Entity</title>
<path fill="none" stroke="black" d="M834.978,-2047C834.978,-2047 951.022,-2047 951.022,-2047 957.022,-2047 963.022,-2053 963.022,-2059 963.022,-2059 963.022,-2149 963.022,-2149 963.022,-2155 957.022,-2161 951.022,-2161 951.022,-2161 834.978,-2161 834.978,-2161 828.978,-2161 822.978,-2155 822.978,-2149 822.978,-2149 822.978,-2059 822.978,-2059 822.978,-2053 828.978,-2047 834.978,-2047"/>
<text text-anchor="middle" x="893" y="-2145.8" font-family="Times,serif" font-size="14.00">Entity</text>
<polyline fill="none" stroke="black" points="822.978,-2139 963.022,-2139 "/>
<text text-anchor="start" x="830.978" y="-2123.8" font-family="Times,serif" font-size="14.00">id :integer</text>
<text text-anchor="start" x="830.978" y="-2109.8" font-family="Times,serif" font-size="14.00">business_name :string</text>
<text text-anchor="start" x="830.978" y="-2095.8" font-family="Times,serif" font-size="14.00">description :text</text>
<text text-anchor="start" x="830.978" y="-2081.8" font-family="Times,serif" font-size="14.00">created_at :datetime</text>
<text text-anchor="start" x="830.978" y="-2067.8" font-family="Times,serif" font-size="14.00">updated_at :datetime</text>
<text text-anchor="start" x="830.978" y="-2053.8" font-family="Times,serif" font-size="14.00">nit :string</text>
</g>
<!-- Entity&#45;&gt;User -->
<g id="edge20" class="edge"><title>Entity&#45;&gt;User</title>
<path fill="none" stroke="#46bb8a" d="M892.088,-2038.84C892.053,-2035.17 892.024,-2031.54 892,-2028 891.639,-1973.78 890.575,-1960.2 892,-1906 892.077,-1903.09 892.161,-1900.15 892.253,-1897.19"/>
<ellipse fill="none" stroke="#46bb8a" cx="892.129" cy="-2042.89" rx="4" ry="4"/>
<polygon fill="#46bb8a" stroke="#46bb8a" points="892.259,-1897.03 897.091,-1887.18 892.426,-1892.03 892.594,-1887.03 892.594,-1887.03 892.594,-1887.03 892.426,-1892.03 888.096,-1886.88 892.259,-1897.03 892.259,-1897.03"/>
</g>
<!-- Land&#45;&gt;Capital -->
<g id="edge23" class="edge"><title>Land&#45;&gt;Capital</title>
<path fill="none" stroke="#ec8fbd" d="M493.615,-598.924C492.32,-602.619 491.111,-606.315 490,-610 362.831,-1031.79 410,-1157.45 410,-1598 410,-1978 410,-1978 410,-1978 410,-2042.79 409.715,-2116.22 409.449,-2170.6"/>
<ellipse fill="none" stroke="#ec8fbd" cx="495.014" cy="-595.097" rx="4.00001" ry="4.00001"/>
<polygon fill="#ec8fbd" stroke="#ec8fbd" points="409.448,-2170.86 404.898,-2180.84 409.423,-2175.86 409.398,-2180.86 409.398,-2180.86 409.398,-2180.86 409.423,-2175.86 413.898,-2180.89 409.448,-2170.86 409.448,-2170.86"/>
</g>
<!-- Production -->
<g id="node16" class="node"><title>Production</title>
<path fill="none" stroke="black" d="M771.843,-87C771.843,-87 1016.16,-87 1016.16,-87 1022.16,-87 1028.16,-93 1028.16,-99 1028.16,-99 1028.16,-259 1028.16,-259 1028.16,-265 1022.16,-271 1016.16,-271 1016.16,-271 771.843,-271 771.843,-271 765.843,-271 759.843,-265 759.843,-259 759.843,-259 759.843,-99 759.843,-99 759.843,-93 765.843,-87 771.843,-87"/>
<text text-anchor="middle" x="894" y="-255.8" font-family="Times,serif" font-size="14.00">Production</text>
<polyline fill="none" stroke="black" points="759.843,-249 1028.16,-249 "/>
<text text-anchor="start" x="767.843" y="-233.8" font-family="Times,serif" font-size="14.00">id :integer</text>
<text text-anchor="start" x="767.843" y="-219.8" font-family="Times,serif" font-size="14.00">land_id :integer</text>
<text text-anchor="start" x="767.843" y="-205.8" font-family="Times,serif" font-size="14.00">entry :string</text>
<text text-anchor="start" x="767.843" y="-191.8" font-family="Times,serif" font-size="14.00">production_destination :string</text>
<text text-anchor="start" x="767.843" y="-177.8" font-family="Times,serif" font-size="14.00">production_quantity :float</text>
<text text-anchor="start" x="767.843" y="-163.8" font-family="Times,serif" font-size="14.00">production_system :string</text>
<text text-anchor="start" x="767.843" y="-149.8" font-family="Times,serif" font-size="14.00">production_unit :string</text>
<text text-anchor="start" x="767.843" y="-135.8" font-family="Times,serif" font-size="14.00">productive_physical_coverage_amount :float</text>
<text text-anchor="start" x="767.843" y="-121.8" font-family="Times,serif" font-size="14.00">productive_physical_coverage_unit :string</text>
<text text-anchor="start" x="767.843" y="-107.8" font-family="Times,serif" font-size="14.00">created_at :datetime</text>
<text text-anchor="start" x="767.843" y="-93.8" font-family="Times,serif" font-size="14.00">updated_at :datetime</text>
</g>
<!-- Land&#45;&gt;Production -->
<g id="edge24" class="edge"><title>Land&#45;&gt;Production</title>
<path fill="none" stroke="#11e42d" d="M707.53,-323.287C708.02,-322.857 708.51,-322.428 709,-322 726.074,-307.081 744.53,-291.894 762.947,-277.27"/>
<ellipse fill="none" stroke="#11e42d" cx="704.128" cy="-326.3" rx="4.00002" ry="4.00002"/>
<polygon fill="#11e42d" stroke="#11e42d" points="762.987,-277.239 773.623,-274.571 766.91,-274.139 770.834,-271.039 770.834,-271.039 770.834,-271.039 766.91,-274.139 768.044,-267.508 762.987,-277.239 762.987,-277.239"/>
</g>
<!-- Land&#45;&gt;PaperTrail::Version -->
<g id="edge22" class="edge"><title>Land&#45;&gt;PaperTrail::Version</title>
<path fill="none" stroke="#73c9bd" d="M588.971,-314.771C604.813,-236.035 637.387,-142.704 704.338,-86 748.062,-48.9677 902.321,-31.5783 1001.12,-24.0707"/>
<ellipse fill="none" stroke="#73c9bd" cx="588.164" cy="-318.904" rx="4.00001" ry="4.00001"/>
<polygon fill="#73c9bd" stroke="#73c9bd" points="1001.13,-24.0705 1011.43,-27.8195 1006.11,-23.7012 1011.1,-23.3318 1011.1,-23.3318 1011.1,-23.3318 1006.11,-23.7012 1010.77,-18.8441 1001.13,-24.0705 1001.13,-24.0705"/>
<text text-anchor="middle" x="728.331" y="-174.8" font-family="Times,serif" font-size="14.00">versions</text>
</g>
<!-- MyFooter -->
<g id="node11" class="node"><title>MyFooter</title>
<polygon fill="none" stroke="black" points="2006,-2230 2006,-2274 2078,-2274 2078,-2230 2006,-2230"/>
<text text-anchor="middle" x="2042" y="-2258.8" font-family="Times,serif" font-size="14.00">MyFooter</text>
<polyline fill="none" stroke="black" points="2006,-2252 2078,-2252 "/>
<text text-anchor="middle" x="2042" y="-2236.8" font-family="Times,serif" font-size="14.00"> </text>
</g>
<!-- Partnership -->
<g id="node12" class="node"><title>Partnership</title>
<path fill="none" stroke="black" d="M1158.49,-400C1158.49,-400 1267.51,-400 1267.51,-400 1273.51,-400 1279.51,-406 1279.51,-412 1279.51,-412 1279.51,-502 1279.51,-502 1279.51,-508 1273.51,-514 1267.51,-514 1267.51,-514 1158.49,-514 1158.49,-514 1152.49,-514 1146.49,-508 1146.49,-502 1146.49,-502 1146.49,-412 1146.49,-412 1146.49,-406 1152.49,-400 1158.49,-400"/>
<text text-anchor="middle" x="1213" y="-498.8" font-family="Times,serif" font-size="14.00">Partnership</text>
<polyline fill="none" stroke="black" points="1146.49,-492 1279.51,-492 "/>
<text text-anchor="start" x="1154.49" y="-476.8" font-family="Times,serif" font-size="14.00">id :integer</text>
<text text-anchor="start" x="1154.49" y="-462.8" font-family="Times,serif" font-size="14.00">name :string</text>
<text text-anchor="start" x="1154.49" y="-448.8" font-family="Times,serif" font-size="14.00">code :string</text>
<text text-anchor="start" x="1154.49" y="-434.8" font-family="Times,serif" font-size="14.00">created_at :datetime</text>
<text text-anchor="start" x="1154.49" y="-420.8" font-family="Times,serif" font-size="14.00">updated_at :datetime</text>
<text text-anchor="start" x="1154.49" y="-406.8" font-family="Times,serif" font-size="14.00">register_id :integer</text>
</g>
<!-- Partnership&#45;&gt;PaperTrail::Version -->
<g id="edge27" class="edge"><title>Partnership&#45;&gt;PaperTrail::Version</title>
<path fill="none" stroke="#1770c8" d="M1213.48,-391.745C1211.26,-307.941 1197.37,-159.597 1132,-54 1129.27,-49.5898 1125.77,-45.5185 1121.93,-41.8321"/>
<ellipse fill="none" stroke="#1770c8" cx="1213.57" cy="-395.899" rx="4" ry="4"/>
<polygon fill="#1770c8" stroke="#1770c8" points="1121.83,-41.7465 1117.18,-31.8164 1118.04,-38.4881 1114.25,-35.2297 1114.25,-35.2297 1114.25,-35.2297 1118.04,-38.4881 1111.32,-38.6429 1121.83,-41.7465 1121.83,-41.7465"/>
<text text-anchor="middle" x="1226.33" y="-174.8" font-family="Times,serif" font-size="14.00">versions</text>
</g>
<!-- PartnershipsRegister -->
<g id="node13" class="node"><title>PartnershipsRegister</title>
<path fill="none" stroke="black" d="M1856.44,-2202C1856.44,-2202 1975.56,-2202 1975.56,-2202 1981.56,-2202 1987.56,-2208 1987.56,-2214 1987.56,-2214 1987.56,-2290 1987.56,-2290 1987.56,-2296 1981.56,-2302 1975.56,-2302 1975.56,-2302 1856.44,-2302 1856.44,-2302 1850.44,-2302 1844.44,-2296 1844.44,-2290 1844.44,-2290 1844.44,-2214 1844.44,-2214 1844.44,-2208 1850.44,-2202 1856.44,-2202"/>
<text text-anchor="middle" x="1916" y="-2286.8" font-family="Times,serif" font-size="14.00">PartnershipsRegister</text>
<polyline fill="none" stroke="black" points="1844.44,-2280 1987.56,-2280 "/>
<text text-anchor="start" x="1852.44" y="-2264.8" font-family="Times,serif" font-size="14.00">id :integer</text>
<text text-anchor="start" x="1852.44" y="-2250.8" font-family="Times,serif" font-size="14.00">register_id :integer</text>
<text text-anchor="start" x="1852.44" y="-2236.8" font-family="Times,serif" font-size="14.00">partnership_id :integer</text>
<text text-anchor="start" x="1852.44" y="-2222.8" font-family="Times,serif" font-size="14.00">created_at :datetime</text>
<text text-anchor="start" x="1852.44" y="-2208.8" font-family="Times,serif" font-size="14.00">updated_at :datetime</text>
</g>
<!-- PeopleRegister -->
<g id="node14" class="node"><title>PeopleRegister</title>
<path fill="none" stroke="black" d="M1309.93,-386C1309.93,-386 1422.07,-386 1422.07,-386 1428.07,-386 1434.07,-392 1434.07,-398 1434.07,-398 1434.07,-516 1434.07,-516 1434.07,-522 1428.07,-528 1422.07,-528 1422.07,-528 1309.93,-528 1309.93,-528 1303.93,-528 1297.93,-522 1297.93,-516 1297.93,-516 1297.93,-398 1297.93,-398 1297.93,-392 1303.93,-386 1309.93,-386"/>
<text text-anchor="middle" x="1366" y="-512.8" font-family="Times,serif" font-size="14.00">PeopleRegister</text>
<polyline fill="none" stroke="black" points="1297.93,-506 1434.07,-506 "/>
<text text-anchor="start" x="1305.93" y="-490.8" font-family="Times,serif" font-size="14.00">id :integer</text>
<text text-anchor="start" x="1305.93" y="-476.8" font-family="Times,serif" font-size="14.00">person_id :integer</text>
<text text-anchor="start" x="1305.93" y="-462.8" font-family="Times,serif" font-size="14.00">register_id :integer</text>
<text text-anchor="start" x="1305.93" y="-448.8" font-family="Times,serif" font-size="14.00">type_person :string</text>
<text text-anchor="start" x="1305.93" y="-434.8" font-family="Times,serif" font-size="14.00">created_at :datetime</text>
<text text-anchor="start" x="1305.93" y="-420.8" font-family="Times,serif" font-size="14.00">updated_at :datetime</text>
<text text-anchor="start" x="1305.93" y="-406.8" font-family="Times,serif" font-size="14.00">town_of_birth :string</text>
<text text-anchor="start" x="1305.93" y="-392.8" font-family="Times,serif" font-size="14.00">time_to_land :integer</text>
</g>
<!-- PeopleRegister&#45;&gt;PaperTrail::Version -->
<g id="edge30" class="edge"><title>PeopleRegister&#45;&gt;PaperTrail::Version</title>
<path fill="none" stroke="#cdf34b" d="M1361.44,-377.532C1352.67,-295.256 1327.14,-166.907 1253,-86 1227.87,-58.5767 1189.95,-42.1508 1156.7,-32.4333"/>
<ellipse fill="none" stroke="#cdf34b" cx="1361.88" cy="-381.863" rx="4" ry="4"/>
<polygon fill="#cdf34b" stroke="#cdf34b" points="1156.64,-32.4174 1148.21,-25.4109 1151.82,-31.0825 1147.01,-29.7475 1147.01,-29.7475 1147.01,-29.7475 1151.82,-31.0825 1145.8,-34.0842 1156.64,-32.4174 1156.64,-32.4174"/>
<text text-anchor="middle" x="1366.33" y="-174.8" font-family="Times,serif" font-size="14.00">versions</text>
</g>
<!-- Person&#45;&gt;PeopleRegister -->
<g id="edge33" class="edge"><title>Person&#45;&gt;PeopleRegister</title>
<path fill="none" stroke="#733648" d="M1285.38,-984.487C1305.02,-856.25 1336.48,-650.796 1353.72,-538.208"/>
<ellipse fill="none" stroke="#733648" cx="1284.73" cy="-988.722" rx="4.00001" ry="4.00001"/>
<polygon fill="#733648" stroke="#733648" points="1353.73,-538.158 1359.69,-528.954 1354.48,-533.215 1355.24,-528.273 1355.24,-528.273 1355.24,-528.273 1354.48,-533.215 1350.79,-527.592 1353.73,-538.158 1353.73,-538.158"/>
</g>
<!-- Person&#45;&gt;Register -->
<g id="edge34" class="edge"><title>Person&#45;&gt;Register</title>
<path fill="none" stroke="#f909cb" d="M1161.8,-1024.73C1139.65,-1008.54 1116.74,-991.102 1096,-974 1065.48,-948.839 1033.72,-920.217 1004.77,-893.061"/>
<polygon fill="#f909cb" stroke="#f909cb" points="1161.83,-1024.75 1167.27,-1034.27 1165.87,-1027.69 1169.92,-1030.63 1169.92,-1030.63 1169.92,-1030.63 1165.87,-1027.69 1172.56,-1026.99 1161.83,-1024.75 1161.83,-1024.75"/>
<polygon fill="#f909cb" stroke="#f909cb" points="1004.75,-893.046 1000.55,-882.915 1001.11,-889.619 997.467,-886.192 997.467,-886.192 997.467,-886.192 1001.11,-889.619 994.383,-889.469 1004.75,-893.046 1004.75,-893.046"/>
</g>
<!-- Person&#45;&gt;PaperTrail::Version -->
<g id="edge32" class="edge"><title>Person&#45;&gt;PaperTrail::Version</title>
<path fill="none" stroke="#f796d3" d="M1371.47,-1001.49C1421.13,-944.622 1470,-868.065 1470,-787 1470,-787 1470,-787 1470,-178 1470,-124.68 1438.6,-113.63 1393,-86 1326.44,-45.6742 1238.69,-29.4962 1174.22,-23.0699"/>
<ellipse fill="none" stroke="#f796d3" cx="1368.69" cy="-1004.64" rx="4.00002" ry="4.00002"/>
<polygon fill="#f796d3" stroke="#f796d3" points="1174.04,-23.0529 1164.5,-17.6397 1169.06,-22.5865 1164.08,-22.1201 1164.08,-22.1201 1164.08,-22.1201 1169.06,-22.5865 1163.66,-26.6004 1174.04,-23.0529 1174.04,-23.0529"/>
<text text-anchor="middle" x="1493.33" y="-452.8" font-family="Times,serif" font-size="14.00">versions</text>
</g>
<!-- Production&#45;&gt;Register -->
<g id="edge37" class="edge"><title>Production&#45;&gt;Register</title>
<path fill="none" stroke="#f0a64b" d="M899.65,-279.392C901.873,-372.499 902.872,-513.32 902.254,-622.72"/>
<ellipse fill="none" stroke="#f0a64b" cx="899.551" cy="-275.373" rx="4" ry="4"/>
<ellipse fill="#f0a64b" stroke="#f0a64b" cx="902.23" cy="-626.768" rx="4" ry="4"/>
</g>
<!-- Production&#45;&gt;PaperTrail::Version -->
<g id="edge36" class="edge"><title>Production&#45;&gt;PaperTrail::Version</title>
<path fill="none" stroke="#46a329" d="M964.515,-80.9523C974.163,-71.0766 984.502,-61.8211 995.338,-54 1005.47,-46.6842 1017.33,-40.6867 1029.09,-35.8528"/>
<ellipse fill="none" stroke="#46a329" cx="961.675" cy="-83.9355" rx="4.00002" ry="4.00002"/>
<polygon fill="#46a329" stroke="#46a329" points="1029.14,-35.834 1040.09,-36.4189 1033.8,-34.0283 1038.46,-32.2226 1038.46,-32.2226 1038.46,-32.2226 1033.8,-34.0283 1036.84,-28.0263 1029.14,-35.834 1029.14,-35.834"/>
<text text-anchor="middle" x="1019.33" y="-56.8" font-family="Times,serif" font-size="14.00">versions</text>
</g>
<!-- Profile -->
<g id="node17" class="node"><title>Profile</title>
<path fill="none" stroke="black" d="M1181.49,-1423C1181.49,-1423 1290.51,-1423 1290.51,-1423 1296.51,-1423 1302.51,-1429 1302.51,-1435 1302.51,-1435 1302.51,-1567 1302.51,-1567 1302.51,-1573 1296.51,-1579 1290.51,-1579 1290.51,-1579 1181.49,-1579 1181.49,-1579 1175.49,-1579 1169.49,-1573 1169.49,-1567 1169.49,-1567 1169.49,-1435 1169.49,-1435 1169.49,-1429 1175.49,-1423 1181.49,-1423"/>
<text text-anchor="middle" x="1236" y="-1563.8" font-family="Times,serif" font-size="14.00">Profile</text>
<polyline fill="none" stroke="black" points="1169.49,-1557 1302.51,-1557 "/>
<text text-anchor="start" x="1177.49" y="-1541.8" font-family="Times,serif" font-size="14.00">id :integer</text>
<text text-anchor="start" x="1177.49" y="-1527.8" font-family="Times,serif" font-size="14.00">name :string</text>
<text text-anchor="start" x="1177.49" y="-1513.8" font-family="Times,serif" font-size="14.00">last_name :string</text>
<text text-anchor="start" x="1177.49" y="-1499.8" font-family="Times,serif" font-size="14.00">identification :string</text>
<text text-anchor="start" x="1177.49" y="-1485.8" font-family="Times,serif" font-size="14.00">sex :string</text>
<text text-anchor="start" x="1177.49" y="-1471.8" font-family="Times,serif" font-size="14.00">user_id :integer</text>
<text text-anchor="start" x="1177.49" y="-1457.8" font-family="Times,serif" font-size="14.00">created_at :datetime</text>
<text text-anchor="start" x="1177.49" y="-1443.8" font-family="Times,serif" font-size="14.00">updated_at :datetime</text>
<text text-anchor="start" x="1177.49" y="-1429.8" font-family="Times,serif" font-size="14.00">birthdate :date</text>
</g>
<!-- Province&#45;&gt;Community -->
<g id="edge40" class="edge"><title>Province&#45;&gt;Community</title>
<path fill="none" stroke="#10ae64" d="M831.204,-1436.86C842.051,-1418.45 853.917,-1398.31 864.823,-1379.8"/>
<ellipse fill="none" stroke="#10ae64" cx="829.03" cy="-1440.55" rx="4.00002" ry="4.00002"/>
<polygon fill="#10ae64" stroke="#10ae64" points="864.848,-1379.75 873.802,-1373.42 867.387,-1375.44 869.925,-1371.14 869.925,-1371.14 869.925,-1371.14 867.387,-1375.44 866.048,-1368.85 864.848,-1379.75 864.848,-1379.75"/>
</g>
<!-- Province&#45;&gt;RegionsUser -->
<g id="edge41" class="edge"><title>Province&#45;&gt;RegionsUser</title>
<path fill="none" stroke="#bce40d" d="M786.929,-1435.72C778.807,-1361.88 765.545,-1241.32 757.32,-1166.54"/>
<ellipse fill="none" stroke="#bce40d" cx="787.398" cy="-1439.98" rx="4" ry="4"/>
<polygon fill="#bce40d" stroke="#bce40d" points="757.287,-1166.25 760.667,-1155.81 756.74,-1161.27 756.194,-1156.3 756.194,-1156.3 756.194,-1156.3 756.74,-1161.27 751.721,-1156.8 757.287,-1166.25 757.287,-1166.25"/>
</g>
<!-- Register&#45;&gt;Capital -->
<g id="edge46" class="edge"><title>Register&#45;&gt;Capital</title>
<path fill="none" stroke="#31f80a" d="M787.858,-850.511C734.118,-885.587 672.582,-933.87 633,-992 613.345,-1020.87 466,-1563.08 466,-1598 466,-1978 466,-1978 466,-1978 466,-2043.69 452.353,-2116.95 438.247,-2171.02"/>
<polygon fill="#31f80a" stroke="#31f80a" points="788.008,-850.414 798.851,-848.777 792.21,-847.705 796.412,-844.995 796.412,-844.995 796.412,-844.995 792.21,-847.705 793.973,-841.213 788.008,-850.414 788.008,-850.414"/>
<polygon fill="#31f80a" stroke="#31f80a" points="438.192,-2171.23 431.264,-2179.73 436.902,-2176.06 435.611,-2180.89 435.611,-2180.89 435.611,-2180.89 436.902,-2176.06 439.959,-2182.05 438.192,-2171.23 438.192,-2171.23"/>
</g>
<!-- Register&#45;&gt;Land -->
<g id="edge48" class="edge"><title>Register&#45;&gt;Land</title>
<path fill="none" stroke="#0f1426" d="M790.856,-677.542C764.455,-650.813 735.808,-621.812 708.251,-593.914"/>
<ellipse fill="none" stroke="#0f1426" cx="793.76" cy="-680.482" rx="4.00002" ry="4.00002"/>
<polygon fill="#0f1426" stroke="#0f1426" points="707.92,-593.578 704.094,-583.301 704.406,-590.021 700.892,-586.464 700.892,-586.464 700.892,-586.464 704.406,-590.021 697.691,-589.626 707.92,-593.578 707.92,-593.578"/>
</g>
<!-- Register&#45;&gt;Partnership -->
<g id="edge52" class="edge"><title>Register&#45;&gt;Partnership</title>
<path fill="none" stroke="#4343b8" d="M1003.28,-679.964C1025.48,-657.677 1048.63,-634.18 1070,-612 1098.35,-582.577 1129.27,-549.425 1155.07,-521.438"/>
<ellipse fill="none" stroke="#4343b8" cx="1000.18" cy="-683.076" rx="4.00002" ry="4.00002"/>
<polygon fill="#4343b8" stroke="#4343b8" points="1155.09,-521.42 1165.17,-517.113 1158.48,-517.743 1161.86,-514.065 1161.86,-514.065 1161.86,-514.065 1158.48,-517.743 1158.55,-511.016 1155.09,-521.42 1155.09,-521.42"/>
</g>
<!-- Register&#45;&gt;PeopleRegister -->
<g id="edge50" class="edge"><title>Register&#45;&gt;PeopleRegister</title>
<path fill="none" stroke="#21a33d" d="M1004.95,-751.169C1089.71,-720.35 1206.63,-667.973 1288,-592 1304.55,-576.548 1318.65,-556.783 1330.11,-537.207"/>
<ellipse fill="none" stroke="#21a33d" cx="1001.12" cy="-752.546" rx="4.00001" ry="4.00001"/>
<polygon fill="#21a33d" stroke="#21a33d" points="1330.26,-536.942 1339.11,-530.462 1332.73,-532.592 1335.2,-528.243 1335.2,-528.243 1335.2,-528.243 1332.73,-532.592 1331.28,-526.023 1330.26,-536.942 1330.26,-536.942"/>
</g>
<!-- Register&#45;&gt;Production -->
<g id="edge51" class="edge"><title>Register&#45;&gt;Production</title>
<path fill="none" stroke="#94013c" d="M890.105,-620.69C888.442,-512.44 888.05,-374.119 889.306,-281.584"/>
<polygon fill="#94013c" stroke="#94013c" points="890.106,-620.769 885.765,-630.839 890.185,-625.768 890.265,-630.768 890.265,-630.768 890.265,-630.768 890.185,-625.768 894.764,-630.696 890.106,-620.769 890.106,-620.769"/>
<polygon fill="#94013c" stroke="#94013c" points="889.309,-281.373 893.954,-271.44 889.382,-276.374 889.454,-271.374 889.454,-271.374 889.454,-271.374 889.382,-276.374 884.955,-271.309 889.309,-281.373 889.309,-281.373"/>
</g>
<!-- Register&#45;&gt;PaperTrail::Version -->
<g id="edge44" class="edge"><title>Register&#45;&gt;PaperTrail::Version</title>
<path fill="none" stroke="#f27f91" d="M1001.84,-659.809C1015.45,-638.278 1027.57,-615.298 1036,-592 1081.8,-465.479 1045.27,-424.015 1057.34,-290 1065.39,-200.598 1077.79,-94.9234 1083.68,-46.1555"/>
<ellipse fill="none" stroke="#f27f91" cx="999.535" cy="-663.384" rx="4.00002" ry="4.00002"/>
<polygon fill="#f27f91" stroke="#f27f91" points="1083.69,-46.026 1089.36,-36.6404 1084.3,-41.0623 1084.9,-36.0987 1084.9,-36.0987 1084.9,-36.0987 1084.3,-41.0623 1080.43,-35.5569 1083.69,-46.026 1083.69,-46.026"/>
<text text-anchor="middle" x="1081.33" y="-292.8" font-family="Times,serif" font-size="14.00">versions</text>
</g>
<!-- Aggregate -->
<g id="node29" class="node"><title>Aggregate</title>
<ellipse fill="none" stroke="black" cx="981" cy="-457" rx="46.4046" ry="18"/>
<text text-anchor="middle" x="981" y="-452.8" font-family="Times,serif" font-size="14.00">Aggregate</text>
</g>
<!-- Register&#45;&gt;Aggregate -->
<g id="edge45" class="edge"><title>Register&#45;&gt;Aggregate</title>
<path fill="none" stroke="#51ea38" d="M938.713,-622.618C952.332,-569.599 965.992,-516.424 973.963,-485.394"/>
<ellipse fill="none" stroke="#51ea38" cx="937.658" cy="-626.723" rx="4.00001" ry="4.00001"/>
<polygon fill="#51ea38" stroke="#51ea38" points="974.048,-485.063 980.894,-476.498 975.292,-480.221 976.536,-475.378 976.536,-475.378 976.536,-475.378 975.292,-480.221 972.177,-474.258 974.048,-485.063 974.048,-485.063"/>
</g>
<!-- Holder -->
<g id="node30" class="node"><title>Holder</title>
<ellipse fill="none" stroke="black" cx="753" cy="-457" rx="34.495" ry="18"/>
<text text-anchor="middle" x="753" y="-452.8" font-family="Times,serif" font-size="14.00">Holder</text>
</g>
<!-- Register&#45;&gt;Holder -->
<g id="edge47" class="edge"><title>Register&#45;&gt;Holder</title>
<path fill="none" stroke="#f1aaba" d="M810.979,-623.585C806.07,-612.98 801.364,-602.389 797,-592 781.781,-555.768 768.351,-512.297 760.448,-484.906"/>
<ellipse fill="none" stroke="#f1aaba" cx="812.716" cy="-627.302" rx="4.00002" ry="4.00002"/>
<polygon fill="#f1aaba" stroke="#f1aaba" points="760.435,-484.861 762.026,-474.011 759.066,-480.052 757.697,-475.243 757.697,-475.243 757.697,-475.243 759.066,-480.052 753.369,-476.475 760.435,-484.861 760.435,-484.861"/>
</g>
<!-- Son -->
<g id="node31" class="node"><title>Son</title>
<ellipse fill="none" stroke="black" cx="833" cy="-457" rx="27" ry="18"/>
<text text-anchor="middle" x="833" y="-452.8" font-family="Times,serif" font-size="14.00">Son</text>
</g>
<!-- Register&#45;&gt;Son -->
<g id="edge49" class="edge"><title>Register&#45;&gt;Son</title>
<path fill="none" stroke="#1db89e" d="M865.21,-622.575C854.778,-569.273 844.316,-515.819 838.26,-484.873"/>
<ellipse fill="none" stroke="#1db89e" cx="866.012" cy="-626.671" rx="4.00001" ry="4.00001"/>
<polygon fill="#1db89e" stroke="#1db89e" points="838.229,-484.717 840.724,-474.039 837.269,-479.81 836.308,-474.903 836.308,-474.903 836.308,-474.903 837.269,-479.81 831.892,-475.767 838.229,-484.717 838.229,-484.717"/>
</g>
<!-- Role -->
<g id="node21" class="node"><title>Role</title>
<path fill="none" stroke="black" d="M946.102,-2195C946.102,-2195 1055.9,-2195 1055.9,-2195 1061.9,-2195 1067.9,-2201 1067.9,-2207 1067.9,-2207 1067.9,-2297 1067.9,-2297 1067.9,-2303 1061.9,-2309 1055.9,-2309 1055.9,-2309 946.102,-2309 946.102,-2309 940.102,-2309 934.102,-2303 934.102,-2297 934.102,-2297 934.102,-2207 934.102,-2207 934.102,-2201 940.102,-2195 946.102,-2195"/>
<text text-anchor="middle" x="1001" y="-2293.8" font-family="Times,serif" font-size="14.00">Role</text>
<polyline fill="none" stroke="black" points="934.102,-2287 1067.9,-2287 "/>
<text text-anchor="start" x="942.102" y="-2271.8" font-family="Times,serif" font-size="14.00">id :integer</text>
<text text-anchor="start" x="942.102" y="-2257.8" font-family="Times,serif" font-size="14.00">name :string</text>
<text text-anchor="start" x="942.102" y="-2243.8" font-family="Times,serif" font-size="14.00">resource_id :integer</text>
<text text-anchor="start" x="942.102" y="-2229.8" font-family="Times,serif" font-size="14.00">resource_type :string</text>
<text text-anchor="start" x="942.102" y="-2215.8" font-family="Times,serif" font-size="14.00">created_at :datetime</text>
<text text-anchor="start" x="942.102" y="-2201.8" font-family="Times,serif" font-size="14.00">updated_at :datetime</text>
</g>
<!-- RolesRunpaModule -->
<g id="node22" class="node"><title>RolesRunpaModule</title>
<path fill="none" stroke="black" d="M1032.49,-1703C1032.49,-1703 1169.51,-1703 1169.51,-1703 1175.51,-1703 1181.51,-1709 1181.51,-1715 1181.51,-1715 1181.51,-1791 1181.51,-1791 1181.51,-1797 1175.51,-1803 1169.51,-1803 1169.51,-1803 1032.49,-1803 1032.49,-1803 1026.49,-1803 1020.49,-1797 1020.49,-1791 1020.49,-1791 1020.49,-1715 1020.49,-1715 1020.49,-1709 1026.49,-1703 1032.49,-1703"/>
<text text-anchor="middle" x="1101" y="-1787.8" font-family="Times,serif" font-size="14.00">RolesRunpaModule</text>
<polyline fill="none" stroke="black" points="1020.49,-1781 1181.51,-1781 "/>
<text text-anchor="start" x="1028.49" y="-1765.8" font-family="Times,serif" font-size="14.00">id :integer</text>
<text text-anchor="start" x="1028.49" y="-1751.8" font-family="Times,serif" font-size="14.00">role_id :integer</text>
<text text-anchor="start" x="1028.49" y="-1737.8" font-family="Times,serif" font-size="14.00">runpa_module_id :integer</text>
<text text-anchor="start" x="1028.49" y="-1723.8" font-family="Times,serif" font-size="14.00">created_at :datetime</text>
<text text-anchor="start" x="1028.49" y="-1709.8" font-family="Times,serif" font-size="14.00">updated_at :datetime</text>
</g>
<!-- Role&#45;&gt;RolesRunpaModule -->
<g id="edge55" class="edge"><title>Role&#45;&gt;RolesRunpaModule</title>
<path fill="none" stroke="#bcb3e6" d="M1026.87,-2187.26C1043.63,-2143.25 1064.41,-2082.97 1076,-2028 1091.39,-1954.96 1097.31,-1868.99 1099.58,-1813.09"/>
<ellipse fill="none" stroke="#bcb3e6" cx="1025.44" cy="-2190.99" rx="4.00001" ry="4.00001"/>
<polygon fill="#bcb3e6" stroke="#bcb3e6" points="1099.59,-1813.01 1104.46,-1803.19 1099.78,-1808.01 1099.97,-1803.02 1099.97,-1803.02 1099.97,-1803.02 1099.78,-1808.01 1095.47,-1802.84 1099.59,-1813.01 1099.59,-1813.01"/>
</g>
<!-- RunpaModule -->
<g id="node23" class="node"><title>RunpaModule</title>
<path fill="none" stroke="black" d="M946.495,-1934C946.495,-1934 1055.51,-1934 1055.51,-1934 1061.51,-1934 1067.51,-1940 1067.51,-1946 1067.51,-1946 1067.51,-2008 1067.51,-2008 1067.51,-2014 1061.51,-2020 1055.51,-2020 1055.51,-2020 946.495,-2020 946.495,-2020 940.495,-2020 934.495,-2014 934.495,-2008 934.495,-2008 934.495,-1946 934.495,-1946 934.495,-1940 940.495,-1934 946.495,-1934"/>
<text text-anchor="middle" x="1001" y="-2004.8" font-family="Times,serif" font-size="14.00">RunpaModule</text>
<polyline fill="none" stroke="black" points="934.495,-1998 1067.51,-1998 "/>
<text text-anchor="start" x="942.495" y="-1982.8" font-family="Times,serif" font-size="14.00">id :integer</text>
<text text-anchor="start" x="942.495" y="-1968.8" font-family="Times,serif" font-size="14.00">name :string</text>
<text text-anchor="start" x="942.495" y="-1954.8" font-family="Times,serif" font-size="14.00">created_at :datetime</text>
<text text-anchor="start" x="942.495" y="-1940.8" font-family="Times,serif" font-size="14.00">updated_at :datetime</text>
</g>
<!-- Role&#45;&gt;RunpaModule -->
<g id="edge56" class="edge"><title>Role&#45;&gt;RunpaModule</title>
<path fill="none" stroke="#62519c" d="M1001,-2184.46C1001,-2137.1 1001,-2074.33 1001,-2030.48"/>
<polygon fill="#62519c" stroke="#62519c" points="1001,-2184.77 996.5,-2194.77 1001,-2189.77 1001,-2194.77 1001,-2194.77 1001,-2194.77 1001,-2189.77 1005.5,-2194.77 1001,-2184.77 1001,-2184.77"/>
<polygon fill="#62519c" stroke="#62519c" points="1001,-2030.32 1005.5,-2020.32 1001,-2025.32 1001,-2020.32 1001,-2020.32 1001,-2020.32 1001,-2025.32 996.5,-2020.32 1001,-2030.32 1001,-2030.32"/>
</g>
<!-- Role&#45;&gt;User -->
<g id="edge54" class="edge"><title>Role&#45;&gt;User</title>
<path fill="none" stroke="#8f0086" d="M995.659,-2184.73C990.324,-2133.32 980.494,-2067.32 964,-2046 952.318,-2030.9 936.01,-2043.6 925,-2028 909.732,-2006.37 902.999,-1952.1 900.272,-1897.51"/>
<polygon fill="#8f0086" stroke="#8f0086" points="995.671,-2184.85 992.189,-2195.25 996.169,-2189.83 996.667,-2194.8 996.667,-2194.8 996.667,-2194.8 996.169,-2189.83 1001.14,-2194.35 995.671,-2184.85 995.671,-2184.85"/>
<polygon fill="#8f0086" stroke="#8f0086" points="900.263,-1897.31 904.304,-1887.11 900.036,-1892.31 899.808,-1887.32 899.808,-1887.32 899.808,-1887.32 900.036,-1892.31 895.313,-1887.52 900.263,-1897.31 900.263,-1897.31"/>
</g>
<!-- RunpaModule&#45;&gt;RolesRunpaModule -->
<g id="edge59" class="edge"><title>RunpaModule&#45;&gt;RolesRunpaModule</title>
<path fill="none" stroke="#da7797" d="M1023.36,-1926.35C1038.55,-1892.64 1058.7,-1847.91 1074.66,-1812.47"/>
<ellipse fill="none" stroke="#da7797" cx="1021.57" cy="-1930.34" rx="4.00002" ry="4.00002"/>
<polygon fill="#da7797" stroke="#da7797" points="1074.73,-1812.32 1082.94,-1805.05 1076.78,-1807.76 1078.84,-1803.2 1078.84,-1803.2 1078.84,-1803.2 1076.78,-1807.76 1074.73,-1801.36 1074.73,-1812.32 1074.73,-1812.32"/>
</g>
<!-- RunpaModule&#45;&gt;User -->
<g id="edge60" class="edge"><title>RunpaModule&#45;&gt;User</title>
<path fill="none" stroke="#73c912" d="M977.609,-1924.59C973.586,-1915.74 969.237,-1906.18 964.722,-1896.26"/>
<polygon fill="#73c912" stroke="#73c912" points="977.743,-1924.88 977.788,-1935.85 979.813,-1929.43 981.884,-1933.98 981.884,-1933.98 981.884,-1933.98 979.813,-1929.43 985.98,-1932.12 977.743,-1924.88 977.743,-1924.88"/>
<polygon fill="#73c912" stroke="#73c912" points="964.676,-1896.16 964.631,-1885.19 962.605,-1891.61 960.535,-1887.06 960.535,-1887.06 960.535,-1887.06 962.605,-1891.61 956.439,-1888.92 964.676,-1896.16 964.676,-1896.16"/>
</g>
<!-- User&#45;&gt;Community -->
<g id="edge66" class="edge"><title>User&#45;&gt;Community</title>
<path fill="none" stroke="#689e47" d="M907.747,-1608.81C907.839,-1605.85 907.923,-1602.91 908,-1600 910.08,-1520.92 909.847,-1501.09 908,-1422 907.692,-1408.81 907.171,-1394.72 906.579,-1381.24"/>
<polygon fill="#689e47" stroke="#689e47" points="907.741,-1608.97 902.909,-1618.82 907.574,-1613.97 907.406,-1618.97 907.406,-1618.97 907.406,-1618.97 907.574,-1613.97 911.904,-1619.12 907.741,-1608.97 907.741,-1608.97"/>
<polygon fill="#689e47" stroke="#689e47" points="906.571,-1381.06 910.609,-1370.86 906.342,-1376.07 906.114,-1371.07 906.114,-1371.07 906.114,-1371.07 906.342,-1376.07 901.619,-1371.28 906.571,-1381.06 906.571,-1381.06"/>
</g>
<!-- User&#45;&gt;Profile -->
<g id="edge62" class="edge"><title>User&#45;&gt;Profile</title>
<path fill="none" stroke="#5d081f" d="M1009.38,-1618.93C1009.92,-1618.62 1010.46,-1618.31 1011,-1618 1058.36,-1591.3 1083.08,-1623.73 1132,-1600 1142.8,-1594.76 1153.24,-1588 1163.06,-1580.48"/>
<ellipse fill="none" stroke="#5d081f" cx="1005.85" cy="-1621.1" rx="4.00002" ry="4.00002"/>
<ellipse fill="#5d081f" stroke="#5d081f" cx="1166.29" cy="-1577.92" rx="4.00002" ry="4.00002"/>
</g>
<!-- User&#45;&gt;Province -->
<g id="edge65" class="edge"><title>User&#45;&gt;Province</title>
<path fill="none" stroke="#fa1a8e" d="M839.547,-1609.42C833.357,-1594.82 827.305,-1580.55 821.739,-1567.42"/>
<polygon fill="#fa1a8e" stroke="#fa1a8e" points="839.682,-1609.74 839.443,-1620.7 841.634,-1614.35 843.586,-1618.95 843.586,-1618.95 843.586,-1618.95 841.634,-1614.35 847.729,-1617.19 839.682,-1609.74 839.682,-1609.74"/>
<polygon fill="#fa1a8e" stroke="#fa1a8e" points="821.68,-1567.28 821.919,-1556.32 819.728,-1562.68 817.776,-1558.08 817.776,-1558.08 817.776,-1558.08 819.728,-1562.68 813.633,-1559.83 821.68,-1567.28 821.68,-1567.28"/>
</g>
<!-- User&#45;&gt;RegionsUser -->
<g id="edge64" class="edge"><title>User&#45;&gt;RegionsUser</title>
<path fill="none" stroke="#cee2c1" d="M898.103,-1610.69C895.292,-1537 888.779,-1455.4 874,-1422 861.66,-1394.11 842.026,-1398.54 827,-1372 816.746,-1353.89 786.272,-1240.35 766.877,-1165.8"/>
<ellipse fill="none" stroke="#cee2c1" cx="898.25" cy="-1614.72" rx="4" ry="4"/>
<polygon fill="#cee2c1" stroke="#cee2c1" points="766.848,-1165.69 768.69,-1154.88 765.591,-1160.85 764.335,-1156.01 764.335,-1156.01 764.335,-1156.01 765.591,-1160.85 759.979,-1157.14 766.848,-1165.69 766.848,-1165.69"/>
</g>
<!-- User&#45;&gt;Register -->
<g id="edge63" class="edge"><title>User&#45;&gt;Register</title>
<path fill="none" stroke="#f040b0" d="M1001,-1611.43C1017.32,-1577.23 1029,-1539.62 1029,-1502 1029,-1502 1029,-1502 1029,-1098 1029,-1047.93 1014.32,-996.666 994.753,-950.577"/>
<ellipse fill="none" stroke="#f040b0" cx="999.204" cy="-1615.09" rx="4.00002" ry="4.00002"/>
<polygon fill="#f040b0" stroke="#f040b0" points="994.632,-950.297 994.769,-939.332 992.637,-945.712 990.643,-941.127 990.643,-941.127 990.643,-941.127 992.637,-945.712 986.516,-942.922 994.632,-950.297 994.632,-950.297"/>
</g>
<!-- User&#45;&gt;PaperTrail::Version -->
<g id="edge67" class="edge"><title>User&#45;&gt;PaperTrail::Version</title>
<path fill="none" stroke="#7e0c8b" d="M1007.86,-1621.6C1008.91,-1620.4 1009.96,-1619.19 1011,-1618 1057.17,-1565.2 1118,-1572.14 1118,-1502 1118,-1502 1118,-1502 1118,-178 1118,-130.75 1104.65,-77.0363 1095.47,-45.694"/>
<ellipse fill="none" stroke="#7e0c8b" cx="1005.2" cy="-1624.67" rx="4.00002" ry="4.00002"/>
<polygon fill="#7e0c8b" stroke="#7e0c8b" points="1095.42,-45.5401 1096.85,-34.6676 1093.98,-40.7521 1092.54,-35.9641 1092.54,-35.9641 1092.54,-35.9641 1093.98,-40.7521 1088.23,-37.2606 1095.42,-45.5401 1095.42,-45.5401"/>
<text text-anchor="middle" x="1141.33" y="-962.8" font-family="Times,serif" font-size="14.00">versions</text>
</g>
<!-- Object -->
<g id="node25" class="node"><title>Object</title>
<ellipse fill="none" stroke="black" cx="258" cy="-2399" rx="33.5181" ry="18"/>
<text text-anchor="middle" x="258" y="-2394.8" font-family="Times,serif" font-size="14.00">Object</text>
</g>
<!-- Object&#45;&gt;Ability -->
<g id="edge1" class="edge"><title>Object&#45;&gt;Ability</title>
<path fill="none" stroke="black" d="M258,-2380.8C258,-2354.24 258,-2303.31 258,-2274.41"/>
</g>
<!-- ActiveRecord::Base -->
<g id="node27" class="node"><title>ActiveRecord::Base</title>
<ellipse fill="none" stroke="black" cx="1134" cy="-2399" rx="80.9821" ry="18"/>
<text text-anchor="middle" x="1134" y="-2394.8" font-family="Times,serif" font-size="14.00">ActiveRecord::Base</text>
</g>
<!-- ActiveRecord::Base&#45;&gt;Capital -->
<g id="edge4" class="edge"><title>ActiveRecord::Base&#45;&gt;Capital</title>
<path fill="none" stroke="black" d="M1052.62,-2398.59C902.059,-2398.49 586.594,-2392.29 490,-2344 479.406,-2338.7 469.57,-2331.37 460.669,-2323.14"/>
</g>
<!-- ActiveRecord::Base&#45;&gt;CivilStatus -->
<g id="edge5" class="edge"><title>ActiveRecord::Base&#45;&gt;CivilStatus</title>
<path fill="none" stroke="black" d="M1180.08,-2384.16C1205.65,-2375.15 1237.19,-2361.76 1262,-2344 1278.17,-2332.43 1293.38,-2317.08 1306.16,-2302.3"/>
</g>
<!-- ActiveRecord::Base&#45;&gt;Community -->
<g id="edge10" class="edge"><title>ActiveRecord::Base&#45;&gt;Community</title>
<path fill="none" stroke="black" d="M1138.44,-2380.59C1140.98,-2370.06 1144.04,-2356.33 1146,-2344 1171.34,-2184.37 1249.82,-1768.15 1190,-1618 1183.87,-1602.6 1039.84,-1454.39 958.205,-1371.11"/>
</g>
<!-- ActiveRecord::Base&#45;&gt;Department -->
<g id="edge17" class="edge"><title>ActiveRecord::Base&#45;&gt;Department</title>
<path fill="none" stroke="black" d="M1052.97,-2396.92C954.985,-2393.87 797.935,-2382.87 756,-2344 667.459,-2261.94 664.704,-2106.63 669.901,-2027.31"/>
</g>
<!-- ActiveRecord::Base&#45;&gt;EconomicActivity -->
<g id="edge18" class="edge"><title>ActiveRecord::Base&#45;&gt;EconomicActivity</title>
<path fill="none" stroke="black" d="M1211.79,-2393.71C1310.62,-2387.18 1474.77,-2372.38 1528,-2344 1546.66,-2334.05 1563.11,-2317.99 1576.21,-2302.11"/>
</g>
<!-- ActiveRecord::Base&#45;&gt;Education -->
<g id="edge19" class="edge"><title>ActiveRecord::Base&#45;&gt;Education</title>
<path fill="none" stroke="black" d="M1211.47,-2393.46C1342.61,-2384.81 1602.1,-2363.22 1684,-2324 1695.4,-2318.54 1706.25,-2310.76 1715.99,-2302.33"/>
</g>
<!-- ActiveRecord::Base&#45;&gt;Entity -->
<g id="edge21" class="edge"><title>ActiveRecord::Base&#45;&gt;Entity</title>
<path fill="none" stroke="black" d="M1060.94,-2391.08C1014.93,-2382.74 958.172,-2364.37 925,-2324 887.8,-2278.72 883.565,-2209.68 886.221,-2161.24"/>
</g>
<!-- ActiveRecord::Base&#45;&gt;Land -->
<g id="edge25" class="edge"><title>ActiveRecord::Base&#45;&gt;Land</title>
<path fill="none" stroke="black" d="M1052.83,-2397.62C909.134,-2395.4 617.627,-2383.46 538,-2324 509.967,-2303.07 504,-2287.99 504,-2253 504,-2253 504,-2253 504,-785 504,-720.266 517.279,-649.89 532.27,-591.065"/>
</g>
<!-- ActiveRecord::Base&#45;&gt;Partnership -->
<g id="edge28" class="edge"><title>ActiveRecord::Base&#45;&gt;Partnership</title>
<path fill="none" stroke="black" d="M1203.22,-2389.55C1278.49,-2378.78 1391.62,-2357.46 1418,-2324 1474.56,-2252.27 1434,-1593.35 1434,-1502 1434,-1502 1434,-1502 1434,-1230 1434,-1123.54 1431.34,-1095.64 1407,-992 1364.82,-812.437 1280.75,-610.27 1238.49,-514.334"/>
</g>
<!-- ActiveRecord::Base&#45;&gt;PartnershipsRegister -->
<g id="edge29" class="edge"><title>ActiveRecord::Base&#45;&gt;PartnershipsRegister</title>
<path fill="none" stroke="black" d="M1213.97,-2395.61C1373.48,-2389.87 1725.27,-2372.01 1835,-2324 1847.16,-2318.68 1858.81,-2310.85 1869.29,-2302.31"/>
</g>
<!-- ActiveRecord::Base&#45;&gt;PeopleRegister -->
<g id="edge31" class="edge"><title>ActiveRecord::Base&#45;&gt;PeopleRegister</title>
<path fill="none" stroke="black" d="M1207.6,-2391.38C1291.55,-2382.91 1422.88,-2366.58 1467,-2344 1507.52,-2323.26 1514,-2298.52 1514,-2253 1514,-2253 1514,-2253 1514,-785 1514,-732.5 1449.88,-607.445 1406.05,-528.091"/>
</g>
<!-- ActiveRecord::Base&#45;&gt;Person -->
<g id="edge35" class="edge"><title>ActiveRecord::Base&#45;&gt;Person</title>
<path fill="none" stroke="black" d="M1212.3,-2394.25C1294.91,-2388.67 1417.8,-2375.27 1452,-2344 1482.87,-2315.78 1476,-2294.83 1476,-2253 1476,-2253 1476,-2253 1476,-1906 1476,-1647.68 1374.59,-1357.14 1313.39,-1205.32"/>
</g>
<!-- ActiveRecord::Base&#45;&gt;Production -->
<g id="edge38" class="edge"><title>ActiveRecord::Base&#45;&gt;Production</title>
<path fill="none" stroke="black" d="M1053.84,-2395.86C861.635,-2390.01 386.425,-2370.9 333,-2324 308.452,-2302.45 314,-2285.67 314,-2253 314,-2253 314,-2253 314,-1230 314,-1128.17 366.748,-394.743 438,-322 537.805,-220.106 622.05,-323.652 755,-272 756.484,-271.424 757.968,-270.83 759.451,-270.219"/>
</g>
<!-- ActiveRecord::Base&#45;&gt;Profile -->
<g id="edge39" class="edge"><title>ActiveRecord::Base&#45;&gt;Profile</title>
<path fill="none" stroke="black" d="M1172.55,-2383.05C1190.62,-2374.23 1210.98,-2361.34 1224,-2344 1249.12,-2310.55 1248,-2294.83 1248,-2253 1248,-2253 1248,-2253 1248,-1752 1248,-1693.99 1244.74,-1628.5 1241.61,-1579.1"/>
</g>
<!-- ActiveRecord::Base&#45;&gt;Province -->
<g id="edge42" class="edge"><title>ActiveRecord::Base&#45;&gt;Province</title>
<path fill="none" stroke="black" d="M1055.06,-2394.67C987.98,-2388.44 891.738,-2371.18 822,-2324 789.604,-2302.08 770,-2292.11 770,-2253 770,-2253 770,-2253 770,-1752 770,-1685.29 778.573,-1609.02 785.471,-1558.45"/>
</g>
<!-- ActiveRecord::Base&#45;&gt;RegionsUser -->
<g id="edge43" class="edge"><title>ActiveRecord::Base&#45;&gt;RegionsUser</title>
<path fill="none" stroke="black" d="M1054.77,-2395.08C893.46,-2386.98 542,-2357.36 542,-2253 542,-2253 542,-2253 542,-1906 542,-1687.2 491.391,-1589.64 632,-1422 646.642,-1404.54 664.991,-1421.14 680,-1404 684.125,-1399.29 718.844,-1242.63 737.785,-1156.09"/>
</g>
<!-- ActiveRecord::Base&#45;&gt;Register -->
<g id="edge53" class="edge"><title>ActiveRecord::Base&#45;&gt;Register</title>
<path fill="none" stroke="black" d="M1145.37,-2381.08C1154.64,-2366.54 1167.42,-2344.68 1175,-2324 1243.03,-2138.48 1226.51,-2082.39 1262,-1888 1298.04,-1690.57 1485.46,-1159.56 1375,-992 1291.38,-865.158 1111.21,-816.495 997.511,-798.037"/>
</g>
<!-- ActiveRecord::Base&#45;&gt;Role -->
<g id="edge57" class="edge"><title>ActiveRecord::Base&#45;&gt;Role</title>
<path fill="none" stroke="black" d="M1117.43,-2381.14C1107.13,-2370.57 1093.67,-2356.61 1082,-2344 1071.65,-2332.83 1060.72,-2320.74 1050.35,-2309.14"/>
</g>
<!-- ActiveRecord::Base&#45;&gt;RolesRunpaModule -->
<g id="edge58" class="edge"><title>ActiveRecord::Base&#45;&gt;RolesRunpaModule</title>
<path fill="none" stroke="black" d="M1133.12,-2380.77C1128.85,-2297.56 1110.32,-1935.8 1103.51,-1803.07"/>
</g>
<!-- ActiveRecord::Base&#45;&gt;RunpaModule -->
<g id="edge61" class="edge"><title>ActiveRecord::Base&#45;&gt;RunpaModule</title>
<path fill="none" stroke="black" d="M1129.57,-2380.97C1117.1,-2333.1 1082.21,-2199.55 1076,-2180 1058.21,-2124.03 1034.03,-2060.73 1017.99,-2020.15"/>
</g>
<!-- ActiveRecord::Base&#45;&gt;User -->
<g id="edge68" class="edge"><title>ActiveRecord::Base&#45;&gt;User</title>
<path fill="none" stroke="black" d="M1055.91,-2393.86C1000.62,-2386.91 928.336,-2369.06 882,-2324 826.957,-2270.47 835.546,-2237.58 822,-2162 805.524,-2070.07 825.676,-1966.75 849.616,-1887.08"/>
</g>
<!-- ActiveAdmin::Component -->
<g id="node28" class="node"><title>ActiveAdmin::Component</title>
<ellipse fill="none" stroke="black" cx="2042" cy="-2399" rx="104.141" ry="18"/>
<text text-anchor="middle" x="2042" y="-2394.8" font-family="Times,serif" font-size="14.00">ActiveAdmin::Component</text>
</g>
<!-- ActiveAdmin::Component&#45;&gt;MyFooter -->
<g id="edge26" class="edge"><title>ActiveAdmin::Component&#45;&gt;MyFooter</title>
<path fill="none" stroke="black" d="M2042,-2380.8C2042,-2354.24 2042,-2303.31 2042,-2274.41"/>
</g>
</g>
</svg>
