<?xml version="1.0" encoding="UTF-8" standalone="no"?>
<!DOCTYPE svg PUBLIC "-//W3C//DTD SVG 1.1//EN"
 "http://www.w3.org/Graphics/SVG/1.1/DTD/svg11.dtd">
<!-- Generated by graphviz version 2.36.0 (20140111.2315)
 -->
<!-- Title: models_diagram Pages: 1 -->
<svg width="1999pt" height="916pt"
 viewBox="0.00 0.00 1999.00 916.00" xmlns="http://www.w3.org/2000/svg" xmlns:xlink="http://www.w3.org/1999/xlink">
<g id="graph0" class="graph" transform="scale(1 1) rotate(0) translate(4 912)">
<title>models_diagram</title>
<polygon fill="white" stroke="none" points="-4,4 -4,-912 1995,-912 1995,4 -4,4"/>
<!-- _diagram_info -->
<g id="node1" class="node"><title>_diagram_info</title>
<text text-anchor="start" x="7.31226" y="-893.1" font-family="Times,serif" font-size="13.00">Models diagram</text>
<text text-anchor="start" x="7.31226" y="-880.1" font-family="Times,serif" font-size="13.00">Date: Apr 03 2014 &#45; 12:37</text>
<text text-anchor="start" x="7.31226" y="-867.1" font-family="Times,serif" font-size="13.00">Migration version: 20140324134912</text>
<text text-anchor="start" x="7.31226" y="-854.1" font-family="Times,serif" font-size="13.00">Generated by RailRoady 1.1.1</text>
<text text-anchor="start" x="7.31226" y="-841.1" font-family="Times,serif" font-size="13.00">http://railroady.prestonlee.com</text>
</g>
<!-- Ability -->
<g id="node2" class="node"><title>Ability</title>
<polygon fill="none" stroke="black" points="285.255,-796 230.745,-796 230.745,-760 285.255,-760 285.255,-796"/>
<text text-anchor="middle" x="258" y="-773.8" font-family="Times,serif" font-size="14.00">Ability</text>
</g>
<!-- Capital -->
<g id="node3" class="node"><title>Capital</title>
<ellipse fill="none" stroke="black" cx="420" cy="-778" rx="35.4718" ry="18"/>
<text text-anchor="middle" x="420" y="-773.8" font-family="Times,serif" font-size="14.00">Capital</text>
</g>
<!-- Register -->
<g id="node20" class="node"><title>Register</title>
<ellipse fill="none" stroke="black" cx="811" cy="-264" rx="39.3663" ry="18"/>
<text text-anchor="middle" x="811" y="-259.8" font-family="Times,serif" font-size="14.00">Register</text>
</g>
<!-- Capital&#45;&gt;Register -->
<g id="edge3" class="edge"><title>Capital&#45;&gt;Register</title>
<path fill="none" stroke="#0a87a7" d="M419.136,-751.942C422.157,-730.577 428,-698.971 428,-671 428,-671 428,-671 428,-558 428,-483.511 574.392,-331.27 642,-300 680.706,-282.098 728.975,-273.159 764.127,-268.825"/>
<ellipse fill="none" stroke="#0a87a7" cx="418.619" cy="-755.91" rx="4.00001" ry="4.00001"/>
<ellipse fill="#0a87a7" stroke="#0a87a7" cx="768.344" cy="-268.333" rx="4.00001" ry="4.00001"/>
</g>
<!-- PaperTrail::Version -->
<g id="node26" class="node"><title>PaperTrail::Version</title>
<ellipse fill="none" stroke="black" cx="982" cy="-18" rx="79.0809" ry="18"/>
<text text-anchor="middle" x="982" y="-13.8" font-family="Times,serif" font-size="14.00">PaperTrail::Version</text>
</g>
<!-- Capital&#45;&gt;PaperTrail::Version -->
<g id="edge2" class="edge"><title>Capital&#45;&gt;PaperTrail::Version</title>
<path fill="none" stroke="#11a730" d="M396.586,-756.334C376.918,-736.587 352,-704.882 352,-671 352,-671 352,-671 352,-392 352,-318.846 338,-301.154 338,-228 338,-228 338,-228 338,-103 338,-47.5936 717.658,-27.7497 893.964,-21.5216"/>
<ellipse fill="none" stroke="#11a730" cx="399.619" cy="-759.28" rx="4.00002" ry="4.00002"/>
<polygon fill="#11a730" stroke="#11a730" points="894.004,-21.5204 904.154,-25.6715 899.001,-21.3473 903.998,-21.1742 903.998,-21.1742 903.998,-21.1742 899.001,-21.3473 903.842,-16.6768 894.004,-21.5204 894.004,-21.5204"/>
<text text-anchor="middle" x="375.331" y="-388.8" font-family="Times,serif" font-size="14.00">versions</text>
</g>
<!-- CivilStatus -->
<g id="node4" class="node"><title>CivilStatus</title>
<ellipse fill="none" stroke="black" cx="1208" cy="-778" rx="49.1287" ry="18"/>
<text text-anchor="middle" x="1208" y="-773.8" font-family="Times,serif" font-size="14.00">CivilStatus</text>
</g>
<!-- Community -->
<g id="node5" class="node"><title>Community</title>
<ellipse fill="none" stroke="black" cx="851" cy="-436" rx="52.0464" ry="18"/>
<text text-anchor="middle" x="851" y="-431.8" font-family="Times,serif" font-size="14.00">Community</text>
</g>
<!-- Land -->
<g id="node10" class="node"><title>Land</title>
<ellipse fill="none" stroke="black" cx="567" cy="-190" rx="27.9189" ry="18"/>
<text text-anchor="middle" x="567" y="-185.8" font-family="Times,serif" font-size="14.00">Land</text>
</g>
<!-- Community&#45;&gt;Land -->
<g id="edge9" class="edge"><title>Community&#45;&gt;Land</title>
<path fill="none" stroke="#8bc954" d="M834.078,-411.793C817.535,-389.924 790.969,-356.889 764,-332 709.088,-281.323 635.513,-233.076 595.626,-208.293"/>
<ellipse fill="none" stroke="#8bc954" cx="836.48" cy="-414.999" rx="4.00002" ry="4.00002"/>
<polygon fill="#8bc954" stroke="#8bc954" points="595.455,-208.188 589.305,-199.109 591.199,-205.564 586.943,-202.939 586.943,-202.939 586.943,-202.939 591.199,-205.564 584.581,-206.769 595.455,-208.188 595.455,-208.188"/>
</g>
<!-- Person -->
<g id="node15" class="node"><title>Person</title>
<ellipse fill="none" stroke="black" cx="1185" cy="-350" rx="34.2708" ry="18"/>
<text text-anchor="middle" x="1185" y="-345.8" font-family="Times,serif" font-size="14.00">Person</text>
</g>
<!-- Community&#45;&gt;Person -->
<g id="edge7" class="edge"><title>Community&#45;&gt;Person</title>
<path fill="none" stroke="#7656e0" d="M899.786,-422.731C966.078,-406.058 1083.38,-376.558 1144.86,-361.096"/>
<ellipse fill="none" stroke="#7656e0" cx="895.834" cy="-423.724" rx="4.00001" ry="4.00001"/>
<polygon fill="#7656e0" stroke="#7656e0" points="1144.89,-361.088 1155.68,-363.013 1149.74,-359.869 1154.59,-358.649 1154.59,-358.649 1154.59,-358.649 1149.74,-359.869 1153.49,-354.285 1144.89,-361.088 1144.89,-361.088"/>
<text text-anchor="middle" x="1072.99" y="-388.8" font-family="Times,serif" font-size="14.00">people_born</text>
</g>
<!-- RegionsUser -->
<g id="node19" class="node"><title>RegionsUser</title>
<ellipse fill="none" stroke="black" cx="700" cy="-350" rx="55.1907" ry="18"/>
<text text-anchor="middle" x="700" y="-345.8" font-family="Times,serif" font-size="14.00">RegionsUser</text>
</g>
<!-- Community&#45;&gt;RegionsUser -->
<g id="edge6" class="edge"><title>Community&#45;&gt;RegionsUser</title>
<path fill="none" stroke="#2cc527" d="M819.274,-415.687C803.91,-406.485 785.122,-395.45 768,-386 758.398,-380.7 747.913,-375.177 738.114,-370.126"/>
<ellipse fill="none" stroke="#2cc527" cx="823.091" cy="-417.982" rx="4.00002" ry="4.00002"/>
<polygon fill="#2cc527" stroke="#2cc527" points="737.882,-370.007 731.032,-361.445 733.432,-367.729 728.981,-365.45 728.981,-365.45 728.981,-365.45 733.432,-367.729 726.93,-369.456 737.882,-370.007 737.882,-370.007"/>
</g>
<!-- Community&#45;&gt;Register -->
<g id="edge8" class="edge"><title>Community&#45;&gt;Register</title>
<path fill="none" stroke="#d4a3a3" d="M845.093,-409.895C837.681,-378.393 825.018,-324.576 817.387,-292.144"/>
<ellipse fill="none" stroke="#d4a3a3" cx="846.028" cy="-413.87" rx="4.00001" ry="4.00001"/>
<polygon fill="#d4a3a3" stroke="#d4a3a3" points="817.297,-291.763 819.387,-280.998 816.152,-286.896 815.007,-282.029 815.007,-282.029 815.007,-282.029 816.152,-286.896 810.626,-283.06 817.297,-291.763 817.297,-291.763"/>
<text text-anchor="middle" x="887.104" y="-345.8" font-family="Times,serif" font-size="14.00">emission_registers</text>
</g>
<!-- Department -->
<g id="node6" class="node"><title>Department</title>
<ellipse fill="none" stroke="black" cx="642" cy="-670" rx="51.2765" ry="18"/>
<text text-anchor="middle" x="642" y="-665.8" font-family="Times,serif" font-size="14.00">Department</text>
</g>
<!-- Department&#45;&gt;Community -->
<g id="edge12" class="edge"><title>Department&#45;&gt;Community</title>
<path fill="none" stroke="#0bd4ac" d="M648.982,-642.1C660.606,-598.068 683.579,-514.427 693,-504 719.906,-474.22 762.243,-457.229 796.322,-447.814"/>
<polygon fill="#0bd4ac" stroke="#0bd4ac" points="648.957,-642.196 642.065,-650.726 647.687,-647.033 646.418,-651.869 646.418,-651.869 646.418,-651.869 647.687,-647.033 650.77,-653.011 648.957,-642.196 648.957,-642.196"/>
<polygon fill="#0bd4ac" stroke="#0bd4ac" points="796.475,-447.774 807.289,-449.596 801.312,-446.508 806.149,-445.242 806.149,-445.242 806.149,-445.242 801.312,-446.508 805.01,-440.889 796.475,-447.774 796.475,-447.774"/>
</g>
<!-- Department&#45;&gt;Land -->
<g id="edge16" class="edge"><title>Department&#45;&gt;Land</title>
<path fill="none" stroke="#1a5c28" d="M620.023,-646.574C584.159,-607.493 517,-522.851 517,-437 517,-437 517,-437 517,-263 517,-243.154 529.974,-224.844 542.705,-211.655"/>
<ellipse fill="none" stroke="#1a5c28" cx="623.186" cy="-649.965" rx="4.00002" ry="4.00002"/>
<polygon fill="#1a5c28" stroke="#1a5c28" points="542.895,-211.471 553.206,-207.738 546.483,-207.99 550.072,-204.508 550.072,-204.508 550.072,-204.508 546.483,-207.99 546.939,-201.278 542.895,-211.471 542.895,-211.471"/>
</g>
<!-- Province -->
<g id="node18" class="node"><title>Province</title>
<ellipse fill="none" stroke="black" cx="744" cy="-522" rx="41.3136" ry="18"/>
<text text-anchor="middle" x="744" y="-517.8" font-family="Times,serif" font-size="14.00">Province</text>
</g>
<!-- Department&#45;&gt;Province -->
<g id="edge11" class="edge"><title>Department&#45;&gt;Province</title>
<path fill="none" stroke="#f2f430" d="M670.18,-648.082C675.105,-643.735 679.943,-638.958 684,-634 705.364,-607.892 722.737,-573.027 733.19,-549.388"/>
<ellipse fill="none" stroke="#f2f430" cx="667.006" cy="-650.759" rx="4.00002" ry="4.00002"/>
<polygon fill="#f2f430" stroke="#f2f430" points="733.277,-549.186 741.369,-541.785 735.257,-544.594 737.237,-540.003 737.237,-540.003 737.237,-540.003 735.257,-544.594 733.105,-538.221 733.277,-549.186 733.277,-549.186"/>
</g>
<!-- Department&#45;&gt;RegionsUser -->
<g id="edge13" class="edge"><title>Department&#45;&gt;RegionsUser</title>
<path fill="none" stroke="#301ce4" d="M623.524,-645.222C621.895,-640.982 621.142,-636.482 622,-632 635.123,-563.423 661.874,-553.428 680,-486 689.828,-449.439 695.179,-405.923 697.813,-378.379"/>
<ellipse fill="none" stroke="#301ce4" cx="625.426" cy="-648.952" rx="4.00002" ry="4.00002"/>
<polygon fill="#301ce4" stroke="#301ce4" points="697.823,-378.268 703.204,-368.713 698.273,-373.288 698.723,-368.308 698.723,-368.308 698.723,-368.308 698.273,-373.288 694.241,-367.903 697.823,-378.268 697.823,-378.268"/>
</g>
<!-- Department&#45;&gt;Register -->
<g id="edge15" class="edge"><title>Department&#45;&gt;Register</title>
<path fill="none" stroke="#9b4a73" d="M631.811,-644.502C608.254,-583.511 557.702,-423.226 635,-332 666.984,-294.252 722.654,-277.72 762.831,-270.512"/>
<ellipse fill="none" stroke="#9b4a73" cx="633.34" cy="-648.38" rx="4.00001" ry="4.00001"/>
<polygon fill="#9b4a73" stroke="#9b4a73" points="763.08,-270.47 773.682,-273.272 768.013,-269.652 772.945,-268.833 772.945,-268.833 772.945,-268.833 768.013,-269.652 772.209,-264.394 763.08,-270.47 763.08,-270.47"/>
<text text-anchor="middle" x="647.104" y="-474.8" font-family="Times,serif" font-size="14.00">emission_registers</text>
</g>
<!-- User -->
<g id="node24" class="node"><title>User</title>
<ellipse fill="none" stroke="black" cx="836" cy="-596" rx="27" ry="18"/>
<text text-anchor="middle" x="836" y="-591.8" font-family="Times,serif" font-size="14.00">User</text>
</g>
<!-- Department&#45;&gt;User -->
<g id="edge14" class="edge"><title>Department&#45;&gt;User</title>
<path fill="none" stroke="#4d75cb" d="M685.883,-652.714C721.662,-639.435 771.383,-620.982 803.626,-609.015"/>
<polygon fill="#4d75cb" stroke="#4d75cb" points="685.612,-652.814 674.671,-652.075 680.924,-654.554 676.237,-656.294 676.237,-656.294 676.237,-656.294 680.924,-654.554 677.803,-660.512 685.612,-652.814 685.612,-652.814"/>
<polygon fill="#4d75cb" stroke="#4d75cb" points="803.661,-609.002 814.602,-609.741 808.349,-607.262 813.036,-605.523 813.036,-605.523 813.036,-605.523 808.349,-607.262 811.47,-601.304 803.661,-609.002 803.661,-609.002"/>
</g>
<!-- EconomicActivity -->
<g id="node7" class="node"><title>EconomicActivity</title>
<ellipse fill="none" stroke="black" cx="1464" cy="-778" rx="74.415" ry="18"/>
<text text-anchor="middle" x="1464" y="-773.8" font-family="Times,serif" font-size="14.00">EconomicActivity</text>
</g>
<!-- Education -->
<g id="node8" class="node"><title>Education</title>
<ellipse fill="none" stroke="black" cx="1603" cy="-778" rx="45.4404" ry="18"/>
<text text-anchor="middle" x="1603" y="-773.8" font-family="Times,serif" font-size="14.00">Education</text>
</g>
<!-- Entity -->
<g id="node9" class="node"><title>Entity</title>
<ellipse fill="none" stroke="black" cx="807" cy="-724" rx="31.5839" ry="18"/>
<text text-anchor="middle" x="807" y="-719.8" font-family="Times,serif" font-size="14.00">Entity</text>
</g>
<!-- Entity&#45;&gt;User -->
<g id="edge20" class="edge"><title>Entity&#45;&gt;User</title>
<path fill="none" stroke="#8d02a8" d="M809.662,-697.8C811.969,-679.352 815.911,-653.836 822,-632 822.834,-629.008 823.841,-625.922 824.927,-622.879"/>
<ellipse fill="none" stroke="#8d02a8" cx="809.16" cy="-702.018" rx="4.00001" ry="4.00001"/>
<polygon fill="#8d02a8" stroke="#8d02a8" points="824.953,-622.81 832.751,-615.1 826.753,-618.145 828.553,-613.48 828.553,-613.48 828.553,-613.48 826.753,-618.145 824.354,-611.86 824.953,-622.81 824.953,-622.81"/>
</g>
<!-- Land&#45;&gt;Capital -->
<g id="edge23" class="edge"><title>Land&#45;&gt;Capital</title>
<path fill="none" stroke="#4c5656" d="M530.945,-194.557C508.871,-198.625 481.739,-207.341 465,-226 414.492,-282.302 390,-482.363 390,-558 390,-671 390,-671 390,-671 390,-699.068 399.859,-729.791 408.274,-750.9"/>
<ellipse fill="none" stroke="#4c5656" cx="535.178" cy="-193.862" rx="4.00001" ry="4.00001"/>
<polygon fill="#4c5656" stroke="#4c5656" points="408.283,-750.922 407.962,-761.883 410.2,-755.54 412.118,-760.158 412.118,-760.158 412.118,-760.158 410.2,-755.54 416.274,-758.432 408.283,-750.922 408.283,-750.922"/>
</g>
<!-- Production -->
<g id="node16" class="node"><title>Production</title>
<ellipse fill="none" stroke="black" cx="792" cy="-104" rx="48.3777" ry="18"/>
<text text-anchor="middle" x="792" y="-99.8" font-family="Times,serif" font-size="14.00">Production</text>
</g>
<!-- Land&#45;&gt;Production -->
<g id="edge24" class="edge"><title>Land&#45;&gt;Production</title>
<path fill="none" stroke="#c4559f" d="M596.586,-175.127C599.082,-174.042 601.577,-172.986 604,-172 652.168,-152.396 708.477,-132.749 746.824,-119.848"/>
<ellipse fill="none" stroke="#c4559f" cx="592.82" cy="-176.804" rx="4.00002" ry="4.00002"/>
<polygon fill="#c4559f" stroke="#c4559f" points="747.173,-119.732 758.084,-120.823 751.914,-118.144 756.655,-116.556 756.655,-116.556 756.655,-116.556 751.914,-118.144 755.226,-112.289 747.173,-119.732 747.173,-119.732"/>
</g>
<!-- Land&#45;&gt;PaperTrail::Version -->
<g id="edge22" class="edge"><title>Land&#45;&gt;PaperTrail::Version</title>
<path fill="none" stroke="#a83682" d="M585.615,-167.817C607.564,-144.204 646.288,-106.633 687.338,-86 754.497,-52.2439 838.778,-35.286 899.98,-26.8968"/>
<ellipse fill="none" stroke="#a83682" cx="582.844" cy="-170.841" rx="4.00002" ry="4.00002"/>
<polygon fill="#a83682" stroke="#a83682" points="900.066,-26.8854 910.57,-30.0351 905.023,-26.2297 909.98,-25.5739 909.98,-25.5739 909.98,-25.5739 905.023,-26.2297 909.39,-21.1128 900.066,-26.8854 900.066,-26.8854"/>
<text text-anchor="middle" x="711.331" y="-99.8" font-family="Times,serif" font-size="14.00">versions</text>
</g>
<!-- MyFooter -->
<g id="node11" class="node"><title>MyFooter</title>
<polygon fill="none" stroke="black" points="1923,-796 1851,-796 1851,-760 1923,-760 1923,-796"/>
<text text-anchor="middle" x="1887" y="-773.8" font-family="Times,serif" font-size="14.00">MyFooter</text>
</g>
<!-- Partnership -->
<g id="node12" class="node"><title>Partnership</title>
<ellipse fill="none" stroke="black" cx="1091" cy="-190" rx="50.0798" ry="18"/>
<text text-anchor="middle" x="1091" y="-185.8" font-family="Times,serif" font-size="14.00">Partnership</text>
</g>
<!-- Partnership&#45;&gt;PaperTrail::Version -->
<g id="edge27" class="edge"><title>Partnership&#45;&gt;PaperTrail::Version</title>
<path fill="none" stroke="#8ab913" d="M1083.09,-163.886C1073.19,-135.205 1054.19,-87.879 1027,-54 1023.52,-49.6579 1019.39,-45.5341 1015.07,-41.7424"/>
<ellipse fill="none" stroke="#8ab913" cx="1084.47" cy="-168.013" rx="4.00001" ry="4.00001"/>
<polygon fill="#8ab913" stroke="#8ab913" points="1014.94,-41.6297 1010.04,-31.8165 1011.06,-38.4651 1007.19,-35.3004 1007.19,-35.3004 1007.19,-35.3004 1011.06,-38.4651 1004.34,-38.7844 1014.94,-41.6297 1014.94,-41.6297"/>
<text text-anchor="middle" x="1090.33" y="-99.8" font-family="Times,serif" font-size="14.00">versions</text>
</g>
<!-- PartnershipsRegister -->
<g id="node13" class="node"><title>PartnershipsRegister</title>
<ellipse fill="none" stroke="black" cx="1750" cy="-778" rx="82.9487" ry="18"/>
<text text-anchor="middle" x="1750" y="-773.8" font-family="Times,serif" font-size="14.00">PartnershipsRegister</text>
</g>
<!-- PeopleRegister -->
<g id="node14" class="node"><title>PeopleRegister</title>
<ellipse fill="none" stroke="black" cx="1223" cy="-190" rx="63.47" ry="18"/>
<text text-anchor="middle" x="1223" y="-185.8" font-family="Times,serif" font-size="14.00">PeopleRegister</text>
</g>
<!-- PeopleRegister&#45;&gt;PaperTrail::Version -->
<g id="edge30" class="edge"><title>PeopleRegister&#45;&gt;PaperTrail::Version</title>
<path fill="none" stroke="#67163a" d="M1203.33,-166.111C1183.24,-143.712 1150.36,-109.609 1117,-86 1089.58,-66.598 1055.72,-49.8076 1028.77,-37.8881"/>
<ellipse fill="none" stroke="#67163a" cx="1206.23" cy="-169.389" rx="4.00002" ry="4.00002"/>
<polygon fill="#67163a" stroke="#67163a" points="1028.71,-37.8653 1021.34,-29.7518 1024.13,-35.8721 1019.54,-33.8788 1019.54,-33.8788 1019.54,-33.8788 1024.13,-35.8721 1017.75,-38.0058 1028.71,-37.8653 1028.71,-37.8653"/>
<text text-anchor="middle" x="1184.33" y="-99.8" font-family="Times,serif" font-size="14.00">versions</text>
</g>
<!-- Person&#45;&gt;PeopleRegister -->
<g id="edge33" class="edge"><title>Person&#45;&gt;PeopleRegister</title>
<path fill="none" stroke="#f3a73d" d="M1191.01,-324.02C1197.93,-295.246 1209.26,-248.122 1216.42,-218.374"/>
<ellipse fill="none" stroke="#f3a73d" cx="1190" cy="-328.202" rx="4.00001" ry="4.00001"/>
<polygon fill="#f3a73d" stroke="#f3a73d" points="1216.51,-217.989 1223.22,-209.318 1217.68,-213.128 1218.85,-208.266 1218.85,-208.266 1218.85,-208.266 1217.68,-213.128 1214.47,-207.214 1216.51,-217.989 1216.51,-217.989"/>
</g>
<!-- Person&#45;&gt;Register -->
<g id="edge34" class="edge"><title>Person&#45;&gt;Register</title>
<path fill="none" stroke="#b8878a" d="M1141.79,-344.141C1104.16,-339.111 1048.49,-329.733 1002,-314 988.821,-309.54 987.128,-304.608 974,-300 936.05,-286.679 891.272,-277.507 858.26,-271.905"/>
<polygon fill="#b8878a" stroke="#b8878a" points="1141.99,-344.166 1151.33,-349.909 1146.95,-344.806 1151.91,-345.446 1151.91,-345.446 1151.91,-345.446 1146.95,-344.806 1152.48,-340.983 1141.99,-344.166 1141.99,-344.166"/>
<polygon fill="#b8878a" stroke="#b8878a" points="857.846,-271.836 848.711,-265.77 852.913,-271.023 847.979,-270.21 847.979,-270.21 847.979,-270.21 852.913,-271.023 847.248,-274.651 857.846,-271.836 857.846,-271.836"/>
</g>
<!-- Person&#45;&gt;PaperTrail::Version -->
<g id="edge32" class="edge"><title>Person&#45;&gt;PaperTrail::Version</title>
<path fill="none" stroke="#1e6c1b" d="M1225.26,-342.166C1266,-332.674 1323,-311.147 1323,-265 1323,-265 1323,-265 1323,-103 1323,-50.6848 1169.77,-30.7617 1068.74,-23.3114"/>
<ellipse fill="none" stroke="#1e6c1b" cx="1221.26" cy="-343.047" rx="4.00001" ry="4.00001"/>
<polygon fill="#1e6c1b" stroke="#1e6c1b" points="1068.5,-23.2944 1058.85,-18.0983 1063.51,-22.9407 1058.53,-22.5871 1058.53,-22.5871 1058.53,-22.5871 1063.51,-22.9407 1058.21,-27.0758 1068.5,-23.2944 1068.5,-23.2944"/>
<text text-anchor="middle" x="1346.33" y="-185.8" font-family="Times,serif" font-size="14.00">versions</text>
</g>
<!-- Production&#45;&gt;Register -->
<g id="edge37" class="edge"><title>Production&#45;&gt;Register</title>
<path fill="none" stroke="#6fd125" d="M800.157,-130.33C805.889,-159.814 811.709,-208.217 813.066,-237.692"/>
<ellipse fill="none" stroke="#6fd125" cx="799.28" cy="-126.105" rx="4.00001" ry="4.00001"/>
<ellipse fill="#6fd125" stroke="#6fd125" cx="813.201" cy="-241.793" rx="4" ry="4"/>
</g>
<!-- Production&#45;&gt;PaperTrail::Version -->
<g id="edge36" class="edge"><title>Production&#45;&gt;PaperTrail::Version</title>
<path fill="none" stroke="#9e5576" d="M825.982,-85.0436C844.748,-75.3883 868.596,-63.5408 890.338,-54 903.643,-48.1616 918.258,-42.3282 931.832,-37.1447"/>
<ellipse fill="none" stroke="#9e5576" cx="822.347" cy="-86.9241" rx="4.00002" ry="4.00002"/>
<polygon fill="#9e5576" stroke="#9e5576" points="932.144,-37.027 943.089,-37.7042 936.822,-35.2607 941.499,-33.4944 941.499,-33.4944 941.499,-33.4944 936.822,-35.2607 939.91,-29.2845 932.144,-37.027 932.144,-37.027"/>
<text text-anchor="middle" x="914.331" y="-56.8" font-family="Times,serif" font-size="14.00">versions</text>
</g>
<!-- Profile -->
<g id="node17" class="node"><title>Profile</title>
<ellipse fill="none" stroke="black" cx="1101" cy="-522" rx="33.5375" ry="18"/>
<text text-anchor="middle" x="1101" y="-517.8" font-family="Times,serif" font-size="14.00">Profile</text>
</g>
<!-- Province&#45;&gt;Community -->
<g id="edge40" class="edge"><title>Province&#45;&gt;Community</title>
<path fill="none" stroke="#e1dda2" d="M769.74,-500.793C785.74,-488.232 806.323,-472.074 822.769,-459.162"/>
<ellipse fill="none" stroke="#e1dda2" cx="766.276" cy="-503.512" rx="4.00002" ry="4.00002"/>
<polygon fill="#e1dda2" stroke="#e1dda2" points="823.081,-458.918 833.725,-456.282 827.014,-455.83 830.947,-452.743 830.947,-452.743 830.947,-452.743 827.014,-455.83 828.168,-449.203 823.081,-458.918 823.081,-458.918"/>
</g>
<!-- Province&#45;&gt;RegionsUser -->
<g id="edge41" class="edge"><title>Province&#45;&gt;RegionsUser</title>
<path fill="none" stroke="#7c52a6" d="M737.591,-496.24C729.425,-464.688 715.363,-410.355 706.947,-377.84"/>
<ellipse fill="none" stroke="#7c52a6" cx="738.618" cy="-500.206" rx="4.00001" ry="4.00001"/>
<polygon fill="#7c52a6" stroke="#7c52a6" points="706.933,-377.787 708.784,-366.978 705.68,-372.946 704.427,-368.106 704.427,-368.106 704.427,-368.106 705.68,-372.946 700.071,-369.233 706.933,-377.787 706.933,-377.787"/>
</g>
<!-- Register&#45;&gt;Capital -->
<g id="edge46" class="edge"><title>Register&#45;&gt;Capital</title>
<path fill="none" stroke="#74eb91" d="M763.347,-271.09C732.77,-276.029 692.925,-284.771 660,-300 592.392,-331.27 446,-483.511 446,-558 446,-671 446,-671 446,-671 446,-698.549 440.333,-729.624 433.81,-750.968"/>
<polygon fill="#74eb91" stroke="#74eb91" points="763.454,-271.073 774.021,-274.005 768.396,-270.315 773.338,-269.557 773.338,-269.557 773.338,-269.557 768.396,-270.315 772.656,-265.109 763.454,-271.073 763.454,-271.073"/>
<polygon fill="#74eb91" stroke="#74eb91" points="433.755,-751.13 426.296,-759.168 432.158,-755.868 430.56,-760.606 430.56,-760.606 430.56,-760.606 432.158,-755.868 434.824,-762.044 433.755,-751.13 433.755,-751.13"/>
</g>
<!-- Register&#45;&gt;Land -->
<g id="edge48" class="edge"><title>Register&#45;&gt;Land</title>
<path fill="none" stroke="#f56899" d="M768.142,-253.87C725.819,-244.33 659.554,-227.977 604,-208 602.104,-207.318 600.172,-206.578 598.235,-205.8"/>
<ellipse fill="none" stroke="#f56899" cx="772.113" cy="-254.757" rx="4.00001" ry="4.00001"/>
<polygon fill="#f56899" stroke="#f56899" points="597.848,-205.634 590.426,-197.562 593.251,-203.666 588.655,-201.698 588.655,-201.698 588.655,-201.698 593.251,-203.666 586.884,-205.835 597.848,-205.634 597.848,-205.634"/>
</g>
<!-- Register&#45;&gt;Partnership -->
<g id="edge52" class="edge"><title>Register&#45;&gt;Partnership</title>
<path fill="none" stroke="#e28521" d="M854.024,-253.972C885.004,-247.288 927.733,-237.697 965,-228 991.546,-221.093 1020.97,-212.506 1044.7,-205.343"/>
<ellipse fill="none" stroke="#e28521" cx="849.923" cy="-254.852" rx="4.00001" ry="4.00001"/>
<polygon fill="#e28521" stroke="#e28521" points="1044.93,-205.274 1055.81,-206.676 1049.72,-203.822 1054.5,-202.37 1054.5,-202.37 1054.5,-202.37 1049.72,-203.822 1053.2,-198.064 1044.93,-205.274 1044.93,-205.274"/>
</g>
<!-- Register&#45;&gt;PeopleRegister -->
<g id="edge50" class="edge"><title>Register&#45;&gt;PeopleRegister</title>
<path fill="none" stroke="#3a8210" d="M856.041,-256.688C921.147,-247.338 1045.24,-228.672 1150,-208 1155.35,-206.945 1160.9,-205.78 1166.44,-204.57"/>
<ellipse fill="none" stroke="#3a8210" cx="851.977" cy="-257.269" rx="4.00001" ry="4.00001"/>
<polygon fill="#3a8210" stroke="#3a8210" points="1166.61,-204.533 1177.35,-206.748 1171.49,-203.444 1176.37,-202.356 1176.37,-202.356 1176.37,-202.356 1171.49,-203.444 1175.39,-197.964 1166.61,-204.533 1166.61,-204.533"/>
</g>
<!-- Register&#45;&gt;Production -->
<g id="edge51" class="edge"><title>Register&#45;&gt;Production</title>
<path fill="none" stroke="#7c788a" d="M802.508,-235.927C797.028,-207.054 791.548,-161.568 790.043,-132.524"/>
<polygon fill="#7c788a" stroke="#7c788a" points="802.584,-236.296 800.188,-246.997 803.59,-241.193 804.596,-246.091 804.596,-246.091 804.596,-246.091 803.59,-241.193 809.004,-245.186 802.584,-236.296 802.584,-236.296"/>
<polygon fill="#7c788a" stroke="#7c788a" points="790.033,-132.26 794.166,-122.102 789.851,-127.263 789.669,-122.266 789.669,-122.266 789.669,-122.266 789.851,-127.263 785.172,-122.43 790.033,-132.26 790.033,-132.26"/>
</g>
<!-- Register&#45;&gt;PaperTrail::Version -->
<g id="edge44" class="edge"><title>Register&#45;&gt;PaperTrail::Version</title>
<path fill="none" stroke="#a80e27" d="M853.723,-253.264C879.586,-245.249 911.278,-231.305 931,-208 936.316,-201.718 962.791,-96.7167 975.357,-45.9996"/>
<ellipse fill="none" stroke="#a80e27" cx="849.74" cy="-254.435" rx="4.00001" ry="4.00001"/>
<polygon fill="#a80e27" stroke="#a80e27" points="975.416,-45.7639 982.184,-37.1359 976.615,-40.91 977.815,-36.0561 977.815,-36.0561 977.815,-36.0561 976.615,-40.91 973.447,-34.9762 975.416,-45.7639 975.416,-45.7639"/>
<text text-anchor="middle" x="974.331" y="-142.8" font-family="Times,serif" font-size="14.00">versions</text>
</g>
<!-- Aggregate -->
<g id="node29" class="node"><title>Aggregate</title>
<ellipse fill="none" stroke="black" cx="876" cy="-190" rx="46.4046" ry="18"/>
<text text-anchor="middle" x="876" y="-185.8" font-family="Times,serif" font-size="14.00">Aggregate</text>
</g>
<!-- Register&#45;&gt;Aggregate -->
<g id="edge45" class="edge"><title>Register&#45;&gt;Aggregate</title>
<path fill="none" stroke="#fd1b98" d="M830.966,-240.884C838.409,-232.64 846.887,-223.248 854.464,-214.855"/>
<ellipse fill="none" stroke="#fd1b98" cx="828.106" cy="-244.052" rx="4.00002" ry="4.00002"/>
<polygon fill="#fd1b98" stroke="#fd1b98" points="854.689,-214.606 864.73,-210.199 858.039,-210.895 861.39,-207.183 861.39,-207.183 861.39,-207.183 858.039,-210.895 858.05,-204.168 854.689,-214.606 854.689,-214.606"/>
</g>
<!-- Holder -->
<g id="node30" class="node"><title>Holder</title>
<ellipse fill="none" stroke="black" cx="648" cy="-190" rx="34.495" ry="18"/>
<text text-anchor="middle" x="648" y="-185.8" font-family="Times,serif" font-size="14.00">Holder</text>
</g>
<!-- Register&#45;&gt;Holder -->
<g id="edge47" class="edge"><title>Register&#45;&gt;Holder</title>
<path fill="none" stroke="#beda42" d="M776.191,-247.624C748.624,-235.447 710.303,-218.52 682.751,-206.35"/>
<ellipse fill="none" stroke="#beda42" cx="780.059" cy="-249.333" rx="4.00002" ry="4.00002"/>
<polygon fill="#beda42" stroke="#beda42" points="682.638,-206.3 675.309,-198.143 678.064,-204.28 673.49,-202.26 673.49,-202.26 673.49,-202.26 678.064,-204.28 671.672,-206.376 682.638,-206.3 682.638,-206.3"/>
</g>
<!-- Son -->
<g id="node31" class="node"><title>Son</title>
<ellipse fill="none" stroke="black" cx="728" cy="-190" rx="27" ry="18"/>
<text text-anchor="middle" x="728" y="-185.8" font-family="Times,serif" font-size="14.00">Son</text>
</g>
<!-- Register&#45;&gt;Son -->
<g id="edge49" class="edge"><title>Register&#45;&gt;Son</title>
<path fill="none" stroke="#d86e89" d="M786.031,-242.467C780.394,-237.756 774.463,-232.738 769,-228 763.124,-222.904 756.855,-217.322 751.032,-212.074"/>
<ellipse fill="none" stroke="#d86e89" cx="789.393" cy="-245.264" rx="4.00002" ry="4.00002"/>
<polygon fill="#d86e89" stroke="#d86e89" points="750.857,-211.916 746.468,-201.866 747.152,-208.558 743.446,-205.201 743.446,-205.201 743.446,-205.201 747.152,-208.558 740.425,-208.536 750.857,-211.916 750.857,-211.916"/>
</g>
<!-- Role -->
<g id="node21" class="node"><title>Role</title>
<ellipse fill="none" stroke="black" cx="924" cy="-778" rx="27" ry="18"/>
<text text-anchor="middle" x="924" y="-773.8" font-family="Times,serif" font-size="14.00">Role</text>
</g>
<!-- RolesRunpaModule -->
<g id="node22" class="node"><title>RolesRunpaModule</title>
<ellipse fill="none" stroke="black" cx="981" cy="-596" rx="80.2764" ry="18"/>
<text text-anchor="middle" x="981" y="-591.8" font-family="Times,serif" font-size="14.00">RolesRunpaModule</text>
</g>
<!-- Role&#45;&gt;RolesRunpaModule -->
<g id="edge55" class="edge"><title>Role&#45;&gt;RolesRunpaModule</title>
<path fill="none" stroke="#b06d2b" d="M945.836,-757.472C962.621,-740.89 984.493,-715.464 994,-688 1001.22,-667.132 996.84,-642.236 991.286,-623.763"/>
<ellipse fill="none" stroke="#b06d2b" cx="942.797" cy="-760.395" rx="4.00002" ry="4.00002"/>
<polygon fill="#b06d2b" stroke="#b06d2b" points="991.274,-623.726 992.421,-612.821 989.711,-618.977 988.147,-614.228 988.147,-614.228 988.147,-614.228 989.711,-618.977 983.873,-615.635 991.274,-623.726 991.274,-623.726"/>
</g>
<!-- RunpaModule -->
<g id="node23" class="node"><title>RunpaModule</title>
<ellipse fill="none" stroke="black" cx="925" cy="-670" rx="60.5589" ry="18"/>
<text text-anchor="middle" x="925" y="-665.8" font-family="Times,serif" font-size="14.00">RunpaModule</text>
</g>
<!-- Role&#45;&gt;RunpaModule -->
<g id="edge56" class="edge"><title>Role&#45;&gt;RunpaModule</title>
<path fill="none" stroke="#c4c2e2" d="M924.255,-749.931C924.404,-734.187 924.591,-714.393 924.74,-698.566"/>
<polygon fill="#c4c2e2" stroke="#c4c2e2" points="924.255,-749.97 919.661,-759.927 924.208,-754.969 924.161,-759.969 924.161,-759.969 924.161,-759.969 924.208,-754.969 928.66,-760.012 924.255,-749.97 924.255,-749.97"/>
<polygon fill="#c4c2e2" stroke="#c4c2e2" points="924.742,-698.34 929.336,-688.383 924.789,-693.34 924.836,-688.341 924.836,-688.341 924.836,-688.341 924.789,-693.34 920.337,-688.298 924.742,-698.34 924.742,-698.34"/>
</g>
<!-- Role&#45;&gt;User -->
<g id="edge54" class="edge"><title>Role&#45;&gt;User</title>
<path fill="none" stroke="#259a03" d="M902.277,-755C886.782,-738.059 866.694,-713.321 855,-688 845.666,-667.79 840.875,-642.942 838.44,-624.319"/>
<polygon fill="#259a03" stroke="#259a03" points="902.618,-755.364 906.175,-765.737 906.038,-759.012 909.458,-762.659 909.458,-762.659 909.458,-762.659 906.038,-759.012 912.74,-759.581 902.618,-755.364 902.618,-755.364"/>
<polygon fill="#259a03" stroke="#259a03" points="838.414,-624.09 841.733,-613.639 837.839,-619.123 837.263,-614.156 837.263,-614.156 837.263,-614.156 837.839,-619.123 832.793,-614.674 838.414,-624.09 838.414,-624.09"/>
</g>
<!-- RunpaModule&#45;&gt;RolesRunpaModule -->
<g id="edge59" class="edge"><title>RunpaModule&#45;&gt;RolesRunpaModule</title>
<path fill="none" stroke="#97e5aa" d="M943.042,-645.803C948.928,-638.236 955.488,-629.801 961.477,-622.1"/>
<ellipse fill="none" stroke="#97e5aa" cx="940.444" cy="-649.143" rx="4.00002" ry="4.00002"/>
<polygon fill="#97e5aa" stroke="#97e5aa" points="961.554,-622.002 971.245,-616.871 964.624,-618.055 967.693,-614.109 967.693,-614.109 967.693,-614.109 964.624,-618.055 964.141,-611.346 961.554,-622.002 961.554,-622.002"/>
</g>
<!-- RunpaModule&#45;&gt;User -->
<g id="edge60" class="edge"><title>RunpaModule&#45;&gt;User</title>
<path fill="none" stroke="#2df5c1" d="M897.017,-646.362C885.254,-636.846 871.696,-625.878 860.353,-616.701"/>
<polygon fill="#2df5c1" stroke="#2df5c1" points="897.03,-646.373 901.974,-656.161 900.917,-649.517 904.805,-652.662 904.805,-652.662 904.805,-652.662 900.917,-649.517 907.635,-649.164 897.03,-646.373 897.03,-646.373"/>
<polygon fill="#2df5c1" stroke="#2df5c1" points="860.316,-616.671 855.372,-606.883 856.429,-613.527 852.541,-610.382 852.541,-610.382 852.541,-610.382 856.429,-613.527 849.711,-613.88 860.316,-616.671 860.316,-616.671"/>
</g>
<!-- User&#45;&gt;Community -->
<g id="edge66" class="edge"><title>User&#45;&gt;Community</title>
<path fill="none" stroke="#31b36e" d="M838.602,-567.594C841.348,-538.666 845.652,-493.332 848.398,-464.404"/>
<polygon fill="#31b36e" stroke="#31b36e" points="838.579,-567.835 833.154,-577.365 838.106,-572.813 837.634,-577.79 837.634,-577.79 837.634,-577.79 838.106,-572.813 842.114,-578.216 838.579,-567.835 838.579,-567.835"/>
<polygon fill="#31b36e" stroke="#31b36e" points="848.423,-464.144 853.848,-454.614 848.896,-459.166 849.368,-454.188 849.368,-454.188 849.368,-454.188 848.896,-459.166 844.888,-453.763 848.423,-464.144 848.423,-464.144"/>
</g>
<!-- User&#45;&gt;Profile -->
<g id="edge62" class="edge"><title>User&#45;&gt;Profile</title>
<path fill="none" stroke="#af5043" d="M867.344,-584.196C875.009,-581.865 883.24,-579.618 891,-578 961.486,-563.304 985.109,-586.643 1052,-560 1061.75,-556.117 1071.24,-549.75 1079.24,-543.382"/>
<ellipse fill="none" stroke="#af5043" cx="863.113" cy="-585.53" rx="4.00001" ry="4.00001"/>
<ellipse fill="#af5043" stroke="#af5043" cx="1082.51" cy="-540.653" rx="4.00002" ry="4.00002"/>
</g>
<!-- User&#45;&gt;Province -->
<g id="edge65" class="edge"><title>User&#45;&gt;Province</title>
<path fill="none" stroke="#9e8313" d="M811.222,-575.608C798.879,-565.948 783.924,-554.245 771.257,-544.332"/>
<polygon fill="#9e8313" stroke="#9e8313" points="811.251,-575.631 816.352,-585.338 815.188,-578.713 819.126,-581.794 819.126,-581.794 819.126,-581.794 815.188,-578.713 821.899,-578.25 811.251,-575.631 811.251,-575.631"/>
<polygon fill="#9e8313" stroke="#9e8313" points="771.189,-544.279 766.088,-534.572 767.252,-541.197 763.314,-538.115 763.314,-538.115 763.314,-538.115 767.252,-541.197 760.541,-541.659 771.189,-544.279 771.189,-544.279"/>
</g>
<!-- User&#45;&gt;RegionsUser -->
<g id="edge64" class="edge"><title>User&#45;&gt;RegionsUser</title>
<path fill="none" stroke="#d910fe" d="M825.634,-570.888C817.49,-552.367 805.618,-526.274 794,-504 765.904,-450.134 758.023,-436.993 725,-386 722.93,-382.803 720.692,-379.491 718.436,-376.237"/>
<ellipse fill="none" stroke="#d910fe" cx="827.284" cy="-574.663" rx="4.00002" ry="4.00002"/>
<polygon fill="#d910fe" stroke="#d910fe" points="718.297,-376.04 716.198,-365.276 715.41,-371.957 712.523,-367.875 712.523,-367.875 712.523,-367.875 715.41,-371.957 708.849,-370.473 718.297,-376.04 718.297,-376.04"/>
</g>
<!-- User&#45;&gt;Register -->
<g id="edge63" class="edge"><title>User&#45;&gt;Register</title>
<path fill="none" stroke="#99fab5" d="M867.029,-584.119C904.337,-570.066 962,-544.816 962,-523 962,-523 962,-523 962,-349 962,-300.992 902.99,-280.18 858.749,-271.323"/>
<ellipse fill="none" stroke="#99fab5" cx="863.155" cy="-585.554" rx="4.00001" ry="4.00001"/>
<polygon fill="#99fab5" stroke="#99fab5" points="858.547,-271.286 849.534,-265.039 853.63,-270.375 848.714,-269.464 848.714,-269.464 848.714,-269.464 853.63,-270.375 847.894,-273.889 858.547,-271.286 858.547,-271.286"/>
</g>
<!-- User&#45;&gt;PaperTrail::Version -->
<g id="edge67" class="edge"><title>User&#45;&gt;PaperTrail::Version</title>
<path fill="none" stroke="#1529c3" d="M867.857,-585.011C893.099,-576.941 926.18,-565.976 939,-560 954.544,-552.754 963.067,-554.64 972,-540 1071.67,-376.664 1013.47,-127.593 990.232,-45.9445"/>
<ellipse fill="none" stroke="#1529c3" cx="863.784" cy="-586.307" rx="4.00001" ry="4.00001"/>
<polygon fill="#1529c3" stroke="#1529c3" points="990.127,-45.5833 991.651,-34.7238 988.728,-40.7828 987.33,-35.9823 987.33,-35.9823 987.33,-35.9823 988.728,-40.7828 983.01,-37.2407 990.127,-45.5833 990.127,-45.5833"/>
<text text-anchor="middle" x="1052.33" y="-302.8" font-family="Times,serif" font-size="14.00">versions</text>
</g>
<!-- Object -->
<g id="node25" class="node"><title>Object</title>
<ellipse fill="none" stroke="black" cx="258" cy="-871" rx="33.5181" ry="18"/>
<text text-anchor="middle" x="258" y="-866.8" font-family="Times,serif" font-size="14.00">Object</text>
</g>
<!-- Object&#45;&gt;Ability -->
<g id="edge1" class="edge"><title>Object&#45;&gt;Ability</title>
<path fill="none" stroke="black" d="M258,-852.884C258,-836.614 258,-812.284 258,-796.04"/>
</g>
<!-- ActiveRecord::Base -->
<g id="node27" class="node"><title>ActiveRecord::Base</title>
<ellipse fill="none" stroke="black" cx="1017" cy="-871" rx="80.9821" ry="18"/>
<text text-anchor="middle" x="1017" y="-866.8" font-family="Times,serif" font-size="14.00">ActiveRecord::Base</text>
</g>
<!-- ActiveRecord::Base&#45;&gt;Capital -->
<g id="edge4" class="edge"><title>ActiveRecord::Base&#45;&gt;Capital</title>
<path fill="none" stroke="black" d="M937.353,-867.337C806.753,-862.105 553.259,-848.076 470,-816 457.303,-811.108 444.992,-802.069 435.763,-794.149"/>
</g>
<!-- ActiveRecord::Base&#45;&gt;CivilStatus -->
<g id="edge5" class="edge"><title>ActiveRecord::Base&#45;&gt;CivilStatus</title>
<path fill="none" stroke="black" d="M1055.97,-855.114C1081.64,-844.928 1115.79,-830.659 1145,-816 1158.38,-809.287 1172.81,-800.901 1184.48,-793.811"/>
</g>
<!-- ActiveRecord::Base&#45;&gt;Community -->
<g id="edge10" class="edge"><title>ActiveRecord::Base&#45;&gt;Community</title>
<path fill="none" stroke="black" d="M1027.3,-852.975C1054.26,-806.046 1121.32,-672.08 1070,-578 1031.45,-507.339 940.634,-466.773 888.868,-448.613"/>
</g>
<!-- ActiveRecord::Base&#45;&gt;Department -->
<g id="edge17" class="edge"><title>ActiveRecord::Base&#45;&gt;Department</title>
<path fill="none" stroke="black" d="M940.735,-864.77C861.273,-857.93 743.485,-843.445 708,-816 666.212,-783.68 650.04,-718.872 644.522,-688.046"/>
</g>
<!-- ActiveRecord::Base&#45;&gt;EconomicActivity -->
<g id="edge18" class="edge"><title>ActiveRecord::Base&#45;&gt;EconomicActivity</title>
<path fill="none" stroke="black" d="M1092.16,-864.042C1165.39,-856.987 1279.33,-842.667 1375,-816 1394.5,-810.563 1415.45,-802 1432.12,-794.48"/>
</g>
<!-- ActiveRecord::Base&#45;&gt;Education -->
<g id="edge19" class="edge"><title>ActiveRecord::Base&#45;&gt;Education</title>
<path fill="none" stroke="black" d="M1090.95,-863.353C1193.98,-853.261 1386.18,-831.411 1547,-796 1554.24,-794.405 1561.91,-792.337 1569.17,-790.196"/>
</g>
<!-- ActiveRecord::Base&#45;&gt;Entity -->
<g id="edge21" class="edge"><title>ActiveRecord::Base&#45;&gt;Entity</title>
<path fill="none" stroke="black" d="M985.709,-854.302C958.905,-840.335 919.725,-818.661 888,-796 863.501,-778.5 837.78,-754.93 822.064,-739.846"/>
</g>
<!-- ActiveRecord::Base&#45;&gt;Land -->
<g id="edge25" class="edge"><title>ActiveRecord::Base&#45;&gt;Land</title>
<path fill="none" stroke="black" d="M940.634,-864.757C793.255,-853.609 484,-824.763 484,-779 484,-779 484,-779 484,-558 484,-485.077 479,-466.923 479,-394 479,-394 479,-394 479,-263 479,-230.035 516.449,-209.439 542.487,-199.103"/>
</g>
<!-- ActiveRecord::Base&#45;&gt;Partnership -->
<g id="edge28" class="edge"><title>ActiveRecord::Base&#45;&gt;Partnership</title>
<path fill="none" stroke="black" d="M1083.94,-860.798C1163.32,-847.965 1285,-821.381 1285,-779 1285,-779 1285,-779 1285,-392 1285,-298.64 1175.31,-232.033 1120.89,-204.733"/>
</g>
<!-- ActiveRecord::Base&#45;&gt;PartnershipsRegister -->
<g id="edge29" class="edge"><title>ActiveRecord::Base&#45;&gt;PartnershipsRegister</title>
<path fill="none" stroke="black" d="M1090.15,-863.12C1209.25,-851.566 1452.34,-826.504 1657,-796 1667.71,-794.403 1679.09,-792.5 1690.06,-790.554"/>
</g>
<!-- ActiveRecord::Base&#45;&gt;PeopleRegister -->
<g id="edge31" class="edge"><title>ActiveRecord::Base&#45;&gt;PeopleRegister</title>
<path fill="none" stroke="black" d="M1093.77,-865.08C1195.16,-856.436 1361,-833.904 1361,-779 1361,-779 1361,-779 1361,-263 1361,-240.909 1304.71,-217.667 1264.03,-203.755"/>
</g>
<!-- ActiveRecord::Base&#45;&gt;Person -->
<g id="edge35" class="edge"><title>ActiveRecord::Base&#45;&gt;Person</title>
<path fill="none" stroke="black" d="M1089.26,-862.661C1161.15,-854.226 1265.45,-838.575 1299,-816 1315.26,-805.058 1323,-798.601 1323,-779 1323,-779 1323,-779 1323,-632 1323,-520.31 1234.08,-406.863 1198.99,-366.451"/>
</g>
<!-- ActiveRecord::Base&#45;&gt;Production -->
<g id="edge38" class="edge"><title>ActiveRecord::Base&#45;&gt;Production</title>
<path fill="none" stroke="black" d="M937.041,-867.879C752.786,-861.929 314,-841.226 314,-779 314,-779 314,-779 314,-392 314,-204.621 469.617,-182.977 652,-140 690.009,-131.043 700.219,-131.875 738,-122 744.181,-120.384 750.704,-118.493 756.998,-116.571"/>
</g>
<!-- ActiveRecord::Base&#45;&gt;Profile -->
<g id="edge39" class="edge"><title>ActiveRecord::Base&#45;&gt;Profile</title>
<path fill="none" stroke="black" d="M1059.45,-855.653C1091.86,-841.7 1131,-816.986 1131,-779 1131,-779 1131,-779 1131,-595 1131,-574.552 1120.56,-553.176 1112,-539.082"/>
</g>
<!-- ActiveRecord::Base&#45;&gt;Province -->
<g id="edge42" class="edge"><title>ActiveRecord::Base&#45;&gt;Province</title>
<path fill="none" stroke="black" d="M941.439,-864.253C890.085,-856.473 824.085,-838.299 782,-796 711.46,-725.101 730.771,-588.007 740.239,-540.058"/>
</g>
<!-- ActiveRecord::Base&#45;&gt;RegionsUser -->
<g id="edge43" class="edge"><title>ActiveRecord::Base&#45;&gt;RegionsUser</title>
<path fill="none" stroke="black" d="M942.358,-863.887C804.075,-851.551 522,-821.214 522,-779 522,-779 522,-779 522,-632 522,-544.224 610.604,-561.721 655,-486 666.996,-465.54 686.31,-399.833 695.218,-368.258"/>
</g>
<!-- ActiveRecord::Base&#45;&gt;Register -->
<g id="edge53" class="edge"><title>ActiveRecord::Base&#45;&gt;Register</title>
<path fill="none" stroke="black" d="M1033.56,-853.281C1046.96,-839.024 1065.59,-817.48 1078,-796 1132.21,-702.17 1299.92,-413.055 1228,-332 1178.54,-276.264 944.762,-266.797 850.519,-265.262"/>
</g>
<!-- ActiveRecord::Base&#45;&gt;Role -->
<g id="edge57" class="edge"><title>ActiveRecord::Base&#45;&gt;Role</title>
<path fill="none" stroke="black" d="M999.942,-853.309C982.323,-836.069 955.124,-809.454 938.506,-793.194"/>
</g>
<!-- ActiveRecord::Base&#45;&gt;RolesRunpaModule -->
<g id="edge58" class="edge"><title>ActiveRecord::Base&#45;&gt;RolesRunpaModule</title>
<path fill="none" stroke="black" d="M1016.84,-852.742C1016.42,-815.857 1014.92,-726.625 1010,-652 1009.41,-643.086 1011.3,-640.301 1008,-632 1005.45,-625.582 1001.35,-619.35 997.117,-613.968"/>
</g>
<!-- ActiveRecord::Base&#45;&gt;RunpaModule -->
<g id="edge61" class="edge"><title>ActiveRecord::Base&#45;&gt;RunpaModule</title>
<path fill="none" stroke="black" d="M1009.16,-853.033C991.775,-815.437 950.187,-725.48 932.824,-687.924"/>
</g>
<!-- ActiveRecord::Base&#45;&gt;User -->
<g id="edge68" class="edge"><title>ActiveRecord::Base&#45;&gt;User</title>
<path fill="none" stroke="black" d="M955.975,-859.017C895.518,-844.33 807.284,-811.575 774,-742 751.551,-695.074 796.577,-637.932 821.286,-611.587"/>
</g>
<!-- ActiveAdmin::Component -->
<g id="node28" class="node"><title>ActiveAdmin::Component</title>
<ellipse fill="none" stroke="black" cx="1887" cy="-871" rx="104.141" ry="18"/>
<text text-anchor="middle" x="1887" y="-866.8" font-family="Times,serif" font-size="14.00">ActiveAdmin::Component</text>
</g>
<!-- ActiveAdmin::Component&#45;&gt;MyFooter -->
<g id="edge26" class="edge"><title>ActiveAdmin::Component&#45;&gt;MyFooter</title>
<path fill="none" stroke="black" d="M1887,-852.884C1887,-836.614 1887,-812.284 1887,-796.04"/>
</g>
</g>
</svg>
